<svg width="198" height="106" viewBox="0 0 198 106" fill="none" xmlns="http://www.w3.org/2000/svg">
<path d="M78.634 8.60065L104.268 53L78.634 97.3993L27.366 97.3993L1.73205 53L27.366 8.60065L78.634 8.60065Z" fill="white" stroke="#262258" stroke-width="3"/>
<line x1="192" y1="52.5" x2="105" y2="52.5" stroke="#262258" stroke-width="3"/>
<circle cx="193.5" cy="52.5" r="4.5" transform="rotate(-180 193.5 52.5)" fill="#262258"/>
<path d="M55.9936 40.3204C56.003 40.3204 56.0124 40.3204 56.0124 40.3204C59.8082 40.2829 59.2538 35.2093 59.2538 35.2093C59.1035 31.8176 56.2755 31.8458 55.9936 31.8552C55.7118 31.8458 52.8837 31.8176 52.724 35.1999C52.724 35.1999 52.1697 40.2735 55.9748 40.311C55.9748 40.3204 55.9842 40.3204 55.9936 40.3204Z" fill="#070241"/>
<path d="M55.993 46.6243L58.4452 43.2419C58.4452 43.2419 60.174 43.9372 61.5833 44.9801C61.9497 45.2526 62.1188 45.4123 62.4477 45.7411C63.2275 46.5209 62.8987 51.0401 62.4477 52.6937C61.9967 54.3473 60.6719 56.7244 60.6719 56.7244C60.4089 57.3257 60.2398 57.974 60.174 58.6223L58.4828 75.2052C58.4264 75.7313 57.9848 76.1353 57.4587 76.1353H55.993H54.5273C54.0012 76.1353 53.5502 75.7313 53.5032 75.2052L51.8121 58.6223C51.7463 57.9646 51.5772 57.3257 51.3141 56.7244C51.3141 56.7244 49.9893 54.3567 49.5384 52.6937C49.0874 51.0401 48.7585 46.5209 49.5384 45.7411C49.8672 45.4123 50.0363 45.2526 50.4027 44.9801C51.8121 43.9466 53.5408 43.2419 53.5408 43.2419L55.993 46.6243Z" fill="#070241"/>
<path d="M36.9204 54.3758C37.3432 55.9166 38.4707 57.993 38.6398 58.3124C38.8465 58.7916 38.978 59.2896 39.025 59.8063L40.6128 75.3651C40.7068 76.2953 41.4866 76.9999 42.4261 76.9999H45.1696C46.1092 76.9999 46.889 76.2953 46.9829 75.3651L48.5708 59.8063C48.6271 59.2802 48.7587 58.7634 48.9748 58.2843C49.1627 57.8521 48.9654 57.3541 48.5426 57.1662C48.1104 56.9783 47.6124 57.1756 47.4245 57.5984C47.1427 58.2467 46.9547 58.9325 46.889 59.6372L45.3011 75.196C45.2918 75.2524 45.2448 75.2994 45.1884 75.2994H42.4449C42.3886 75.2994 42.3322 75.2524 42.3322 75.196L40.7256 59.6278C40.6504 58.9231 40.4719 58.2373 40.19 57.589C40.1806 57.5608 40.1712 57.542 40.1525 57.5138C40.1431 57.495 38.9592 55.3623 38.5646 53.9248C38.1324 52.3182 38.0103 48.8231 38.3673 48.203C38.6492 47.9211 38.7713 47.8084 39.0626 47.5923C39.8048 47.0473 40.6598 46.6057 41.2141 46.3427L43.112 48.9546C43.2717 49.1707 43.5254 49.3022 43.7979 49.3022C44.0703 49.3022 44.324 49.1707 44.4837 48.9546L46.7856 45.7883C47.0581 45.4125 46.9735 44.877 46.5977 44.5951C46.2219 44.3226 45.6864 44.4072 45.4045 44.783L43.7885 47.0003L42.1913 44.7924C41.9658 44.473 41.543 44.3602 41.186 44.5012C41.1202 44.5293 39.4478 45.2058 38.0573 46.2299C37.6627 46.5212 37.4748 46.6997 37.1459 47.0285C35.9433 48.2311 36.6104 53.2295 36.9204 54.3758Z" fill="#070241"/>
<path d="M43.7226 43.3925C43.7414 43.3925 43.7602 43.3925 43.7789 43.3925C43.7883 43.3925 43.8071 43.3925 43.8165 43.3925C43.8353 43.3925 43.8541 43.3925 43.8823 43.3925C44.9722 43.3643 45.8929 42.9697 46.5506 42.2275C47.9505 40.6491 47.7532 38.0183 47.7156 37.6895C47.5747 34.7863 45.5547 33.7622 43.8729 33.7622C43.8447 33.7622 43.8165 33.7622 43.7977 33.7622C43.7789 33.7622 43.7508 33.7622 43.7226 33.7622C42.0408 33.7622 40.0302 34.7957 39.8798 37.6895C39.8517 38.0183 39.645 40.6491 41.0449 42.2275C41.7119 42.9697 42.6327 43.3737 43.7226 43.3925ZM41.5804 37.8398C41.5804 37.821 41.5804 37.8022 41.5804 37.7834C41.6744 35.754 42.9615 35.4534 43.7226 35.4534H43.7601C43.7789 35.4534 43.8071 35.4534 43.8259 35.4534H43.8635C44.6245 35.4534 45.9117 35.754 46.0057 37.7834C46.0057 37.8022 46.0057 37.821 46.0057 37.8304C46.0714 38.4317 46.0526 40.1887 45.254 41.0906C44.9064 41.4852 44.4272 41.6825 43.7977 41.6825C43.7883 41.6825 43.7883 41.6825 43.7789 41.6825C43.1494 41.6732 42.6703 41.4852 42.3227 41.0906C41.5334 40.1981 41.524 38.4411 41.5804 37.8398Z" fill="#070241"/>
<path d="M63.4537 57.1569C63.0215 57.3448 62.8242 57.8521 63.0215 58.2749C63.2376 58.7635 63.3692 59.2709 63.4255 59.797L65.0134 75.3558C65.1073 76.286 65.8871 76.9906 66.8267 76.9906H69.5701C70.5097 76.9906 71.2895 76.286 71.3834 75.3558L72.9713 59.797C73.0276 59.2803 73.1498 58.7823 73.3565 58.3031C73.5256 57.9931 74.6625 55.9167 75.0759 54.3664C75.3859 53.2202 76.0624 48.2218 74.8598 47.0192C74.5309 46.6904 74.343 46.5119 73.9484 46.2206C72.5579 45.1965 70.8949 44.52 70.8197 44.4919C70.4533 44.3415 70.0399 44.4637 69.8144 44.7831L68.1984 47.0004L66.573 44.7925C66.3005 44.4073 65.765 44.3321 65.3798 44.6046C65.004 44.8771 64.9194 45.4126 65.1919 45.7978L67.4937 48.9641C67.6535 49.1802 67.9071 49.3117 68.1796 49.3117C68.4521 49.3117 68.7058 49.1802 68.8655 48.9641L70.7634 46.3522C71.3177 46.6152 72.1727 47.0568 72.9149 47.6017C73.1968 47.8084 73.3189 47.9306 73.6102 48.2124C73.9672 48.8325 73.845 52.3276 73.4129 53.9343C73.0183 55.3718 71.8344 57.5045 71.825 57.5233C71.8156 57.5421 71.7968 57.5703 71.7875 57.5985C71.5056 58.2468 71.3177 58.9326 71.2519 59.6373L69.6641 75.1961C69.6547 75.2525 69.6077 75.2995 69.5513 75.2995H66.8079C66.7515 75.2995 66.6951 75.2525 66.6951 75.1961L65.1073 59.6373C65.0321 58.9326 64.8536 58.2468 64.5718 57.5985C64.3839 57.1569 63.8859 56.969 63.4537 57.1569Z" fill="#070241"/>
<path d="M68.1043 43.3925C68.1231 43.3925 68.1419 43.3925 68.1701 43.3925C68.1795 43.3925 68.1982 43.3925 68.2076 43.3925C68.2264 43.3925 68.2452 43.3925 68.264 43.3925C69.3539 43.3737 70.2746 42.9697 70.9417 42.2275C72.3416 40.6491 72.1443 38.0183 72.1067 37.6895C71.9658 34.7863 69.9552 33.7622 68.264 33.7622C68.2358 33.7622 68.2076 33.7622 68.1888 33.7622C68.1701 33.7622 68.1419 33.7622 68.1137 33.7622C66.4319 33.7622 64.4213 34.7957 64.271 37.6895C64.2428 38.0183 64.0361 40.6491 65.436 42.2275C66.0937 42.9697 67.0144 43.3643 68.1043 43.3925ZM65.9621 37.8398C65.9621 37.821 65.9621 37.8022 65.9621 37.7834C66.0561 35.754 67.3433 35.4534 68.1043 35.4534H68.1419C68.1607 35.4534 68.1888 35.4534 68.2076 35.4534H68.2452C69.0062 35.4534 70.2934 35.754 70.3874 37.7834C70.3874 37.8022 70.3874 37.821 70.3874 37.8304C70.4531 38.4317 70.4344 40.1887 69.6357 41.0906C69.2881 41.4852 68.8089 41.6732 68.1795 41.6825C68.1701 41.6825 68.1701 41.6825 68.1607 41.6825C67.5312 41.6732 67.052 41.4852 66.7044 41.0906C65.9152 40.1981 65.9058 38.4411 65.9621 37.8398Z" fill="#070241"/>
<path d="M48.9374 45.1399C47.6691 46.4083 48.3831 51.6979 48.7213 52.9193C49.1723 54.5635 50.3749 56.7808 50.5534 57.1003C50.7789 57.617 50.9199 58.1525 50.9762 58.7069L52.6674 75.2898C52.7614 76.2575 53.5694 76.981 54.5465 76.981H57.4685C58.4362 76.981 59.2442 76.2481 59.3476 75.2898L61.0387 58.7069C61.0951 58.1525 61.236 57.6076 61.4615 57.1003C61.64 56.7714 62.8427 54.5635 63.2936 52.9193C63.6225 51.6979 64.3459 46.4083 63.0775 45.1399C62.7299 44.7923 62.5326 44.6043 62.1192 44.2943C60.6441 43.2044 58.8684 42.4904 58.7932 42.4528C58.4268 42.3025 58.0134 42.4246 57.7879 42.7441L55.9934 45.1775L54.2271 42.7441C54.0016 42.4246 53.5788 42.3119 53.2217 42.4528C53.1466 42.481 51.3802 43.2044 49.8958 44.2943C49.4824 44.6043 49.2757 44.7923 48.9374 45.1399ZM50.1588 46.3237C50.4689 46.0137 50.6004 45.8915 50.9105 45.666C51.7185 45.0647 52.658 44.5856 53.2593 44.3037L55.3075 47.1223C55.4673 47.3384 55.7209 47.47 55.9934 47.47C56.2659 47.47 56.5195 47.3384 56.6793 47.1223L58.7275 44.3037C59.3194 44.5856 60.2589 45.0647 61.0763 45.666C61.3864 45.8915 61.5179 46.0137 61.828 46.3237C62.2226 46.9626 62.1004 50.7302 61.6213 52.4683C61.1985 54.0092 59.9395 56.2829 59.9207 56.3016C59.9113 56.3204 59.8925 56.3486 59.8831 56.3768C59.5824 57.0627 59.3851 57.7861 59.31 58.5378L57.6188 75.1207C57.6094 75.2146 57.5342 75.2804 57.4403 75.2804H54.5183C54.4244 75.2804 54.3492 75.2146 54.3398 75.1207L52.6486 58.5378C52.5735 57.7955 52.3856 57.0627 52.0755 56.3768C52.0661 56.3486 52.0567 56.3298 52.0379 56.3016C52.0285 56.2829 50.7601 53.9998 50.3374 52.4589C49.8864 50.7302 49.7642 46.9626 50.1588 46.3237Z" fill="#070241"/>
<path d="M55.9084 41.1658C55.9272 41.1658 55.9553 41.1658 55.9741 41.1658C55.9835 41.1658 56.0117 41.1658 56.0211 41.1658C56.0399 41.1658 56.0587 41.1658 56.0775 41.1658C57.2425 41.1471 58.1821 40.7337 58.8867 39.935C60.3712 38.2721 60.1457 35.4722 60.1175 35.134C59.9672 32.0805 57.8532 31 56.0775 31C56.0493 31 56.0211 31 55.9929 31C55.9741 31 55.9459 31 55.9084 31C54.142 31 52.0187 32.0805 51.8683 35.134C51.8401 35.4722 51.6147 38.2627 53.0991 39.9257C53.8038 40.7243 54.7527 41.1377 55.9084 41.1658ZM53.5689 35.2937C53.5689 35.2749 53.5689 35.2561 53.5689 35.2373C53.6722 32.9449 55.2413 32.7006 55.9084 32.7006H55.9553C55.9741 32.7006 56.0023 32.7006 56.0211 32.7006H56.0681C56.7352 32.7006 58.3042 32.9449 58.4075 35.2373C58.4075 35.2561 58.4075 35.2749 58.4075 35.2843C58.4733 35.9326 58.4639 37.8305 57.5995 38.7982C57.2143 39.2304 56.6882 39.4465 56.0023 39.4465C55.9929 39.4465 55.9835 39.4465 55.9741 39.4465C55.2883 39.4371 54.7621 39.2304 54.3769 38.7982C53.5125 37.8399 53.5031 35.942 53.5689 35.2937Z" fill="#070241"/>
</svg>
