<svg width="196" height="106" viewBox="0 0 196 106" fill="none" xmlns="http://www.w3.org/2000/svg">
<path d="M27.366 97.3993L1.73206 53L27.366 8.60066L78.634 8.60066L104.268 53L78.634 97.3994L27.366 97.3993Z" fill="white" stroke="#262258" stroke-width="3"/>
<path d="M56.1859 60.3828H53.324C52.2834 60.3828 51.4405 59.5408 51.4405 58.5013C51.4405 57.4618 52.2834 56.6198 53.324 56.6198H58.3608C59.0477 56.6198 59.6096 56.0584 59.6096 55.3724C59.6096 54.6863 59.0477 54.125 58.3608 54.125H55.9985V52.389C55.9985 51.7029 55.4366 51.1416 54.7497 51.1416C54.0629 51.1416 53.501 51.7029 53.501 52.389V54.125H53.324C50.9097 54.125 48.9429 56.0896 48.9429 58.5013C48.9429 60.9129 50.9097 62.8776 53.324 62.8776H56.1859C57.2265 62.8776 58.0694 63.7196 58.0694 64.7591C58.0694 65.7986 57.2265 66.6406 56.1859 66.6406H51.0554C50.3686 66.6406 49.8066 67.2019 49.8066 67.888C49.8066 68.574 50.3686 69.1354 51.0554 69.1354H53.5114V70.9129C53.5114 71.599 54.0733 72.1603 54.7602 72.1603C55.447 72.1603 56.0089 71.599 56.0089 70.9129V69.1354H56.2171C56.2275 69.1354 56.2379 69.1354 56.2483 69.1354C58.6418 69.1042 60.567 67.1499 60.567 64.7591C60.567 62.3474 58.6002 60.3828 56.1859 60.3828Z" fill="#262258"/>
<path d="M73.5232 57.5551C72.212 54.5405 70.4013 51.6195 68.1118 48.8857C65.3437 45.5593 62.5859 43.3347 61.181 42.3056L66.4884 32.4719C66.7486 31.9834 66.6653 31.3805 66.2594 30.9958C64.8858 29.6549 63.4289 29 61.8054 29C60.3173 29 58.954 29.5613 57.7677 30.0603C56.8311 30.4449 55.9465 30.8191 55.2285 30.8191C55.0099 30.8191 54.8226 30.7879 54.6353 30.7152C52.1585 29.8108 50.2541 29.2495 48.4121 29.2495C46.0811 29.2495 44.0934 30.185 42.1474 32.1809C41.7415 32.5967 41.6791 33.2516 42.0017 33.7401L47.7253 42.3784C46.31 43.4283 43.6043 45.632 40.8882 48.8857C38.6091 51.6195 36.788 54.5405 35.4768 57.5551C33.8325 61.3493 33 65.3098 33 69.3222C33 74.6549 37.35 79 42.6885 79H66.3115C71.65 79 76 74.6549 76 69.3222C76 65.3098 75.1675 61.3493 73.5232 57.5551ZM44.6658 33.2204C45.8729 32.1809 47.0281 31.7235 48.4121 31.7235C49.8899 31.7235 51.5549 32.2225 53.7715 33.0437C54.2294 33.21 54.7185 33.2931 55.2181 33.2931C56.4356 33.2931 57.6012 32.815 58.7147 32.3472C59.7865 31.9002 60.8064 31.474 61.795 31.474C62.2737 31.474 62.9501 31.5572 63.8035 32.1601L58.8083 41.4324H50.1084L44.6658 33.2204ZM66.3115 76.5052H42.6885C38.7236 76.5052 35.4976 73.2827 35.4976 69.3222C35.4976 62.659 37.9431 56.3389 42.751 50.5385C45.7897 46.869 48.8804 44.5925 49.817 43.9272H59.1621C60.1091 44.5821 63.1895 46.869 66.2282 50.5385C71.0465 56.3389 73.4816 62.6486 73.4816 69.3222C73.5024 73.2827 70.2764 76.5052 66.3115 76.5052Z" fill="#262258"/>
<line x1="190" y1="53.5" x2="103" y2="53.5" stroke="#262258" stroke-width="3"/>
<circle cx="191.5" cy="53.5" r="4.5" transform="rotate(-180 191.5 53.5)" fill="#262258"/>
</svg>
