<svg width="485" height="401" viewBox="0 0 485 401" fill="none" xmlns="http://www.w3.org/2000/svg">
<g clip-path="url(#clip0)">
<path d="M203.695 293.37V355.936C204.349 356.328 205.002 356.59 205.655 356.981C205.786 356.981 205.916 357.112 206.047 357.112C210.098 358.941 214.671 359.986 219.374 360.116C219.636 360.116 220.027 360.116 220.289 360.116H363.881V356.981H206.047V292.325H363.881V289.19H220.289C215.193 289.19 210.359 290.235 206.047 292.194C205.916 292.194 205.916 292.325 205.786 292.325C205.002 292.717 204.349 292.978 203.695 293.37Z" fill="#EAEAEA"/>
<path d="M48.2129 324.719C48.2129 334.515 52.1326 343.397 58.6655 349.797C65.0677 356.198 73.9524 360.247 83.7517 360.247H364.012H369.107V357.112H206.047V292.456H368.977V289.321H83.621C64.1531 289.321 48.3435 304.995 48.2129 324.457C48.2129 324.457 48.2129 324.588 48.2129 324.719ZM184.88 324.719C184.88 324.588 184.88 324.457 184.88 324.327C185.011 310.873 192.589 299.378 203.695 293.37V355.936C200.559 354.238 197.816 352.149 195.333 349.667C188.8 343.397 184.88 334.515 184.88 324.719Z" fill="#026299"/>
<path d="M363.881 292.325H206.047V356.981H363.881V292.325Z" fill="#EAEAEA"/>
<path d="M363.881 352.279H206.047" stroke="#989A9B" stroke-width="0.9745" stroke-miterlimit="10"/>
<path d="M363.881 347.185H206.047" stroke="#989A9B" stroke-width="0.9745" stroke-miterlimit="10"/>
<path d="M363.881 342.091H206.047" stroke="#989A9B" stroke-width="0.9745" stroke-miterlimit="10"/>
<path d="M363.881 336.997H206.047" stroke="#989A9B" stroke-width="0.9745" stroke-miterlimit="10"/>
<path d="M363.881 331.903H206.047" stroke="#989A9B" stroke-width="0.9745" stroke-miterlimit="10"/>
<path d="M363.881 326.808H206.047" stroke="#989A9B" stroke-width="0.9745" stroke-miterlimit="10"/>
<path d="M363.881 321.714H206.047" stroke="#989A9B" stroke-width="0.9745" stroke-miterlimit="10"/>
<path d="M363.881 316.62H206.047" stroke="#989A9B" stroke-width="0.9745" stroke-miterlimit="10"/>
<path d="M363.881 311.526H206.047" stroke="#989A9B" stroke-width="0.9745" stroke-miterlimit="10"/>
<path d="M363.881 306.432H206.047" stroke="#989A9B" stroke-width="0.9745" stroke-miterlimit="10"/>
<path d="M363.881 301.338H206.047" stroke="#989A9B" stroke-width="0.9745" stroke-miterlimit="10"/>
<path d="M363.881 296.244H206.047" stroke="#989A9B" stroke-width="0.9745" stroke-miterlimit="10"/>
<path d="M184.881 324.719C184.881 334.515 188.801 343.397 195.333 349.797C197.816 352.279 200.69 354.369 203.696 356.067V293.501C192.459 299.378 184.881 311.134 184.881 324.719Z" fill="#EAEAEA"/>
<path d="M92.8982 289.19H102.567C83.2295 289.451 67.5506 305.256 67.5506 324.588C67.5506 334.384 71.4704 343.266 78.0032 349.667C84.4054 355.936 93.0288 359.986 102.697 359.986H92.8982C83.0989 359.986 74.2142 356.067 67.812 349.536C61.4098 343.136 57.3594 334.254 57.3594 324.457C57.3594 305.126 73.2996 289.19 92.8982 289.19Z" fill="#F8735D"/>
<path d="M188.017 289.19H197.686C178.349 289.451 162.67 305.256 162.67 324.588C162.67 334.384 166.59 343.266 173.122 349.667C179.525 355.936 188.148 359.986 197.817 359.986H188.017C178.218 359.986 169.333 356.067 162.931 349.536C156.529 343.136 152.479 334.254 152.479 324.457C152.609 305.126 168.419 289.19 188.017 289.19Z" fill="#F8735D"/>
<path d="M118.768 237.596V286.839H239.234C239.756 286.578 240.279 286.317 240.802 286.055C240.932 286.055 241.063 285.925 241.063 285.925C241.455 285.664 241.847 285.533 242.239 285.272C242.892 284.88 243.545 284.488 244.199 283.965C244.46 283.704 244.721 283.574 244.983 283.312C245.244 283.051 245.505 282.921 245.767 282.659C246.289 282.267 246.812 281.745 247.204 281.353C247.857 280.7 248.38 280.047 248.902 279.394C249.164 279.133 249.425 278.741 249.686 278.349C250.209 277.696 250.601 277.043 250.993 276.39C251.123 276.128 251.385 275.867 251.515 275.606L251.646 275.475C251.777 275.214 251.907 274.953 252.169 274.692C252.561 274.038 252.822 273.385 253.083 272.732C253.214 272.34 253.345 272.079 253.475 271.687C253.606 271.426 253.737 271.034 253.737 270.773C253.867 270.512 253.998 270.12 253.998 269.859V269.728C254.129 269.467 254.129 269.075 254.259 268.814C254.39 268.422 254.39 268.161 254.521 267.769C254.521 267.508 254.651 267.116 254.651 266.854V266.724C254.782 266.332 254.782 265.809 254.782 265.418C254.782 265.026 254.913 264.764 254.913 264.373C254.913 264.242 254.913 264.111 254.913 263.981C254.913 263.85 254.913 263.85 254.913 263.72C254.913 263.328 254.913 262.805 254.913 262.413C254.913 261.499 254.913 260.454 254.782 259.54C254.782 259.279 254.782 258.887 254.651 258.625C254.651 258.364 254.521 258.103 254.521 257.842V257.711C254.39 257.189 254.259 256.536 254.129 256.013C253.998 255.36 253.737 254.707 253.606 254.184C253.475 253.923 253.475 253.662 253.345 253.27C253.214 253.009 253.083 252.748 252.953 252.356C252.822 252.094 252.691 251.833 252.561 251.572C252.43 251.311 252.299 251.05 252.169 250.788C251.515 249.351 250.731 248.045 249.686 246.739C249.425 246.347 249.033 245.955 248.772 245.564C248.51 245.302 248.249 245.041 247.988 244.649C247.726 244.388 247.596 244.127 247.334 243.996C246.681 243.343 245.897 242.559 245.244 242.037C244.983 241.906 244.852 241.645 244.591 241.514C243.284 240.469 241.977 239.555 240.54 238.771C240.018 238.51 239.495 238.249 238.972 237.988H118.768V237.596Z" fill="#EAEAEA"/>
<path d="M238.972 286.839H103.48V289.19H316.844C324.291 289.19 331.086 286.186 335.92 281.222C339.84 277.304 342.583 272.21 343.498 266.593C343.629 265.679 343.759 264.764 343.759 263.85C343.759 263.328 343.759 262.805 343.759 262.152C343.759 247.262 331.608 235.114 316.713 235.114H103.48V237.465H238.972V286.839ZM240.801 238.379C242.239 239.163 243.676 240.078 244.852 241.122C245.113 241.253 245.374 241.514 245.505 241.645C246.289 242.298 246.942 242.951 247.596 243.604C247.857 243.865 247.987 244.127 248.249 244.257C248.51 244.519 248.771 244.78 249.033 245.172C249.294 245.564 249.686 245.955 249.947 246.347C250.862 247.653 251.646 248.96 252.43 250.396C252.56 250.658 252.691 250.919 252.822 251.18C252.952 251.441 253.083 251.703 253.214 251.964C253.344 252.225 253.475 252.486 253.606 252.878C253.736 253.139 253.736 253.401 253.867 253.793C253.998 254.446 254.259 254.968 254.39 255.621C254.52 256.144 254.651 256.797 254.782 257.319V257.45C254.782 257.711 254.912 257.972 254.912 258.234C254.912 258.495 255.043 258.887 255.043 259.148C255.174 260.062 255.174 261.107 255.174 262.022C255.174 262.413 255.174 262.936 255.174 263.328C255.174 263.458 255.174 263.458 255.174 263.589C255.174 263.72 255.174 263.85 255.174 263.981C255.174 264.373 255.174 264.634 255.043 265.026C255.043 265.418 254.912 265.94 254.912 266.332V266.463C254.912 266.724 254.782 267.116 254.782 267.377C254.651 267.769 254.651 268.03 254.52 268.422C254.39 268.683 254.39 269.075 254.259 269.336V269.467C254.128 269.859 254.128 270.12 253.998 270.381C253.867 270.642 253.736 271.034 253.736 271.295C253.606 271.687 253.475 271.949 253.344 272.34C253.083 272.993 252.822 273.647 252.43 274.3C252.299 274.561 252.169 274.822 251.907 275.083C251.907 275.083 251.907 275.214 251.777 275.214C251.646 275.475 251.515 275.736 251.254 275.998C250.862 276.651 250.339 277.304 249.947 277.957C249.686 278.349 249.425 278.61 249.163 279.002C248.641 279.655 247.987 280.308 247.465 280.961C246.942 281.484 246.55 281.876 246.028 282.267C245.766 282.529 245.505 282.659 245.244 282.921C244.982 283.182 244.721 283.312 244.46 283.574C243.806 283.965 243.153 284.488 242.5 284.88C242.108 285.141 241.716 285.402 241.324 285.533C241.193 285.533 241.063 285.664 241.063 285.664V238.379H240.801Z" fill="#F8735D"/>
<path d="M309.918 235.245H302.471C317.235 235.375 329.125 247.392 329.125 262.283C329.125 269.728 326.119 276.52 321.155 281.353C316.32 286.186 309.657 289.19 302.34 289.321H309.787C317.235 289.321 324.029 286.317 328.863 281.353C333.698 276.52 336.833 269.728 336.833 262.283C336.964 247.262 324.813 235.245 309.918 235.245Z" fill="#026299"/>
<path d="M118.768 283.312H238.972" stroke="#989A9B" stroke-width="0.9745" stroke-miterlimit="10"/>
<path d="M118.768 279.394H238.972" stroke="#989A9B" stroke-width="0.9745" stroke-miterlimit="10"/>
<path d="M118.768 275.475H238.972" stroke="#989A9B" stroke-width="0.9745" stroke-miterlimit="10"/>
<path d="M118.768 271.687H238.972" stroke="#989A9B" stroke-width="0.9745" stroke-miterlimit="10"/>
<path d="M118.768 267.769H238.972" stroke="#989A9B" stroke-width="0.9745" stroke-miterlimit="10"/>
<path d="M118.768 263.85H238.972" stroke="#989A9B" stroke-width="0.9745" stroke-miterlimit="10"/>
<path d="M118.768 259.932H238.972" stroke="#989A9B" stroke-width="0.9745" stroke-miterlimit="10"/>
<path d="M118.768 256.144H238.972" stroke="#989A9B" stroke-width="0.9745" stroke-miterlimit="10"/>
<path d="M118.768 252.225H238.972" stroke="#989A9B" stroke-width="0.9745" stroke-miterlimit="10"/>
<path d="M118.768 248.307H238.972" stroke="#989A9B" stroke-width="0.9745" stroke-miterlimit="10"/>
<path d="M118.768 244.519H238.972" stroke="#989A9B" stroke-width="0.9745" stroke-miterlimit="10"/>
<path d="M118.768 240.6H238.972" stroke="#989A9B" stroke-width="0.9745" stroke-miterlimit="10"/>
<path d="M252.691 235.245H245.244C260.008 235.375 271.898 247.392 271.898 262.283C271.898 269.728 268.893 276.52 263.928 281.353C259.094 286.186 252.43 289.19 245.113 289.321H252.561C260.008 289.321 266.802 286.317 271.637 281.353C276.471 276.52 279.607 269.728 279.607 262.283C279.737 247.262 267.717 235.245 252.691 235.245Z" fill="#026299"/>
<path d="M305.086 400.347H286.402" stroke="#026299" stroke-width="0.9745" stroke-miterlimit="10" stroke-linecap="round"/>
<path d="M276.471 371.088H258.049" stroke="#026299" stroke-width="0.9745" stroke-miterlimit="10" stroke-linecap="round"/>
<path d="M353.559 385.979H335.92" stroke="#026299" stroke-width="0.9745" stroke-miterlimit="10" stroke-linecap="round"/>
<path d="M229.305 391.726H217.938" stroke="#026299" stroke-width="0.9745" stroke-miterlimit="10" stroke-linecap="round"/>
<path d="M91.0692 371.088H85.3203" stroke="#026299" stroke-width="0.9745" stroke-miterlimit="10" stroke-linecap="round"/>
<path d="M148.559 381.407H134.709" stroke="#026299" stroke-width="0.9745" stroke-miterlimit="10" stroke-linecap="round"/>
<path d="M403.079 391.726H397.33" stroke="#026299" stroke-width="0.9745" stroke-miterlimit="10" stroke-linecap="round"/>
<path d="M456.778 375.268H451.16" stroke="#026299" stroke-width="0.9745" stroke-miterlimit="10" stroke-linecap="round"/>
<path d="M31.7505 366.517H10.584" stroke="#026299" stroke-width="0.9745" stroke-miterlimit="10" stroke-linecap="round"/>
<path d="M195.202 371.088H177.955" stroke="#026299" stroke-width="0.9745" stroke-miterlimit="10" stroke-linecap="round"/>
<path d="M476.638 366.386H455.994" stroke="#026299" stroke-width="0.9745" stroke-miterlimit="10" stroke-linecap="round"/>
<path d="M187.754 326.025L231.002 306.563C233.615 305.387 234.529 302.252 233.223 299.901L223.685 289.321L223.554 289.19L218.459 283.574L179 301.338L179.784 308.914L180.176 312.049L181.352 323.282C182.136 325.894 185.141 327.2 187.754 326.025Z" fill="#F8735D"/>
<path d="M162.928 265.679L148.033 249.351C146.596 246.87 147.641 243.735 150.254 242.69L193.502 223.228C196.115 222.052 199.12 223.358 199.904 226.101L202.256 248.045L162.928 265.679Z" fill="#F8735D"/>
<path d="M157.05 270.642L170.638 300.815C173.121 306.432 179.654 308.914 185.272 306.301L217.936 291.672C223.555 289.19 226.037 282.659 223.424 277.043L209.836 246.87C207.353 241.253 200.82 238.771 195.202 241.384L162.538 256.013C157.05 258.625 154.568 265.156 157.05 270.642Z" fill="#F8735D"/>
<path d="M156.919 270.25L171.553 302.775C171.945 303.558 172.86 303.95 173.774 303.558L218.198 283.574L223.555 281.222C224.339 280.831 224.731 279.916 224.339 279.002L209.705 246.478C209.313 245.694 208.398 245.302 207.484 245.694L158.357 267.769L157.703 268.03C156.919 268.422 156.527 269.336 156.919 270.25Z" fill="#FDB565"/>
<path d="M1.04442 359.855C3.65757 365.602 10.4517 368.084 16.07 365.602L23.7788 362.076L30.3117 359.202L103.741 326.155L110.274 323.282L118.767 319.494H118.897C125.692 313.616 133.139 308.914 141.24 305.256C146.597 302.775 152.215 300.946 157.964 299.64L160.838 298.987L168.808 297.158L164.105 286.708L159.401 276.259L155.743 278.871L150.255 282.659C145.421 286.055 140.325 289.06 134.838 291.411C126.737 295.068 118.244 297.55 109.359 298.725L100.736 302.644L99.0374 303.428L94.2031 305.648L21.035 338.303L14.5021 341.307L6.79334 344.834C3.52691 346.271 1.17508 349.144 0.391134 352.54C-0.262152 354.761 -0.131495 357.373 1.04442 359.855Z" fill="#F8735D"/>
<path d="M94.4648 305.256L103.48 325.241L103.872 326.155L110.405 323.151L110.144 322.629L100.998 302.383L99.2992 303.166L94.4648 305.256Z" fill="#FDB565"/>
<path d="M14.502 341.307L20.3815 354.369L23.7786 362.076L30.3115 359.071L27.3064 352.279L21.0348 338.303L14.502 341.307Z" fill="#FDB565"/>
<path d="M210.357 258.495C209.311 256.274 208.397 254.184 207.352 251.964" stroke="white" stroke-miterlimit="10" stroke-linecap="round" stroke-linejoin="round"/>
<path d="M105.963 320.931C105.571 319.755 105.048 318.579 104.656 317.404" stroke="white" stroke-miterlimit="10" stroke-linecap="round" stroke-linejoin="round"/>
<path d="M26.3913 357.765C26.3913 355.675 25.6074 353.585 24.3008 352.018" stroke="white" stroke-miterlimit="10" stroke-linecap="round" stroke-linejoin="round"/>
<path d="M228.911 301.207C226.951 298.856 225.122 296.635 223.162 294.284" stroke="white" stroke-miterlimit="10" stroke-linecap="round" stroke-linejoin="round"/>
<path d="M196.638 235.767C196.507 232.893 196.377 230.02 196.246 227.016" stroke="white" stroke-miterlimit="10" stroke-linecap="round" stroke-linejoin="round"/>
<path d="M361.137 225.448H481.733L421.5 49.8964L361.137 225.448Z" stroke="#F7735D" stroke-width="1.949" stroke-miterlimit="10" stroke-linecap="round" stroke-linejoin="round"/>
<path d="M22.082 225.448H142.679L82.3151 49.8964L22.082 225.448Z" stroke="#F7735D" stroke-width="1.949" stroke-miterlimit="10" stroke-linecap="round" stroke-linejoin="round"/>
<path d="M435.743 52.5088C427.642 55.6437 419.019 56.9498 410.526 57.2111C406.345 57.3417 402.033 57.2111 397.852 56.8192C393.671 56.4274 389.621 55.9049 385.44 55.2518C381.389 54.5987 377.339 53.815 373.419 53.0313L361.791 50.6801C354.213 49.2433 346.896 48.0678 339.84 47.6759C338.926 47.6759 338.011 47.5453 337.358 47.5453H334.875H333.438H332.132H332.262H332.132L329.649 47.6759C326.252 47.9371 322.986 48.329 319.588 48.9821C312.925 50.1577 306.392 52.1169 299.99 54.7293L297.769 55.6436L296.462 56.1661L295.809 56.4274L295.417 56.558H295.286C295.286 56.558 295.286 56.558 295.417 56.558C293.849 57.2111 292.281 57.9948 290.713 58.7785C287.708 60.3459 284.572 62.044 281.698 63.8726C275.688 67.53 269.939 71.5792 264.059 76.0202C258.833 80.0694 252.169 80.8531 246.42 78.7632C244.591 78.1101 242.893 77.1958 241.325 76.0202C235.576 71.5792 229.696 67.53 223.817 63.8726C220.811 62.044 217.806 60.3459 214.801 58.7785L212.58 57.7336C211.796 57.3417 210.882 56.9498 209.967 56.558H209.836L209.575 56.4274L209.052 56.1661L207.876 55.6436L205.525 54.5987C199.122 52.1169 192.59 50.1577 185.926 48.8515C184.227 48.5902 182.529 48.329 180.961 48.0678C180.177 47.9371 179.262 47.9371 178.479 47.8065L176.127 47.5453C175.212 47.5453 174.167 47.4147 173.252 47.4147H173.122H173.252H173.122H172.86H172.207H170.9C169.202 47.4147 167.503 47.4147 165.674 47.5453C158.619 47.9371 151.302 49.1127 143.724 50.5495L132.095 52.9007L126.085 54.0762C124.125 54.4681 122.035 54.8599 119.944 55.1212C111.713 56.4274 103.351 57.2111 94.9885 56.9498C90.8074 56.8192 86.4958 56.4274 82.3147 55.6436C80.2242 55.2518 78.1337 54.7293 76.0432 54.2068C74.9979 53.9456 73.822 53.5537 72.9074 53.2925L70.1636 52.2476C68.4651 51.5945 67.2891 50.027 67.0278 48.329C66.8972 47.5453 67.0278 46.8922 67.2891 46.1085C68.0731 43.8879 70.4249 42.7124 72.6461 43.1042L75.5205 43.6267C76.4351 43.7573 77.2191 43.7573 78.1337 43.8879C79.8322 44.0186 81.6614 44.1492 83.4906 44.1492C87.149 44.1492 90.6768 43.8879 94.3352 43.3655C101.521 42.3205 108.708 40.3612 115.894 37.8795C117.723 37.2264 119.421 36.5733 121.251 35.9202L126.608 33.8303L137.713 29.5199C145.292 26.6463 153.131 23.9033 161.754 21.8134C163.845 21.2909 166.066 20.899 168.287 20.5072L169.986 20.2459L170.77 20.1153L171.162 19.9847H171.423H171.684H171.815C172.86 19.8541 173.644 19.7235 174.82 19.5928C175.996 19.4622 177.303 19.3316 178.348 19.201C179.524 19.0704 180.569 19.0704 181.745 18.9397C183.966 18.8091 186.187 18.8091 188.539 18.8091C197.554 18.8091 206.439 19.8541 215.193 21.6827L218.46 22.3358L220.028 22.7277L220.811 22.8583L221.203 22.9889H221.465L221.726 23.1195H221.857C222.902 23.3808 223.686 23.5114 224.862 23.9033L228.259 24.9482C232.571 26.2544 236.752 27.6912 240.802 29.2586C244.983 30.8261 249.033 32.6547 253.084 34.4834C257.134 32.6547 261.185 30.8261 265.366 29.2586C269.416 27.6912 273.728 26.2544 277.909 24.9482C279.999 24.2951 282.22 23.7726 284.311 23.1195H284.442H284.703H284.834L285.226 22.9889L286.009 22.8583L287.447 22.4665L290.844 21.6827C299.598 19.8541 308.613 18.8091 317.498 18.8091C321.94 18.8091 326.513 19.0704 330.956 19.4622L334.353 19.8541H334.483H334.875H335.006H335.398L336.182 19.9847L337.619 20.2459L341.016 20.899C342.192 21.1603 343.237 21.4215 344.283 21.6827C352.775 23.642 360.745 26.5156 368.324 29.3893L379.429 33.6997C383.088 35.1365 386.616 36.4427 390.143 37.7489C393.671 38.9244 397.199 40.1 400.857 41.0143C404.385 41.9287 408.043 42.7124 411.702 43.2349C418.888 44.2798 426.205 44.4104 433.26 43.1042H433.391C436.135 42.5818 438.748 44.2798 439.271 47.0228C439.271 49.2433 437.964 51.5945 435.743 52.5088Z" fill="#FFCE69"/>
<path d="M336.312 331.903V335.168C336.312 339.087 333.045 342.352 329.126 342.352H176.387C172.468 342.352 169.201 339.087 169.201 335.168V331.903C169.201 327.984 172.468 324.719 176.387 324.719H329.126C329.256 324.719 329.256 324.719 329.387 324.719C333.176 324.849 336.312 327.984 336.312 331.903Z" fill="#FCA76C"/>
<path d="M363.49 349.667V352.932C363.49 356.851 360.223 360.116 356.303 360.116H149.212C145.292 360.116 142.025 356.851 142.025 352.932V349.667C142.025 345.748 145.292 342.483 149.212 342.483H356.303C360.223 342.352 363.49 345.618 363.49 349.667Z" fill="#F7735D"/>
<path d="M271.898 320.016C270.984 321.714 269.938 323.282 268.632 324.719H236.751C211.273 295.068 236.751 175.552 236.751 175.552H268.632C268.762 175.552 291.889 284.227 271.898 320.016Z" fill="#FFCE69"/>
<path d="M266.933 114.814C266.933 138.195 263.797 158.571 259.224 168.76C257.264 173.07 255.043 175.552 252.691 175.552C244.852 175.552 238.58 148.383 238.58 114.814C238.58 81.245 244.982 54.0762 252.691 54.0762C256.349 54.0762 259.616 59.9541 262.098 69.6199C265.103 80.8531 266.933 96.9192 266.933 114.814Z" fill="#FFCE69"/>
<path d="M303.517 314.138V317.404C303.517 321.322 300.25 324.588 296.331 324.588H209.182C205.263 324.588 201.996 321.322 201.996 317.404V314.138C201.996 310.22 205.263 306.954 209.182 306.954H296.331C300.25 306.954 303.517 310.22 303.517 314.138Z" fill="#FDB565"/>
<path d="M143.855 222.836C145.553 222.836 146.598 224.795 145.553 226.232C132.487 242.69 109.1 253.531 82.4456 253.531C55.7915 253.531 32.5345 242.69 19.3381 226.232C18.2929 224.795 19.2075 222.836 20.906 222.836H143.855Z" fill="#FDB565"/>
<path d="M484.61 226.232C471.544 242.69 448.156 253.531 421.502 253.531C411.311 253.531 401.512 251.964 392.627 248.96H392.496C378.385 244.257 366.365 236.29 358.395 226.232C357.35 224.795 358.264 222.836 359.963 222.836H482.911C484.61 222.836 485.655 224.926 484.61 226.232Z" fill="#FDB565"/>
<path d="M282.613 49.6352C282.613 56.4274 280.391 62.6971 276.472 67.7912C270.984 74.9753 262.361 79.5469 252.692 79.5469C246.682 79.5469 241.063 77.7182 236.36 74.714C233.485 72.8853 231.003 70.5342 228.912 67.7912C225.123 62.8277 222.771 56.558 222.771 49.6352C222.771 33.1772 252.692 0 252.692 0C252.692 0 280.13 30.4342 282.351 47.4147C282.613 48.1984 282.613 48.8515 282.613 49.6352Z" fill="#FDB565"/>
<path d="M277.126 175.552C277.126 184.956 266.15 192.532 252.693 192.532C249.296 192.532 246.16 192.01 243.285 191.226C234.531 188.614 228.26 182.605 228.26 175.682C228.26 166.278 239.235 158.702 252.693 158.702C260.532 158.702 267.457 161.184 271.899 165.233C275.296 167.976 277.126 171.503 277.126 175.552Z" fill="#FDB565"/>
<path d="M267.9 56.6742C269.258 48.3437 263.603 40.4902 255.27 39.133C246.937 37.7758 239.081 43.4288 237.724 51.7594C236.366 60.0899 242.021 67.9433 250.354 69.3005C258.687 70.6577 266.543 65.0047 267.9 56.6742Z" stroke="#F8735D" stroke-width="0.9745" stroke-miterlimit="10"/>
<path d="M242.893 18.5479C245.114 15.413 247.204 12.2782 249.425 9.14332" stroke="white" stroke-miterlimit="10" stroke-linecap="round" stroke-linejoin="round"/>
<path d="M156.398 27.43C158.881 25.7319 161.886 24.5564 164.891 24.1645" stroke="white" stroke-miterlimit="10" stroke-linecap="round" stroke-linejoin="round"/>
<path d="M301.818 23.2502C304.954 22.3358 308.351 21.8134 311.618 21.8134" stroke="white" stroke-miterlimit="10" stroke-linecap="round" stroke-linejoin="round"/>
<path d="M84.2754 46.3697C86.1046 47.0228 88.1951 47.1534 90.155 46.6309" stroke="white" stroke-miterlimit="10" stroke-linecap="round" stroke-linejoin="round"/>
<path d="M394.193 41.798C395.631 42.9736 397.59 43.4961 399.42 43.1042" stroke="white" stroke-miterlimit="10" stroke-linecap="round" stroke-linejoin="round"/>
<path d="M244.591 85.5554C243.546 88.0371 243.154 90.7801 243.546 93.3925" stroke="white" stroke-miterlimit="10" stroke-linecap="round" stroke-linejoin="round"/>
<path d="M234.4 173.723C234.923 170.719 237.014 168.107 239.757 166.931" stroke="white" stroke-miterlimit="10" stroke-linecap="round" stroke-linejoin="round"/>
<path d="M236.882 201.545C236.62 203.765 236.49 205.855 236.229 208.076" stroke="white" stroke-miterlimit="10" stroke-linecap="round" stroke-linejoin="round"/>
<path d="M207.093 313.224C206.962 311.526 208.661 309.959 210.229 310.22" stroke="white" stroke-miterlimit="10" stroke-linecap="round" stroke-linejoin="round"/>
<path d="M174.297 330.205C174.428 328.898 175.603 327.723 177.041 327.723" stroke="white" stroke-miterlimit="10" stroke-linecap="round" stroke-linejoin="round"/>
<path d="M147.252 349.406C147.252 348.23 148.036 346.924 149.212 346.401" stroke="white" stroke-miterlimit="10" stroke-linecap="round" stroke-linejoin="round"/>
<path d="M231.917 275.345C231.395 283.704 232.309 292.194 234.792 300.162" stroke="white" stroke-miterlimit="10" stroke-linecap="round" stroke-linejoin="round"/>
<path d="M27.5684 227.93C30.0508 231.326 33.3173 234.2 36.9757 236.159" stroke="white" stroke-miterlimit="10" stroke-linecap="round" stroke-linejoin="round"/>
<path d="M368.193 231.195C371.46 233.677 374.596 236.028 377.862 238.51" stroke="white" stroke-miterlimit="10" stroke-linecap="round" stroke-linejoin="round"/>
<path d="M240.673 53.2925C240.019 58.7785 244.07 64.2645 249.427 65.4401" stroke="white" stroke-miterlimit="10" stroke-linecap="round" stroke-linejoin="round"/>
<path d="M336.182 227.277L338.534 236.159" stroke="#026299" stroke-width="0.9745" stroke-miterlimit="10" stroke-linecap="round"/>
<path d="M307.568 234.592L309.79 243.474" stroke="#026299" stroke-width="0.9745" stroke-miterlimit="10" stroke-linecap="round"/>
<path d="M320.112 204.419C319.459 201.806 316.846 200.239 314.232 200.892C311.619 201.545 310.051 204.157 310.705 206.77C311.227 208.598 312.665 209.905 314.494 210.296L320.765 234.853L324.816 233.808L318.544 209.251C319.851 208.207 320.635 206.247 320.112 204.419Z" fill="#026299"/>
<path d="M466.708 75.1059C466.708 80.8531 463.965 83.4655 462.005 84.7717C460.306 85.8166 459 87.2534 458.346 89.0821C455.211 97.7029 446.848 120.431 443.974 124.219C440.446 129.051 410.918 131.533 401.641 139.762C399.289 141.852 397.721 144.987 396.676 148.514C396.415 149.167 396.284 149.95 396.153 150.734C395.108 155.567 394.847 160.661 394.977 164.58C394.977 168.629 395.369 171.372 395.369 171.372L401.38 193.708L400.726 199.978C400.596 201.806 400.726 203.504 401.249 205.202L402.033 207.684L403.078 210.949C403.862 213.17 403.993 215.521 403.732 217.872L403.209 221.53L408.043 242.69L406.083 254.184L410.656 273.385C411.571 277.304 411.832 281.353 411.31 285.402L404.123 343.397H351.991L349.117 329.813L341.539 293.631L340.232 252.878L343.89 236.943L344.021 227.407L344.282 211.341C344.413 207.031 345.066 202.851 346.373 198.802L350.815 185.218C352.383 180.385 352.645 175.16 351.599 170.196L348.855 157.918L341.539 177.642C340.885 179.47 340.493 181.43 340.363 183.258L340.232 185.479C340.101 188.352 339.187 191.226 337.88 193.838L328.865 211.341C328.473 212.256 328.212 213.17 328.212 214.084L327.689 226.101C327.558 229.367 325.337 232.371 322.071 233.155C320.111 233.547 317.759 233.155 315.277 230.804C308.744 224.403 316.975 215.26 319.588 211.341C321.548 208.337 323.377 198.018 324.292 192.924C324.553 190.965 325.206 189.136 325.86 187.307L329.91 177.772C330.955 175.421 331.739 172.809 332.131 170.327C333.569 161.837 336.966 141.591 338.142 135.582C339.579 128.007 351.861 120.953 351.861 120.953L350.293 117.949L355.258 112.202L351.469 107.238L355.519 97.8335V97.4417L355.65 89.2127V88.2984L352.906 85.686L351.991 78.6326L357.348 74.4528L357.479 71.3179L367.147 63.0889H378.776L388.706 69.6199L389.359 73.7997L394.586 77.9795L394.194 90.5189L393.802 90.7801L392.495 91.8251C390.535 93.3925 389.751 96.1355 390.666 98.6173L390.796 99.0091L392.887 104.103C393.671 106.193 393.932 108.414 393.54 110.504L392.234 118.079L396.284 117.818L402.425 117.296L430.647 115.206C431.954 115.075 432.999 114.422 433.652 113.247L449.984 82.2899C450.115 82.1593 450.115 81.898 450.115 81.7674C450.115 81.5062 449.984 81.1143 449.723 80.8531C448.155 79.4163 448.155 77.0651 449.592 75.6283L450.376 74.8446L451.421 71.3179C451.683 70.273 452.728 69.3586 453.773 69.228C457.693 68.1831 466.708 67.7912 466.708 75.1059Z" fill="#EAEAEA"/>
<path d="M327.262 234.24L318.654 236.442L347.19 347.927L355.797 345.725L327.262 234.24Z" fill="#EAEAEA"/>
<path d="M323.9 239.033L351.861 346.793" stroke="#026299" stroke-width="0.9745" stroke-miterlimit="10" stroke-linecap="round"/>
<path d="M337.358 231.718C337.62 232.893 331.479 235.636 323.639 237.596C315.669 239.686 309.006 240.208 308.744 239.033C308.483 237.857 314.624 235.114 322.463 233.155C330.303 231.065 336.966 230.542 337.358 231.718Z" fill="#026299"/>
<path d="M432.477 347.185C432.477 348.23 432.085 349.275 431.301 350.059C430.648 350.712 429.603 351.234 428.557 351.234H327.037C324.816 351.234 322.986 349.406 322.986 347.316C322.986 346.271 323.378 345.226 324.162 344.442C324.946 343.789 325.861 343.266 327.037 343.266H428.557C430.779 343.266 432.477 344.964 432.477 347.185Z" fill="#026299"/>
<path d="M440.316 356.59V369.782C440.316 372.786 437.833 375.268 434.828 375.268H320.503C317.498 375.268 315.016 372.786 315.016 369.782V356.59C315.016 353.585 317.498 351.104 320.503 351.104H434.828C437.964 351.234 440.316 353.585 440.316 356.59Z" fill="#026299"/>
<path d="M357.871 87.384C357.871 87.384 362.575 86.0778 362.836 80.9837C362.836 80.9837 372.505 80.3306 372.505 70.5342" stroke="#026299" stroke-width="0.9745" stroke-miterlimit="10" stroke-linecap="round"/>
<path d="M387.138 87.384C387.138 87.384 382.434 86.0778 382.173 80.9837C382.173 80.9837 372.504 80.3306 372.504 70.5342" stroke="#026299" stroke-width="0.9745" stroke-miterlimit="10" stroke-linecap="round"/>
<path d="M359.178 95.3518C359.178 95.3518 361.53 104.756 368.193 109.85C370.676 111.679 374.073 111.81 376.686 110.112C379.952 107.891 384.264 103.45 385.962 95.7437" stroke="#026299" stroke-width="0.9745" stroke-miterlimit="10" stroke-linecap="round"/>
<path d="M381.129 105.671L383.481 117.557L392.235 117.426" stroke="#026299" stroke-width="0.9745" stroke-miterlimit="10" stroke-linecap="round"/>
<path d="M364.795 106.454L364.142 117.557L357.479 120.039" stroke="#026299" stroke-width="0.9745" stroke-miterlimit="10" stroke-linecap="round"/>
<path d="M375.117 70.273C375.248 72.3629 376.293 74.3222 377.861 75.6283C379.429 76.9345 381.519 77.7182 383.61 77.5876" stroke="#026299" stroke-width="0.9745" stroke-miterlimit="10" stroke-linecap="round"/>
<path d="M385.701 81.1143C386.093 83.5961 388.706 85.4248 391.189 85.1635" stroke="#026299" stroke-width="0.9745" stroke-miterlimit="10" stroke-linecap="round"/>
<path d="M362.053 77.7182C363.882 78.2407 366.103 77.7182 367.54 76.4121C368.978 75.1059 369.631 73.016 369.37 71.1873" stroke="#026299" stroke-width="0.9745" stroke-miterlimit="10" stroke-linecap="round"/>
<path d="M357.219 84.1186C358.525 84.2492 359.832 83.0736 359.963 81.7674" stroke="#026299" stroke-width="0.9745" stroke-miterlimit="10" stroke-linecap="round"/>
<path d="M379.691 70.4036C380.083 72.8853 382.827 74.714 385.179 74.1915" stroke="#026299" stroke-width="0.9745" stroke-miterlimit="10" stroke-linecap="round"/>
<path d="M361.139 74.3222C362.315 74.714 363.621 74.5834 364.666 73.7997C365.581 73.016 366.104 71.7098 365.973 70.5342" stroke="#026299" stroke-width="0.9745" stroke-miterlimit="10" stroke-linecap="round"/>
<path d="M387.793 79.8081C388.708 81.1143 390.275 81.6368 391.843 81.2449" stroke="#026299" stroke-width="0.9745" stroke-miterlimit="10" stroke-linecap="round"/>
<path d="M355.52 81.3756C356.565 81.1143 357.479 80.3306 358.002 79.2857" stroke="#026299" stroke-width="0.9745" stroke-miterlimit="10" stroke-linecap="round"/>
<path d="M381.781 67.53C382.565 68.9668 384.133 70.1423 385.832 70.273" stroke="#026299" stroke-width="0.9745" stroke-miterlimit="10" stroke-linecap="round"/>
<path d="M360.615 70.0117C362.183 70.273 364.012 69.4893 364.796 68.0524" stroke="#026299" stroke-width="0.9745" stroke-miterlimit="10" stroke-linecap="round"/>
<path d="M388.969 77.457C389.883 78.3713 391.19 78.6326 392.366 78.1101" stroke="#026299" stroke-width="0.9745" stroke-miterlimit="10" stroke-linecap="round"/>
<path d="M354.605 107.499C356.565 105.54 357.872 102.928 358.003 100.185" stroke="#026299" stroke-width="0.9745" stroke-miterlimit="10" stroke-linecap="round"/>
<path d="M356.957 110.373C358.525 108.414 359.44 105.932 359.57 103.32" stroke="#026299" stroke-width="0.9745" stroke-miterlimit="10" stroke-linecap="round"/>
<path d="M357.871 115.075C359.7 113.377 360.876 110.895 361.138 108.414" stroke="#026299" stroke-width="0.9745" stroke-miterlimit="10" stroke-linecap="round"/>
<path d="M352.254 123.174C354.606 122.782 356.174 120.169 355.52 117.949" stroke="#026299" stroke-width="0.9745" stroke-miterlimit="10" stroke-linecap="round"/>
<path d="M385.701 115.336C389.098 113.116 390.927 108.806 390.405 104.756" stroke="#026299" stroke-width="0.9745" stroke-miterlimit="10" stroke-linecap="round"/>
<path d="M384.918 110.504C386.747 107.891 387.662 104.626 387.4 101.491" stroke="#026299" stroke-width="0.9745" stroke-miterlimit="10" stroke-linecap="round"/>
<path d="M384.133 107.107C384.394 106.193 384.655 105.279 385.047 104.364" stroke="#026299" stroke-width="0.9745" stroke-miterlimit="10" stroke-linecap="round"/>
<path d="M370.023 123.174C370.546 124.088 371.591 124.741 372.767 124.741C373.812 124.872 374.988 124.349 375.642 123.565" stroke="#026299" stroke-width="0.9745" stroke-miterlimit="10" stroke-linecap="round"/>
<path d="M400.205 134.929C400.728 132.709 402.426 130.75 404.647 130.096" stroke="#026299" stroke-width="0.9745" stroke-miterlimit="10" stroke-linecap="round"/>
<path d="M431.693 116.12C431.955 115.336 432.216 114.553 432.477 113.769" stroke="#026299" stroke-width="0.9745" stroke-miterlimit="10" stroke-linecap="round"/>
<path d="M337.488 178.425C338.272 177.903 339.187 177.25 339.971 176.727" stroke="#026299" stroke-width="0.9745" stroke-miterlimit="10" stroke-linecap="round"/>
<path d="M368.848 100.707C371.199 100.707 373.682 100.707 376.034 100.577" stroke="#026299" stroke-width="0.9745" stroke-miterlimit="10" stroke-linecap="round"/>
<path d="M370.807 95.8743C371.983 95.8743 373.028 95.8743 374.204 95.8743" stroke="#026299" stroke-width="0.9745" stroke-miterlimit="10" stroke-linecap="round"/>
<path d="M457.433 145.901C457.433 151.779 450.508 156.612 442.015 156.612C438.749 156.612 435.744 155.959 433.261 154.783C429.211 152.824 426.598 149.689 426.598 146.032H457.433V145.901Z" fill="#026299"/>
<path d="M428.166 147.469H455.735L441.885 108.414L428.166 147.469Z" stroke="#026299" stroke-width="0.9745" stroke-miterlimit="10" stroke-linecap="round" stroke-linejoin="round"/>
<path d="M484.87 135.191C484.87 141.068 477.945 145.901 469.453 145.901C460.96 145.901 454.035 141.199 454.035 135.191H484.87Z" fill="#026299"/>
<path d="M455.734 136.758H483.303L469.453 97.8335L455.734 136.758Z" stroke="#026299" stroke-width="0.9745" stroke-miterlimit="10" stroke-linecap="round" stroke-linejoin="round"/>
<path d="M441.885 108.414L469.453 97.8335" stroke="#026299" stroke-width="0.9745" stroke-miterlimit="10"/>
<path d="M455.211 103.32V81.3756" stroke="#026299" stroke-width="0.9745" stroke-miterlimit="10" stroke-linecap="round"/>
<path d="M453.382 77.8489C455.472 77.5876 457.824 79.4163 458.086 81.5062C455.472 81.898 452.729 81.6368 450.246 80.7225" stroke="#026299" stroke-width="0.9745" stroke-miterlimit="10" stroke-linecap="round"/>
<path d="M451.031 74.9753C451.293 75.8896 452.207 76.6733 453.122 76.6733" stroke="#026299" stroke-width="0.9745" stroke-miterlimit="10" stroke-linecap="round"/>
<path d="M454.035 71.971C454.296 73.4078 454.427 74.8446 454.688 76.1508" stroke="#026299" stroke-width="0.9745" stroke-miterlimit="10" stroke-linecap="round"/>
<path d="M456.779 72.1016C456.91 73.9303 456.91 75.759 457.041 77.5876" stroke="#026299" stroke-width="0.9745" stroke-miterlimit="10" stroke-linecap="round"/>
<path d="M459.653 72.7547C460.307 74.714 460.045 76.9345 459 78.7632" stroke="#026299" stroke-width="0.9745" stroke-miterlimit="10" stroke-linecap="round"/>
<path d="M463.051 73.2772C464.227 75.3671 463.835 78.2407 462.006 79.8081" stroke="#026299" stroke-width="0.9745" stroke-miterlimit="10" stroke-linecap="round"/>
<path d="M354.998 77.5876C356.827 77.5876 358.395 75.8896 358.526 74.0609" stroke="white" stroke-miterlimit="10" stroke-linecap="round" stroke-linejoin="round"/>
<path d="M367.148 67.2687C368.063 68.4443 370.023 68.4443 371.068 67.2687" stroke="white" stroke-miterlimit="10" stroke-linecap="round" stroke-linejoin="round"/>
<path d="M374.857 66.7462C376.033 68.7055 379.3 68.5749 380.345 66.6156" stroke="white" stroke-miterlimit="10" stroke-linecap="round" stroke-linejoin="round"/>
<path d="M364.273 99.9235C365.449 103.45 368.454 106.454 372.113 107.499" stroke="white" stroke-miterlimit="10" stroke-linecap="round" stroke-linejoin="round"/>
<path d="M343.368 134.537C342.845 131.925 344.413 129.182 346.896 128.137" stroke="white" stroke-miterlimit="10" stroke-linecap="round" stroke-linejoin="round"/>
<path d="M370.152 119.124C370.544 120.561 372.112 121.737 373.549 121.476" stroke="white" stroke-miterlimit="10" stroke-linecap="round" stroke-linejoin="round"/>
<path d="M403.732 134.929C404.778 133.362 406.476 132.186 408.305 131.664" stroke="white" stroke-miterlimit="10" stroke-linecap="round" stroke-linejoin="round"/>
<path d="M402.426 120.169C404.124 118.863 406.215 118.079 408.305 118.21" stroke="white" stroke-miterlimit="10" stroke-linecap="round" stroke-linejoin="round"/>
<path d="M447.111 92.7394C448.157 90.5189 449.333 88.429 450.378 86.2085" stroke="white" stroke-miterlimit="10" stroke-linecap="round" stroke-linejoin="round"/>
<path d="M338.404 155.436C338.927 153.477 339.319 151.518 339.842 149.559" stroke="white" stroke-miterlimit="10" stroke-linecap="round" stroke-linejoin="round"/>
<path d="M326.645 193.969C327.167 192.402 327.69 190.965 328.343 189.397" stroke="white" stroke-miterlimit="10" stroke-linecap="round" stroke-linejoin="round"/>
<path d="M316.192 221.138C315.93 223.358 316.714 225.84 318.543 227.277" stroke="white" stroke-miterlimit="10" stroke-linecap="round" stroke-linejoin="round"/>
<path d="M354.998 158.702C357.481 162.49 359.963 166.278 362.576 170.066" stroke="white" stroke-miterlimit="10" stroke-linecap="round" stroke-linejoin="round"/>
<path d="M355.127 167.192C356.434 169.021 357.74 170.98 359.047 172.809" stroke="white" stroke-miterlimit="10" stroke-linecap="round" stroke-linejoin="round"/>
<path d="M366.363 181.822C367.931 186.132 371.982 189.528 376.555 190.05" stroke="white" stroke-miterlimit="10" stroke-linecap="round" stroke-linejoin="round"/>
<path d="M355.912 186.524C361.922 193.838 367.149 201.937 371.33 210.427" stroke="white" stroke-miterlimit="10" stroke-linecap="round" stroke-linejoin="round"/>
<path d="M354.344 194.361C359.309 199.978 363.49 206.378 366.495 213.301" stroke="white" stroke-miterlimit="10" stroke-linecap="round" stroke-linejoin="round"/>
<path d="M350.164 203.243C349.118 211.994 350.164 221.138 353.169 229.367" stroke="white" stroke-miterlimit="10" stroke-linecap="round" stroke-linejoin="round"/>
<path d="M355.65 214.868C356.173 216.827 356.696 218.787 357.349 220.746" stroke="white" stroke-miterlimit="10" stroke-linecap="round" stroke-linejoin="round"/>
<path d="M362.053 141.068C364.666 144.856 370.153 146.293 374.465 144.464" stroke="white" stroke-miterlimit="10" stroke-linecap="round" stroke-linejoin="round"/>
<path d="M366.104 135.844C368.063 137.019 370.023 138.195 371.983 139.501" stroke="white" stroke-miterlimit="10" stroke-linecap="round" stroke-linejoin="round"/>
<path d="M363.359 263.85C362.444 270.773 361.399 277.826 360.484 284.749" stroke="white" stroke-miterlimit="10" stroke-linecap="round" stroke-linejoin="round"/>
<path d="M361.791 309.175C367.801 297.942 373.681 286.578 379.691 275.345" stroke="white" stroke-miterlimit="10" stroke-linecap="round" stroke-linejoin="round"/>
<path d="M328.865 252.486C329.911 254.446 331.086 256.405 332.132 258.364" stroke="white" stroke-miterlimit="10" stroke-linecap="round" stroke-linejoin="round"/>
<path d="M354.605 328.898C355.651 326.025 356.565 323.021 357.611 320.147" stroke="white" stroke-miterlimit="10" stroke-linecap="round" stroke-linejoin="round"/>
<path d="M425.553 126.439C427.382 126.831 429.603 125.917 430.387 124.219" stroke="white" stroke-miterlimit="10" stroke-linecap="round" stroke-linejoin="round"/>
<path d="M431.432 149.95C432.738 151.126 434.045 152.302 435.351 153.477" stroke="white" stroke-miterlimit="10" stroke-linecap="round" stroke-linejoin="round"/>
<path d="M460.438 139.632C462.267 140.938 464.227 141.852 466.448 142.375" stroke="white" stroke-miterlimit="10" stroke-linecap="round" stroke-linejoin="round"/>
<path d="M327.689 348.099C327.82 347.185 328.473 346.401 329.388 346.271" stroke="white" stroke-miterlimit="10" stroke-linecap="round" stroke-linejoin="round"/>
<path d="M319.72 362.859C318.021 359.724 319.85 355.153 323.378 354.108" stroke="white" stroke-miterlimit="10" stroke-linecap="round" stroke-linejoin="round"/>
<path d="M312.664 205.986C312.402 205.072 312.925 204.157 313.709 203.765" stroke="white" stroke-miterlimit="10" stroke-linecap="round" stroke-linejoin="round"/>
</g>
<defs>
<clipPath id="clip0">
<rect width="485" height="401" fill="white"/>
</clipPath>
</defs>
</svg>
