<svg width="196" height="106" xmlns="http://www.w3.org/2000/svg">

 <g>
  <title>background</title>
  <rect fill="none" id="canvas_background" height="602" width="802" y="-1" x="-1"/>
 </g>
 <g>
  <title>Layer 1</title>
  <path id="svg_1" stroke-width="3" stroke="#262258" fill="white" d="m27.366,97.3993l-25.63394,-44.3993l25.63394,-44.39934l51.268,0l25.634,44.39934l-25.634,44.3994l-51.268,-0.0001z"/>
  <line id="svg_2" stroke-width="3" stroke="#262258" y2="53.5" x2="103" y1="53.5" x1="190"/>
  <circle id="svg_3" fill="#262258" transform="rotate(-180 191.5,53.5) " r="4.5" cy="53.5" cx="191.5"/>
  <g stroke="null" id="svg_9">
   <path stroke="null" id="svg_7" d="m69.95293,28.82511l-30.9065,0c-1.85736,0 -3.26896,1.54158 -3.26896,3.39147l0,42.54757c0,1.84989 1.48589,3.39147 3.26896,3.39147c27.56325,0 26.00307,0.07708 26.30024,-0.07708c0,0 0.14859,-0.15416 0.22288,-0.23124c0,0 0,0 0,0c7.87521,-10.17442 7.65233,-9.78902 7.65233,-10.17442l0,-35.45631c0,-1.84989 -1.4116,-3.39147 -3.26896,-3.39147zm-5.72067,47.78893l-25.26012,0c-0.96583,0 -1.78307,-0.84787 -1.78307,-1.84989l0,-42.54757c0,-1.00203 0.81724,-1.84989 1.78307,-1.84989l30.9808,0c0.96583,0 1.78307,0.84787 1.78307,1.84989l0,34.68552l-4.53196,0c-1.63448,0 -2.97178,1.38742 -2.97178,3.08316l0,6.62879zm6.6865,-8.17037l-5.20061,6.70587l0,-5.16429c0,-0.84787 0.66865,-1.54158 1.48589,-1.54158l3.71472,0z" fill="#070241"/>
   <path stroke="null" id="svg_8" d="m42.24109,44.93461c1.26301,1.4645 3.12037,2.38945 5.20061,2.38945c2.08025,0 3.93761,-0.92495 5.27491,-2.46653c0,0 0.07429,0 0.07429,-0.07708c1.11442,-1.31034 1.78307,-3.00608 1.78307,-4.77889c0,-4.0081 -3.19466,-7.3225 -7.05798,-7.3225c-3.86331,0 -7.05798,3.31439 -7.05798,7.3225c0,1.84989 0.66865,3.54563 1.70877,4.77889c0,0.07708 0,0.07708 0.07429,0.15416zm1.4116,-0.69371c0.89153,-1.23326 2.22883,-1.92697 3.71472,-1.92697c1.48589,0 2.82319,0.69371 3.71472,1.92697c-0.96583,0.92495 -2.30313,1.54158 -3.71472,1.54158c-1.4116,0 -2.6746,-0.61663 -3.71472,-1.54158zm3.78902,-3.85395c-0.59436,0 -1.11442,-0.53955 -1.11442,-1.15618c0,-0.61663 0.52006,-1.15618 1.11442,-1.15618c0.59436,0 1.11442,0.53955 1.11442,1.15618c0,0.61663 -0.52006,1.15618 -1.11442,1.15618zm0,-6.16631c3.04607,0 5.57209,2.62068 5.57209,5.78092c0,1.15618 -0.29718,2.15821 -0.89153,3.08316c-0.74294,-0.92495 -1.78307,-1.61866 -2.89748,-1.92697c0.44577,-0.46247 0.74294,-1.15618 0.74294,-1.92697c0,-1.4645 -1.18871,-2.69776 -2.60031,-2.69776c-1.4116,0 -2.60031,1.23326 -2.60031,2.69776c0,0.77079 0.29718,1.4645 0.74294,1.92697c-1.11442,0.38539 -2.08025,1.00203 -2.89748,1.92697c-0.52006,-0.92495 -0.89153,-1.92697 -0.89153,-3.08316c0.14859,-3.23731 2.60031,-5.78092 5.72067,-5.78092zm9.80687,4.62474l11.51564,0c0.44577,0 0.74294,-0.30832 0.74294,-0.77079s-0.29718,-0.77079 -0.74294,-0.77079l-11.51564,0c-0.44577,0 -0.74294,0.30832 -0.74294,0.77079s0.37147,0.77079 0.74294,0.77079zm0,5.54968l11.51564,0c0.44577,0 0.74294,-0.30832 0.74294,-0.77079s-0.29718,-0.77079 -0.74294,-0.77079l-11.51564,0c-0.44577,0 -0.74294,0.30832 -0.74294,0.77079s0.37147,0.77079 0.74294,0.77079zm-17.01343,6.39755l28.52908,0c0.44577,0 0.74294,-0.30832 0.74294,-0.77079c0,-0.46247 -0.29718,-0.77079 -0.74294,-0.77079l-28.52908,0c-0.44577,0 -0.74294,0.30832 -0.74294,0.77079c0,0.46247 0.29718,0.77079 0.74294,0.77079zm0,5.70384l28.52908,0c0.44577,0 0.74294,-0.30832 0.74294,-0.77079c0,-0.46247 -0.29718,-0.77079 -0.74294,-0.77079l-28.52908,0c-0.44577,0 -0.74294,0.30832 -0.74294,0.77079c0,0.38539 0.29718,0.77079 0.74294,0.77079zm29.27202,4.85597c0,-0.46247 -0.29718,-0.77079 -0.74294,-0.77079l-28.52908,0c-0.44577,0 -0.74294,0.30832 -0.74294,0.77079s0.29718,0.77079 0.74294,0.77079l28.52908,0c0.44577,0 0.74294,-0.38539 0.74294,-0.77079zm-8.84104,4.85597l-20.43098,0c-0.44577,0 -0.74294,0.30832 -0.74294,0.77079c0,0.46247 0.29718,0.77079 0.74294,0.77079l20.43098,0c0.44577,0 0.74294,-0.30832 0.74294,-0.77079c0,-0.46247 -0.29718,-0.77079 -0.74294,-0.77079zm0,5.62676l-20.43098,0c-0.44577,0 -0.74294,0.30832 -0.74294,0.77079c0,0.46247 0.29718,0.77079 0.74294,0.77079l20.43098,0c0.44577,0 0.74294,-0.30832 0.74294,-0.77079c0,-0.46247 -0.29718,-0.77079 -0.74294,-0.77079z" fill="#070241"/>
  </g>
 </g>
</svg>