<?xml version="1.0" encoding="UTF-8"?>
<!DOCTYPE svg PUBLIC "-//W3C//DTD SVG 1.1//EN" "http://www.w3.org/Graphics/SVG/1.1/DTD/svg11.dtd">
<!-- Creator: CorelDRAW 2017 -->
<svg xmlns="http://www.w3.org/2000/svg" xml:space="preserve" width="3.03309in" height="1.80671in" version="1.1" style="shape-rendering:geometricPrecision; text-rendering:geometricPrecision; image-rendering:optimizeQuality; fill-rule:evenodd; clip-rule:evenodd"
viewBox="0 0 1551.99 924.47"
 xmlns:xlink="http://www.w3.org/1999/xlink">
 <defs>
  <style type="text/css">
   <![CDATA[
    .fil0 {fill:#070241}
   ]]>
  </style>
 </defs>
 <g id="Layer_x0020_1">
  <metadata id="CorelCorpID_0Corel-Layer"/>
  <path class="fil0" d="M0 0l262.98 0 0 273.76 -262.98 0 0 -273.76zm0 325.35l262.98 0 0 273.76 -262.98 0 0 -273.76zm0 325.35l262.98 0 0 273.76 -262.98 0 0 -273.76zm105.41 -418.18l0 -146.08 -42.81 0 0 -45.22 137.79 0 0 45.22 -42.81 0 0 146.08 -52.17 0zm202.18 -23.55l0 -131.9 43.92 0 0 31.08c4.55,-11.37 10.7,-19.84 18.55,-25.51 7.85,-5.66 17.35,-8.51 28.49,-8.51 1.83,0 3.7,0.04 5.58,0.18 1.87,0.13 3.74,0.36 5.66,0.63l-4.55 42.27c-2.76,-0.94 -5.53,-1.6 -8.2,-2.05 -2.72,-0.4 -5.31,-0.63 -7.85,-0.63 -11.28,0 -19.98,3.48 -26.13,10.39 -6.11,6.91 -9.19,16.73 -9.19,29.43l0 54.63 -46.28 0zm219.83 -66.08c0,-10.3 -2.72,-18.42 -8.21,-24.44 -5.49,-6.02 -12.98,-9 -22.47,-9 -9.5,0 -16.95,2.99 -22.39,8.96 -5.44,5.93 -8.16,14.13 -8.16,24.48 0,10.25 2.72,18.37 8.21,24.3 5.49,5.93 12.93,8.87 22.34,8.87 9.49,0 16.99,-2.94 22.47,-8.87 5.49,-5.93 8.21,-14.05 8.21,-24.3zm40.98 -65.82l0 131.9 -42.81 0 0 -21.4c-6.11,9.14 -12.93,15.83 -20.56,20.11 -7.62,4.24 -16.59,6.38 -26.84,6.38 -17.61,0 -31.66,-6.42 -42.23,-19.26 -10.53,-12.84 -15.79,-30.1 -15.79,-51.68 0,-21.54 5.53,-38.62 16.54,-51.33 11.01,-12.66 25.82,-18.99 44.46,-18.99 9.95,0 18.51,2.14 25.69,6.37 7.18,4.24 13.33,10.75 18.46,19.58l0 -21.67 43.08 0zm129.8 43.34c-4.54,-4.01 -8.87,-6.91 -13.06,-8.74 -4.19,-1.83 -8.56,-2.76 -13.2,-2.76 -9.23,0 -16.59,3.03 -22.03,9.14 -5.44,6.11 -8.16,14.36 -8.16,24.84 0,10.08 2.85,18.14 8.52,24.17 5.66,6.02 13.25,9 22.83,9 4.73,0 9.14,-0.94 13.29,-2.81 4.15,-1.88 8.07,-4.77 11.82,-8.7l0 40.35c-5.57,3.12 -11.15,5.44 -16.72,6.91 -5.57,1.47 -11.33,2.23 -17.26,2.23 -20.29,0 -36.74,-6.51 -49.32,-19.53 -12.61,-13.02 -18.9,-30.19 -18.9,-51.41 0,-20.65 6.42,-37.54 19.26,-50.65 12.89,-13.11 29.34,-19.67 49.5,-19.67 6.69,0 12.75,0.67 18.15,1.96 5.39,1.3 10.53,3.39 15.29,6.29l0 39.37zm28.9 88.56l0 -202.53 45.75 0 0 128.24 47.94 -57.61 57.75 0 -59.31 63.45 64.66 68.45 -61.27 0 -49.77 -58.64 0 58.64 -45.75 0zm170.2 -173.1c0,-7.05 2.5,-13.02 7.54,-17.97 4.99,-4.95 11.01,-7.44 18.1,-7.44 7.31,0 13.42,2.45 18.33,7.31 4.95,4.86 7.4,10.88 7.4,18.1 0,7.22 -2.5,13.33 -7.53,18.37 -4.99,5.04 -11.06,7.58 -18.2,7.58 -7,0 -13.02,-2.59 -18.06,-7.72 -5.04,-5.13 -7.58,-11.19 -7.58,-18.24zm2.41 173.1l0 -131.9 46.56 0 0 131.9 -46.56 0zm82.14 0l0 -131.9 42.63 0 0 26.76c6.15,-10.75 13.29,-18.6 21.4,-23.59 8.07,-4.95 17.79,-7.45 29.08,-7.45 8.56,0 16.14,1.38 22.79,4.11 6.64,2.76 12.08,6.69 16.23,11.86 3.52,4.42 5.98,9.85 7.45,16.18 1.47,6.38 2.23,15.88 2.23,28.5l0 75.54 -46.56 0 0 -70.68c0,-10.57 -1.74,-18.19 -5.17,-23.01 -3.43,-4.77 -8.92,-7.18 -16.5,-7.18 -9.68,0 -16.72,3.57 -21.18,10.71 -4.42,7.13 -6.65,18.73 -6.65,34.78l0 55.38 -45.75 0zm275.22 -66.35c0,-10.17 -2.72,-18.15 -8.16,-23.95 -5.44,-5.8 -12.93,-8.69 -22.52,-8.69 -9.68,0 -17.26,2.9 -22.79,8.69 -5.53,5.8 -8.29,13.78 -8.29,23.95 0,10.08 2.76,18.05 8.29,23.9 5.53,5.84 13.11,8.73 22.79,8.73 9.49,0 16.99,-2.9 22.47,-8.73 5.44,-5.85 8.21,-13.82 8.21,-23.9zm40.98 -65.55l0 131.68c0,19.98 -6.07,34.69 -18.24,44.23 -12.13,9.54 -30.95,14.32 -56.36,14.32 -20.6,0 -36.7,-3.84 -48.38,-11.46 -11.68,-7.62 -17.84,-18.46 -18.55,-32.41l48.16 0c0.71,4.1 2.99,7.31 6.87,9.63 3.88,2.31 9,3.47 15.34,3.47 10.03,0 16.94,-2.41 20.69,-7.22 3.79,-4.86 5.71,-14.99 5.71,-30.5l0 -12.04c-4.86,8.29 -11.1,14.49 -18.68,18.55 -7.58,4.06 -16.59,6.06 -27.02,6.06 -17.43,0 -31.39,-6.28 -41.96,-18.9 -10.53,-12.57 -15.78,-29.39 -15.78,-50.39 0,-21.18 5.53,-38.04 16.54,-50.53 11.01,-12.53 25.82,-18.77 44.46,-18.77 9.85,0 18.33,2.05 25.55,6.15 7.18,4.11 13.38,10.53 18.6,19.26l0 -21.13 43.08 0zm-1093.25 296.86l0 56.99c-7.14,-7.94 -14.27,-13.73 -21.36,-17.43 -7.09,-3.7 -14.71,-5.58 -22.79,-5.58 -14.98,0 -27.11,5.13 -36.38,15.34 -9.28,10.21 -13.91,23.55 -13.91,40 0,15.34 4.73,28.05 14.18,38.13 9.45,10.12 21.49,15.16 36.11,15.16 8.07,0 15.7,-1.83 22.79,-5.53 7.09,-3.66 14.23,-9.49 21.36,-17.48l0 56.99c-8.25,4.01 -16.5,7.05 -24.66,9.06 -8.21,2 -16.46,2.99 -24.84,2.99 -10.44,0 -20.07,-1.25 -28.9,-3.71 -8.83,-2.49 -16.94,-6.29 -24.34,-11.33 -14.27,-9.59 -25.15,-21.62 -32.64,-36.16 -7.49,-14.58 -11.24,-30.95 -11.24,-49.14 0,-14.63 2.37,-27.92 7.14,-39.91 4.73,-11.99 11.91,-22.83 21.45,-32.59 9.06,-9.32 19.27,-16.28 30.63,-20.91 11.37,-4.6 23.99,-6.91 37.91,-6.91 8.38,0 16.63,0.98 24.84,2.99 8.16,2.01 16.41,5.03 24.66,9.05zm203.24 92.75c0,-9.81 -2.5,-17.57 -7.45,-23.23 -4.95,-5.66 -11.68,-8.52 -20.11,-8.52 -8.51,0 -15.25,2.86 -20.2,8.52 -4.91,5.66 -7.36,13.42 -7.36,23.23 0,9.85 2.45,17.61 7.31,23.23 4.86,5.62 11.64,8.43 20.24,8.43 8.52,0 15.25,-2.81 20.2,-8.43 4.91,-5.62 7.36,-13.38 7.36,-23.23zm46.28 0c0,9.5 -1.87,18.55 -5.57,27.06 -3.7,8.56 -9.06,16.23 -16.14,23.01 -7.13,6.78 -15.12,11.95 -23.94,15.43 -8.87,3.47 -18.24,5.21 -28.18,5.21 -10.12,0 -19.58,-1.74 -28.4,-5.21 -8.87,-3.48 -16.76,-8.65 -23.72,-15.43 -7,-6.64 -12.3,-14.22 -15.96,-22.79 -3.66,-8.61 -5.49,-17.7 -5.49,-27.29 0,-9.63 1.83,-18.73 5.44,-27.29 3.61,-8.51 8.92,-16.18 16.01,-23.01 6.87,-6.69 14.72,-11.77 23.59,-15.16 8.83,-3.39 18.33,-5.09 28.54,-5.09 10.21,0 19.71,1.69 28.5,5.09 8.78,3.39 16.68,8.47 23.63,15.16 7.18,6.91 12.57,14.63 16.23,23.15 3.66,8.52 5.49,17.61 5.49,27.16zm27.02 65.64l0 -131.9 43.92 0 0 31.08c4.54,-11.37 10.7,-19.84 18.55,-25.51 7.85,-5.66 17.35,-8.52 28.49,-8.52 1.83,0 3.7,0.05 5.58,0.18 1.87,0.14 3.74,0.36 5.66,0.63l-4.55 42.27c-2.76,-0.93 -5.53,-1.6 -8.2,-2.05 -2.72,-0.4 -5.31,-0.63 -7.85,-0.63 -11.28,0 -19.98,3.48 -26.13,10.39 -6.11,6.91 -9.19,16.72 -9.19,29.43l0 54.62 -46.28 0zm119.55 0l0 -131.9 43.92 0 0 31.08c4.54,-11.37 10.7,-19.84 18.55,-25.51 7.85,-5.66 17.35,-8.52 28.49,-8.52 1.83,0 3.7,0.05 5.58,0.18 1.87,0.14 3.75,0.36 5.66,0.63l-4.55 42.27c-2.76,-0.93 -5.53,-1.6 -8.2,-2.05 -2.72,-0.4 -5.31,-0.63 -7.85,-0.63 -11.28,0 -19.98,3.48 -26.13,10.39 -6.11,6.91 -9.19,16.72 -9.19,29.43l0 54.62 -46.28 0zm254.66 -131.9l0 67.33c0,14.9 -1.2,25.95 -3.62,33.13 -2.36,7.18 -6.42,13.56 -12.08,19.13 -5.84,5.84 -13.11,10.21 -21.81,13.07 -8.74,2.9 -18.95,4.32 -30.72,4.32 -11.69,0 -21.85,-1.43 -30.5,-4.32 -8.69,-2.86 -16.05,-7.23 -22.16,-13.07 -5.66,-5.39 -9.68,-11.73 -12.04,-18.99 -2.37,-7.27 -3.53,-18.37 -3.53,-33.27l0 -67.33 44.41 0 0 70.36c0,11.02 1.83,18.99 5.49,23.94 3.65,4.91 9.59,7.36 17.79,7.36 8.29,0 14.22,-2.41 17.84,-7.22 3.61,-4.87 5.44,-12.89 5.44,-24.08l0 -70.36 45.48 0zm74.95 66.35c0,10.26 2.68,18.37 8.03,24.3 5.35,5.93 12.75,8.87 22.16,8.87 9.41,0 16.86,-2.94 22.3,-8.87 5.44,-5.93 8.16,-14.05 8.16,-24.3 0,-10.25 -2.72,-18.37 -8.11,-24.3 -5.39,-5.93 -12.84,-8.87 -22.34,-8.87 -9.41,0 -16.81,2.94 -22.16,8.87 -5.35,5.93 -8.03,14.05 -8.03,24.3zm-41.29 123.88l0 -190.23 42.85 0 0 22.21c5.93,-8.92 12.57,-15.56 19.98,-19.93 7.4,-4.37 15.61,-6.56 24.66,-6.56 18.55,0 33.31,6.34 44.28,18.99 10.97,12.71 16.46,29.88 16.46,51.55 0,21.09 -5.44,38.17 -16.37,51.19 -10.93,13.03 -25.19,19.53 -42.76,19.53 -11.15,0 -20.24,-2.05 -27.25,-6.15 -7,-4.06 -13.24,-10.79 -18.73,-20.2 0.45,2.59 0.76,5.8 0.98,9.5 0.22,3.74 0.31,8.38 0.31,13.87l0 56.23 -44.41 0zm183.58 -58.33l0 -98.99 -19.79 0 0 -32.91 19.79 0 0 -39.33 45.75 0 0 39.33 19.8 0 0 32.91 -19.8 0 0 98.99 -45.75 0zm86.15 -173.1c0,-7.05 2.5,-13.03 7.54,-17.98 4.99,-4.95 11.01,-7.44 18.1,-7.44 7.32,0 13.42,2.45 18.33,7.31 4.95,4.86 7.4,10.88 7.4,18.11 0,7.22 -2.5,13.33 -7.53,18.37 -5,5.04 -11.06,7.58 -18.2,7.58 -7,0 -13.02,-2.59 -18.06,-7.72 -5.04,-5.12 -7.58,-11.19 -7.58,-18.24zm2.41 173.1l0 -131.9 46.56 0 0 131.9 -46.56 0zm175.78 -65.64c0,-9.81 -2.5,-17.57 -7.45,-23.23 -4.95,-5.66 -11.68,-8.52 -20.11,-8.52 -8.52,0 -15.25,2.86 -20.2,8.52 -4.9,5.66 -7.36,13.42 -7.36,23.23 0,9.85 2.45,17.61 7.31,23.23 4.86,5.62 11.64,8.43 20.24,8.43 8.52,0 15.25,-2.81 20.2,-8.43 4.91,-5.62 7.36,-13.38 7.36,-23.23zm46.28 0c0,9.5 -1.87,18.55 -5.57,27.06 -3.7,8.56 -9.06,16.23 -16.14,23.01 -7.14,6.78 -15.12,11.95 -23.95,15.43 -8.87,3.47 -18.24,5.21 -28.18,5.21 -10.12,0 -19.58,-1.74 -28.4,-5.21 -8.87,-3.48 -16.77,-8.65 -23.72,-15.43 -7,-6.64 -12.31,-14.22 -15.96,-22.79 -3.65,-8.61 -5.49,-17.7 -5.49,-27.29 0,-9.63 1.83,-18.73 5.44,-27.29 3.61,-8.51 8.92,-16.18 16.01,-23.01 6.87,-6.69 14.72,-11.77 23.59,-15.16 8.83,-3.39 18.33,-5.09 28.54,-5.09 10.21,0 19.71,1.69 28.5,5.09 8.78,3.39 16.67,8.47 23.63,15.16 7.18,6.91 12.57,14.63 16.23,23.15 3.66,8.52 5.49,17.61 5.49,27.16zm26.76 65.64l0 -131.9 42.63 0 0 26.76c6.15,-10.75 13.29,-18.6 21.4,-23.59 8.07,-4.95 17.79,-7.45 29.08,-7.45 8.56,0 16.14,1.39 22.79,4.11 6.64,2.76 12.09,6.69 16.23,11.86 3.52,4.41 5.98,9.85 7.45,16.18 1.47,6.38 2.23,15.88 2.23,28.5l0 75.54 -46.56 0 0 -70.68c0,-10.57 -1.74,-18.19 -5.17,-23.01 -3.43,-4.77 -8.92,-7.18 -16.5,-7.18 -9.68,0 -16.72,3.57 -21.18,10.7 -4.42,7.14 -6.65,18.73 -6.65,34.78l0 55.38 -45.75 0zm-1205.38 166.96l0 56.99c-7.14,-7.94 -14.27,-13.73 -21.36,-17.43 -7.09,-3.7 -14.71,-5.58 -22.79,-5.58 -14.98,0 -27.11,5.13 -36.38,15.34 -9.28,10.21 -13.91,23.55 -13.91,40 0,15.34 4.73,28.05 14.18,38.13 9.45,10.12 21.49,15.16 36.11,15.16 8.07,0 15.7,-1.83 22.79,-5.53 7.09,-3.66 14.23,-9.49 21.36,-17.48l0 56.98c-8.25,4.01 -16.5,7.05 -24.66,9.06 -8.21,2 -16.46,2.99 -24.84,2.99 -10.44,0 -20.07,-1.25 -28.9,-3.71 -8.83,-2.49 -16.94,-6.29 -24.34,-11.33 -14.27,-9.59 -25.15,-21.62 -32.64,-36.16 -7.49,-14.58 -11.24,-30.95 -11.24,-49.14 0,-14.63 2.37,-27.92 7.14,-39.91 4.73,-11.99 11.91,-22.83 21.45,-32.59 9.06,-9.32 19.27,-16.28 30.63,-20.91 11.37,-4.6 23.99,-6.91 37.91,-6.91 8.38,0 16.63,0.98 24.84,2.99 8.16,2.01 16.41,5.03 24.66,9.05zm210.15 87.76c0,-10.3 -2.72,-18.42 -8.21,-24.44 -5.49,-6.02 -12.98,-9 -22.47,-9 -9.5,0 -16.95,2.99 -22.39,8.96 -5.44,5.93 -8.16,14.13 -8.16,24.48 0,10.25 2.72,18.37 8.21,24.3 5.49,5.93 12.93,8.87 22.34,8.87 9.49,0 16.99,-2.94 22.47,-8.87 5.49,-5.93 8.21,-14.05 8.21,-24.3zm40.98 -65.82l0 131.9 -42.81 0 0 -21.4c-6.11,9.14 -12.93,15.83 -20.56,20.11 -7.62,4.24 -16.59,6.38 -26.84,6.38 -17.61,0 -31.66,-6.42 -42.23,-19.26 -10.53,-12.84 -15.78,-30.1 -15.78,-51.68 0,-21.54 5.53,-38.62 16.54,-51.33 11.01,-12.66 25.82,-18.99 44.46,-18.99 9.94,0 18.5,2.14 25.68,6.38 7.18,4.24 13.33,10.75 18.46,19.58l0 -21.67 43.08 0zm22.79 120.93l9.67 -35.58c6.83,5.93 14.27,10.48 22.43,13.69 8.16,3.16 16.36,4.77 24.61,4.77 5.84,0 10.3,-0.94 13.33,-2.81 3.07,-1.87 4.59,-4.59 4.59,-8.16 0,-5.84 -6.15,-10.21 -18.46,-13.11 -4.01,-0.93 -7.27,-1.78 -9.68,-2.45 -13.95,-3.83 -24.03,-8.87 -30.37,-15.12 -6.29,-6.2 -9.46,-14.31 -9.46,-24.21 0,-12.84 4.82,-23.05 14.45,-30.72 9.63,-7.67 22.65,-11.51 39.11,-11.51 8.47,0 17.08,0.98 25.82,2.94 8.74,1.96 17.7,5 26.84,9.1l-9.67 32.11c-6.15,-4.19 -12.44,-7.4 -18.82,-9.59 -6.37,-2.18 -12.71,-3.25 -19.09,-3.25 -5.3,0 -9.32,0.85 -12.04,2.49 -2.72,1.65 -4.06,4.06 -4.06,7.18 0,4.68 6.11,8.65 18.33,11.91 2.81,0.76 4.9,1.34 6.29,1.69 16.09,4.6 27.29,10.04 33.62,16.23 6.29,6.24 9.45,14.67 9.45,25.28 0,13.47 -5.17,24.4 -15.56,32.69 -10.34,8.34 -24.08,12.48 -41.11,12.48 -11.59,0 -22.34,-1.33 -32.29,-3.97 -9.94,-2.68 -19.26,-6.68 -27.95,-12.08zm232.72 -71.97c-0.89,-7.49 -3.74,-13.51 -8.56,-18.06 -4.86,-4.55 -10.79,-6.83 -17.88,-6.83 -7.58,0 -13.65,2.05 -18.15,6.2 -4.46,4.15 -7.45,10.39 -8.96,18.69l53.55 0zm45.75 26.22l-100.33 0c0.09,10.16 2.72,18.01 7.85,23.54 5.17,5.53 12.44,8.3 21.85,8.3 7.09,0 13.02,-1.34 17.88,-3.97 4.81,-2.68 8.51,-6.6 11.06,-11.82l35 14.09c-4.19,10.12 -11.59,17.93 -22.21,23.41 -10.66,5.49 -23.68,8.25 -39.1,8.25 -23.01,0 -41.47,-6.38 -55.34,-19.13 -13.91,-12.8 -20.87,-29.61 -20.87,-50.53 0,-20.55 6.96,-37.63 20.83,-51.23 13.91,-13.6 31.48,-20.38 52.7,-20.38 21.85,0 39.11,6.87 51.73,20.65 12.62,13.78 18.95,32.64 18.95,56.59l0 2.23zm14.41 45.75l9.67 -35.58c6.83,5.93 14.27,10.48 22.43,13.69 8.16,3.16 16.36,4.77 24.61,4.77 5.84,0 10.3,-0.94 13.33,-2.81 3.07,-1.87 4.59,-4.59 4.59,-8.16 0,-5.84 -6.15,-10.21 -18.46,-13.11 -4.01,-0.93 -7.27,-1.78 -9.68,-2.45 -13.95,-3.83 -24.03,-8.87 -30.37,-15.12 -6.29,-6.2 -9.46,-14.31 -9.46,-24.21 0,-12.84 4.82,-23.05 14.45,-30.72 9.63,-7.67 22.65,-11.51 39.11,-11.51 8.47,0 17.08,0.98 25.82,2.94 8.74,1.96 17.7,5 26.84,9.1l-9.67 32.11c-6.15,-4.19 -12.44,-7.4 -18.82,-9.59 -6.37,-2.18 -12.71,-3.25 -19.09,-3.25 -5.3,0 -9.32,0.85 -12.04,2.49 -2.72,1.65 -4.06,4.06 -4.06,7.18 0,4.68 6.11,8.65 18.33,11.91 2.81,0.76 4.9,1.34 6.29,1.69 16.09,4.6 27.29,10.04 33.62,16.23 6.29,6.24 9.45,14.67 9.45,25.28 0,13.47 -5.17,24.4 -15.56,32.69 -10.34,8.34 -24.08,12.48 -41.11,12.48 -11.59,0 -22.34,-1.33 -32.29,-3.97 -9.94,-2.68 -19.26,-6.68 -27.95,-12.08z"/>
 </g>
</svg>
