<?xml version="1.0" encoding="UTF-8"?>
<!DOCTYPE svg PUBLIC "-//W3C//DTD SVG 1.1//EN" "http://www.w3.org/Graphics/SVG/1.1/DTD/svg11.dtd">
<!-- Creator: CorelDRAW 2017 -->
<svg xmlns="http://www.w3.org/2000/svg" xml:space="preserve" width="10.8724in" height="1.33589in" version="1.1" style="shape-rendering:geometricPrecision; text-rendering:geometricPrecision; image-rendering:optimizeQuality; fill-rule:evenodd; clip-rule:evenodd"
viewBox="0 0 10913.68 1340.96"
 xmlns:xlink="http://www.w3.org/1999/xlink">
 <defs>
  <style type="text/css">
   <![CDATA[
    .str0 {stroke:#FEFEFE;stroke-width:6.97;stroke-miterlimit:2.61313}
    .fil1 {fill:none}
    .fil0 {fill:#FEFEFE}
   ]]>
  </style>
 </defs>
 <g id="Layer_x0020_1">
  <metadata id="CorelCorpID_0Corel-Layer"/>
  <path class="fil0" d="M1279.17 1055.26l-186.88 0 0 -533.97 173.94 0 3.43 93.65c21.25,-37.41 46.33,-64.53 74.85,-81.51 28.52,-16.99 64.12,-25.49 106.79,-25.49l14.76 0 0 199.03 -19.42 0 -20.83 0c-57.85,0 -96.88,6.69 -116.71,19.83 -20.02,13.37 -29.93,45.11 -29.93,95.67l0 232.81zm628.83 -398.45c-11.12,-6.27 -21.64,-10.92 -31.76,-13.55 -10.11,-2.84 -20.03,-4.25 -29.94,-4.25 -35.2,0 -64.92,14.76 -88.99,44.3 -24.07,29.32 -36.2,66.54 -36.2,111.24 0,41.87 10.51,76.87 31.75,104.77 21.25,27.91 46.92,41.87 77.48,41.87 12.12,0 24.67,-3.24 37.61,-9.7 12.95,-6.69 26.3,-16.6 40.05,-30.15l0 -244.53zm185.68 -135.52l0 333.73c0,41.87 0.8,77.06 2.43,105.58 1.61,28.31 3.85,52.58 7.07,72.81l-172.13 47.33 -16.58 -50.76c-23.26,17.19 -46.13,30.15 -68.57,38.43 -22.25,8.29 -45.72,12.33 -70.19,12.33 -68.96,0 -126.82,-27.5 -173.53,-82.31 -46.93,-55.02 -70.39,-123.38 -70.39,-205.09 0,-86.16 26.3,-157.37 78.88,-213.39 52.58,-56.03 119.12,-84.14 199.43,-84.14 18.41,0 37.82,2.63 58.05,7.68 20.23,5.05 42.48,12.94 66.95,23.66l158.58 -5.87zm327.87 533.97l-185.68 0 0 -533.97 171.52 0 0 89.4c28.32,-34.99 58.66,-61.07 90.61,-78.27 31.95,-17.19 66.74,-25.68 104.15,-25.68 56.64,0 99.52,16.18 128.65,48.55 29.32,32.36 43.89,79.49 43.89,141.78l0 358.2 -184.46 0 0 -306.01c0,-28.13 -5.67,-49.15 -17.2,-63.31 -11.32,-14.36 -28.32,-21.44 -50.97,-21.44 -32.15,0 -57.04,10.91 -74.43,32.56 -17.4,21.84 -26.09,53.4 -26.09,94.86l0 263.34zm486.84 -24.27l0 -146.85c46.93,29.95 83.54,50.36 109.62,60.69 25.89,10.51 50.17,15.78 72.22,15.78 19.42,0 34.98,-4.24 46.72,-12.74 11.94,-8.49 17.81,-19.61 17.81,-33.58 0,-11.73 -4.05,-21.66 -12.34,-29.54 -8.3,-7.88 -22.65,-15.35 -42.68,-22.44l-68.77 -24.47c-44.89,-15.38 -79.08,-37.03 -102.35,-64.93 -23.26,-27.71 -34.78,-60.68 -34.78,-98.7 0,-53.6 18.8,-96.88 56.23,-129.46 37.61,-32.56 87.58,-48.93 150.07,-48.93 28.73,0 59.27,4.03 91.44,12.12 32.16,8.11 68.15,20.85 107.59,37.84l-23.26 129.65c-23.65,-20.02 -49.55,-35.8 -77.66,-47.12 -28.11,-11.53 -54.4,-17.2 -78.88,-17.2 -18.19,0 -32.97,4.25 -44.5,12.74 -11.53,8.49 -17.19,19.2 -17.19,32.16 0,11.13 3.24,19.83 9.71,26.29 6.48,6.48 21.02,13.55 43.48,21.05l64.11 23.05c50.18,17.8 86.17,39.24 107.62,64.53 21.63,25.28 32.37,58.25 32.37,99.1 0,58.86 -19.42,105.39 -58.06,139.57 -38.83,34.17 -91.43,51.16 -158.17,51.16 -32.57,0 -64.31,-4.04 -95.87,-12.12 -31.36,-8.09 -62.91,-20.64 -94.46,-37.63zm516.79 281.56l0 -791.26 185.68 0c18.62,-7.09 36.81,-12.34 55.02,-15.58 18.19,-3.44 36.81,-5.05 55.82,-5.05 76.85,0 140.37,26.71 190.34,79.9 49.95,53.38 75.04,122.16 75.04,206.3 0,87.18 -26.9,157.97 -80.9,211.77 -53.81,54 -124.4,80.91 -211.17,80.91 -11.53,0 -23.66,-0.61 -36.82,-2.04 -12.94,-1.41 -29.12,-3.42 -48.53,-6.25l0 209.94 -184.47 31.36zm185.68 -380.26c12.95,3.64 24.27,6.07 33.58,7.7 9.5,1.6 18.21,2.41 26.09,2.41 36.01,0 65.93,-14.76 90.01,-44.49 24.08,-29.54 36.01,-67.16 36.01,-112.46 0,-42.28 -10.92,-77.28 -32.77,-104.99 -21.83,-27.71 -48.94,-41.46 -81.3,-41.46 -9.92,0 -20.44,1.01 -31.36,3.24 -11.12,2.23 -24.47,5.85 -40.25,10.92l0 279.12zm829.08 -275.48c-11.12,-6.27 -21.66,-10.92 -31.76,-13.55 -10.11,-2.84 -20.02,-4.25 -29.94,-4.25 -35.19,0 -64.92,14.76 -88.98,44.3 -24.08,29.32 -36.22,66.54 -36.22,111.24 0,41.87 10.52,76.87 31.76,104.77 21.25,27.91 46.91,41.87 77.47,41.87 12.12,0 24.67,-3.24 37.61,-9.7 12.94,-6.69 26.3,-16.6 40.05,-30.15l0 -244.53zm185.68 -135.52l0 333.73c0,41.87 0.8,77.06 2.43,105.58 1.6,28.31 3.83,52.58 7.07,72.81l-172.14 47.33 -16.57 -50.76c-23.27,17.19 -46.13,30.15 -68.57,38.43 -22.26,8.29 -45.72,12.33 -70.19,12.33 -68.96,0 -126.82,-27.5 -173.53,-82.31 -46.94,-55.02 -70.39,-123.38 -70.39,-205.09 0,-86.16 26.3,-157.37 78.88,-213.39 52.58,-56.03 119.12,-84.14 199.43,-84.14 18.41,0 37.82,2.63 58.05,7.68 20.23,5.05 42.48,12.94 66.95,23.66l158.58 -5.87zm329.07 533.97l-186.88 0 0 -533.97 173.94 0 3.44 93.65c21.23,-37.41 46.32,-64.53 74.83,-81.51 28.52,-16.99 64.12,-25.49 106.79,-25.49l14.77 0 0 199.03 -19.42 0 -20.85 0c-57.84,0 -96.87,6.69 -116.7,19.83 -20.02,13.37 -29.94,45.11 -29.94,95.67l0 232.81zm429 -316.74l231.39 -7.07 0 -8.3c0,-28.11 -9.92,-51.17 -29.54,-69.18 -19.83,-18 -44.7,-27.1 -74.62,-27.1 -33.38,0 -61.5,9.7 -83.94,29.34 -22.45,19.62 -36.82,47.13 -43.29,82.31zm353.96 126.21l-20.63 164.05c-36.4,17.2 -72.21,30.14 -107.4,38.42 -35.2,8.3 -70.59,12.35 -106.6,12.35 -88.99,0 -160.6,-25.49 -215.22,-76.67 -54.4,-51.17 -81.7,-117.91 -81.7,-200.04 0,-85.76 29.73,-158.17 89.4,-217.23 59.68,-59.07 132.29,-88.6 217.63,-88.6 73.02,0 132.88,21.64 179.81,64.93 46.72,43.29 70.19,99.32 70.19,168.08 0,10.51 -0.82,27.52 -2.43,50.97l-0.61 3.44 -16.59 24.06 -363.87 10.12c2.84,36.01 17.8,65.33 44.91,87.79 27.3,22.43 61.69,33.58 102.95,33.58 29.34,0 61.7,-6.28 97.49,-19.03 35.6,-12.53 73.22,-31.35 112.66,-56.23zm317.97 190.54l-185.68 0 0 -533.97 171.52 0 0 89.4c28.32,-34.99 58.66,-61.07 90.61,-78.27 31.95,-17.19 66.74,-25.68 104.17,-25.68 56.63,0 99.51,16.18 128.64,48.55 29.32,32.36 43.89,79.49 43.89,141.78l0 358.2 -184.46 0 0 -306.01c0,-28.13 -5.67,-49.15 -17.2,-63.31 -11.32,-14.36 -28.32,-21.44 -50.97,-21.44 -32.15,0 -57.04,10.91 -74.43,32.56 -17.4,21.84 -26.09,53.4 -26.09,94.86l0 263.34zm955.09 -30.34c-32.78,18.62 -65.14,32.37 -96.89,41.27 -31.76,8.89 -64.52,13.35 -98.09,13.35 -89,0 -162.01,-26.72 -219.06,-80.11 -57.24,-53.2 -85.76,-120.75 -85.76,-202.68 0,-84.74 30.75,-156.14 92.23,-213.57 61.48,-57.45 138.55,-86.17 231.4,-86.17 33.96,0 67.34,3.85 99.71,11.52 32.35,7.68 63.7,19.21 93.65,34.79l-20.85 166.06c-29.13,-17.8 -57.24,-31.35 -84.34,-40.66 -27.1,-9.3 -52.18,-13.95 -75.45,-13.95 -41.86,0 -76.65,12.73 -104.36,38.24 -27.71,25.47 -41.46,57.03 -41.46,94.85 0,40.45 12.73,72.82 38.42,97.29 25.69,24.47 59.47,36.61 101.34,36.61 26.09,0 54,-5.67 83.53,-16.79 29.74,-11.33 64.11,-29.54 103.17,-54.81l-17.2 174.74zm154.13 30.34l0 -859.21 205.09 0 0 859.21 -205.09 0zm580.09 0l0 -679.6 -273.04 0 0 -179.61 749.98 0 0 179.61 -271.83 0 0 679.6 -205.11 0zm-7744.91 -1055.26l971.5 209.11 0 922.75 -971.5 209.11 0 -1340.96zm229.93 474.72l164.52 0 0 -224.27 -315.22 0 112.54 167.48 33.05 -32.09 2.9 4.12 3.23 4 1.68 1.84 8.5 -8.22 -1.25 -1.4 -3.02 -3.78 -2.69 -3.89 -2.37 -4.12 -2.15 -4.22 -1.83 -4.45 -1.5 -4.55 -1.19 -4.77 -0.86 -4.79 -0.54 -4.89 -0.32 -5 0.32 -5 0.54 -4.89 0.86 -4.79 1.19 -4.77 1.5 -4.56 1.83 -4.45 2.15 -4.22 2.37 -4.11 2.69 -3.9 3.02 -3.78 3.11 -3.45 3.45 -3.33 3.65 -3.11 3.87 -2.78 3.99 -2.66 4.19 -2.33 4.41 -2.11 4.51 -1.78 4.74 -1.44 4.83 -1.22 4.94 -0.79 5.06 -0.55 5.16 -0.23 5.16 0.23 5.06 0.55 4.94 0.79 4.85 1.22 4.73 1.44 4.52 1.78 4.4 2.11 4.2 2.33 4.08 2.66 3.77 2.78 3.66 3.11 3.44 3.33 3.22 3.45 2.9 3.78 2.69 3.9 2.37 4.11 2.15 4.22 1.83 4.45 1.5 4.56 1.29 4.77 0.87 4.79 0.53 4.89 0.22 5 -0.22 5 -0.53 4.89 -0.87 4.79 -1.29 4.77 -1.5 4.55 -1.83 4.45 -2.15 4.22 -2.37 4.12 -2.69 3.89 -2.9 3.78 -3.22 3.45 -3.44 3.33 -3.66 3.11 -3.77 2.78 -4.08 2.66 -4.2 2.34 -4.4 2.11 -4.52 1.78 -4.73 1.45 -4.85 1.22 -4.94 0.79 -5.06 0.55 -5.16 0.22 -5.16 -0.22 -5.06 -0.55 -4.94 -0.79 -4.83 -1.22 -4.74 -1.45 -4.51 -1.78 -4.41 -2.11 -4.19 -2.34 -3.99 -2.66 -3.87 -2.78 -1.45 -1.23 -8.43 8.25 1.83 1.54 4.08 3.12 4.2 2.89 -38.35 37.33 17.99 26.76zm65.84 -185.58l4.41 0.12 4.41 0.55 4.19 0.79 4.08 1.22 3.98 1.34 3.77 1.77 3.76 2.01 3.44 2.34 3.23 2.44 3.02 2.78 2.9 3 2.58 3.22 2.37 3.33 2.04 3.56 1.82 3.67 1.41 3.78 1.29 4 0.86 4.22 0.54 4.12 0.21 4.33 -0.21 4.33 -0.54 4.23 -0.86 4.11 -1.29 4 -1.41 3.77 -1.82 3.68 -2.04 3.55 -2.37 3.33 -2.58 3.23 -2.9 2.88 -3.02 2.9 -3.23 2.44 -3.44 2.33 -3.76 1.89 -3.77 1.78 -3.98 1.45 -4.08 1.22 -4.19 0.77 -4.41 0.57 -4.41 0.1 -4.41 -0.1 -4.3 -0.57 -4.3 -0.77 -4.08 -1.22 -3.98 -1.45 -3.76 -1.78 -3.66 -1.89 -3.43 -2.33 -3.34 -2.44 -3 -2.9 -2.81 -2.88 -2.69 -3.23 -2.25 -3.33 -2.15 -3.55 -1.72 -3.68 -1.5 -3.77 -1.19 -4 -0.86 -4.11 -0.54 -4.23 -0.23 -4.33 0.23 -4.33 0.54 -4.12 0.86 -4.22 1.19 -4 1.5 -3.78 1.72 -3.67 2.15 -3.56 2.25 -3.33 2.69 -3.22 2.81 -3 3 -2.78 3.34 -2.44 3.43 -2.34 3.66 -2.01 3.76 -1.77 3.98 -1.34 4.08 -1.22 4.3 -0.79 4.3 -0.55 4.41 -0.12zm0 11.67l0 11.67 3.33 0.23 3.12 0.45 3.12 0.77 2.9 1.11 2.68 1.44 2.7 1.66 2.36 1.89 2.15 2.11 1.94 2.33 1.72 2.45 1.4 2.66 1.18 2.88 0.86 2.9 0.54 3.22 0.21 3.24 11.94 0 -0.11 -3.79 -0.54 -3.66 -0.87 -3.57 -1.07 -3.33 -1.4 -3.33 -1.73 -3.11 -1.93 -2.9 -2.26 -2.78 -2.47 -2.56 -2.58 -2.44 -2.91 -2.11 -3 -1.89 -3.22 -1.67 -3.33 -1.44 -3.45 -1.01 -3.65 -0.88 -3.77 -0.45 -3.87 -0.11zm367.24 849.57l0 -675.66 224.51 0 0 -224.27 -448.79 0 0 899.94 224.28 0z"/>
  <line class="fil1 str0" x1="8568.37" y1="19.77" x2="8568.37" y2= "1321.19" />
  <path class="fil0" d="M8912.18 74.36l339.15 0 0 353.05 -339.15 0 0 -353.05zm0 419.59l339.15 0 0 353.05 -339.15 0 0 -353.05zm0 419.59l339.15 0 0 353.05 -339.15 0 0 -353.05zm135.94 -539.29l0 -188.39 -55.21 0 0 -58.31 177.7 0 0 58.31 -55.21 0 0 188.39 -67.28 0zm260.74 -30.36l0 -170.1 56.64 0 0 40.08c5.86,-14.67 13.8,-25.59 23.92,-32.9 10.12,-7.3 22.37,-10.98 36.75,-10.98 2.36,0 4.77,0.06 7.19,0.23 2.41,0.18 4.83,0.46 7.3,0.81l-5.86 54.51c-3.56,-1.21 -7.13,-2.07 -10.58,-2.64 -3.51,-0.52 -6.84,-0.81 -10.12,-0.81 -14.55,0 -25.76,4.49 -33.7,13.4 -7.88,8.91 -11.85,21.57 -11.85,37.95l0 70.45 -59.69 0zm283.5 -85.22c0,-13.29 -3.51,-23.75 -10.58,-31.52 -7.08,-7.76 -16.74,-11.61 -28.98,-11.61 -12.25,0 -21.86,3.85 -28.87,11.56 -7.01,7.65 -10.52,18.23 -10.52,31.57 0,13.22 3.51,23.69 10.58,31.34 7.07,7.65 16.68,11.44 28.81,11.44 12.24,0 21.91,-3.79 28.98,-11.44 7.07,-7.65 10.58,-18.12 10.58,-31.34zm52.85 -84.88l0 170.1 -55.21 0 0 -27.6c-7.88,11.79 -16.68,20.42 -26.51,25.93 -9.84,5.47 -21.4,8.22 -34.62,8.22 -22.72,0 -40.83,-8.28 -54.46,-24.84 -13.57,-16.56 -20.36,-38.82 -20.36,-66.65 0,-27.78 7.13,-49.8 21.34,-66.2 14.2,-16.33 33.29,-24.5 57.33,-24.5 12.83,0 23.87,2.77 33.13,8.22 9.26,5.46 17.19,13.86 23.81,25.25l0 -27.94 55.55 0zm167.4 55.89c-5.86,-5.17 -11.44,-8.92 -16.85,-11.27 -5.41,-2.36 -11.04,-3.57 -17.02,-3.57 -11.9,0 -21.39,3.91 -28.41,11.79 -7.02,7.88 -10.52,18.52 -10.52,32.03 0,12.99 3.68,23.4 10.98,31.17 7.3,7.76 17.08,11.61 29.45,11.61 6.1,0 11.79,-1.21 17.14,-3.62 5.35,-2.42 10.41,-6.16 15.24,-11.22l0 52.04c-7.18,4.03 -14.38,7.01 -21.56,8.91 -7.18,1.9 -14.61,2.88 -22.25,2.88 -26.17,0 -47.38,-8.39 -63.61,-25.19 -16.27,-16.79 -24.38,-38.93 -24.38,-66.3 0,-26.63 8.28,-48.42 24.84,-65.33 16.62,-16.91 37.84,-25.36 63.84,-25.36 8.62,0 16.44,0.87 23.4,2.53 6.96,1.67 13.57,4.37 19.72,8.11l0 50.77zm37.27 114.21l0 -261.2 58.99 0 0 165.39 61.82 -74.3 74.48 0 -76.49 81.83 83.38 88.27 -79.01 0 -64.18 -75.62 0 75.62 -58.99 0zm219.5 -223.24c0,-9.09 3.22,-16.8 9.72,-23.18 6.43,-6.38 14.2,-9.6 23.34,-9.6 9.44,0 17.31,3.17 23.64,9.43 6.39,6.27 9.55,14.03 9.55,23.35 0,9.31 -3.22,17.19 -9.72,23.69 -6.44,6.5 -14.27,9.78 -23.47,9.78 -9.02,0 -16.79,-3.34 -23.29,-9.95 -6.49,-6.61 -9.77,-14.44 -9.77,-23.52zm3.1 223.24l0 -170.1 60.04 0 0 170.1 -60.04 0zm105.93 0l0 -170.1 54.97 0 0 34.5c7.94,-13.86 17.14,-23.98 27.6,-30.43 10.41,-6.38 22.94,-9.6 37.5,-9.6 11.04,0 20.81,1.79 29.39,5.3 8.57,3.56 15.58,8.63 20.93,15.3 4.54,5.69 7.71,12.71 9.6,20.87 1.9,8.22 2.88,20.48 2.88,36.75l0 97.42 -60.04 0 0 -91.15c0,-13.63 -2.24,-23.46 -6.67,-29.67 -4.43,-6.15 -11.5,-9.26 -21.28,-9.26 -12.48,0 -21.56,4.6 -27.31,13.8 -5.7,9.2 -8.58,24.15 -8.58,44.85l0 71.43 -58.99 0zm354.93 -85.57c0,-13.11 -3.51,-23.41 -10.52,-30.88 -7.01,-7.48 -16.68,-11.22 -29.04,-11.22 -12.48,0 -22.25,3.73 -29.39,11.22 -7.13,7.47 -10.69,17.77 -10.69,30.88 0,12.99 3.56,23.28 10.69,30.82 7.13,7.53 16.91,11.27 29.39,11.27 12.25,0 21.91,-3.73 28.98,-11.27 7.01,-7.54 10.58,-17.83 10.58,-30.82zm52.85 -84.54l0 169.82c0,25.76 -7.82,44.74 -23.52,57.05 -15.64,12.3 -39.91,18.46 -72.69,18.46 -26.57,0 -47.33,-4.95 -62.39,-14.78 -15.07,-9.83 -23,-23.81 -23.93,-41.8l62.11 0c0.92,5.29 3.85,9.43 8.85,12.42 5,2.99 11.61,4.48 19.78,4.48 12.94,0 21.85,-3.11 26.68,-9.31 4.89,-6.28 7.36,-19.33 7.36,-39.34l0 -15.53c-6.26,10.69 -14.32,18.69 -24.09,23.93 -9.78,5.23 -21.39,7.82 -34.85,7.82 -22.48,0 -40.48,-8.11 -54.11,-24.38 -13.58,-16.21 -20.36,-37.9 -20.36,-64.98 0,-27.32 7.13,-49.05 21.33,-65.16 14.2,-16.16 33.3,-24.21 57.33,-24.21 12.71,0 23.64,2.65 32.95,7.94 9.26,5.3 17.25,13.57 23.98,24.84l0 -27.25 55.55 0zm-1409.89 382.84l0 73.49c-9.2,-10.24 -18.4,-17.71 -27.55,-22.48 -9.14,-4.77 -18.98,-7.19 -29.39,-7.19 -19.32,0 -34.96,6.62 -46.92,19.78 -11.97,13.17 -17.95,30.37 -17.95,51.58 0,19.78 6.1,36.18 18.29,49.17 12.19,13.05 27.72,19.55 46.57,19.55 10.41,0 20.25,-2.36 29.39,-7.13 9.14,-4.71 18.34,-12.24 27.55,-22.54l0 73.49c-10.64,5.18 -21.28,9.09 -31.8,11.68 -10.58,2.58 -21.23,3.85 -32.03,3.85 -13.46,0 -25.88,-1.61 -37.26,-4.78 -11.39,-3.22 -21.85,-8.11 -31.4,-14.61 -18.41,-12.36 -32.44,-27.89 -42.1,-46.63 -9.66,-18.81 -14.49,-39.91 -14.49,-63.37 0,-18.86 3.05,-36 9.2,-51.47 6.09,-15.47 15.35,-29.44 27.66,-42.04 11.68,-12.02 24.85,-20.99 39.5,-26.97 14.67,-5.93 30.94,-8.92 48.89,-8.92 10.81,0 21.45,1.26 32.03,3.85 10.52,2.59 21.16,6.5 31.8,11.67zm262.11 119.61c0,-12.65 -3.22,-22.66 -9.61,-29.96 -6.38,-7.3 -15.07,-10.99 -25.94,-10.99 -10.98,0 -19.66,3.68 -26.05,10.99 -6.33,7.3 -9.49,17.31 -9.49,29.96 0,12.71 3.16,22.71 9.43,29.96 6.26,7.24 15.01,10.87 26.11,10.87 10.99,0 19.66,-3.62 26.05,-10.87 6.33,-7.25 9.5,-17.25 9.5,-29.96zm59.69 0c0,12.25 -2.41,23.93 -7.18,34.9 -4.77,11.04 -11.68,20.93 -20.82,29.68 -9.2,8.75 -19.5,15.41 -30.88,19.9 -11.44,4.48 -23.52,6.72 -36.35,6.72 -13.05,0 -25.25,-2.24 -36.63,-6.72 -11.44,-4.49 -21.62,-11.16 -30.6,-19.9 -9.02,-8.57 -15.87,-18.34 -20.58,-29.39 -4.71,-11.1 -7.08,-22.83 -7.08,-35.19 0,-12.42 2.36,-24.15 7.02,-35.2 4.66,-10.98 11.5,-20.87 20.64,-29.68 8.86,-8.63 18.98,-15.18 30.43,-19.55 11.39,-4.37 23.64,-6.56 36.8,-6.56 13.17,0 25.41,2.19 36.75,6.56 11.33,4.37 21.5,10.92 30.48,19.55 9.26,8.92 16.21,18.86 20.93,29.85 4.72,10.98 7.07,22.71 7.07,35.02zm34.85 84.65l0 -170.1 56.64 0 0 40.08c5.86,-14.67 13.8,-25.59 23.93,-32.9 10.12,-7.3 22.37,-10.98 36.74,-10.98 2.36,0 4.77,0.06 7.19,0.23 2.41,0.18 4.83,0.46 7.3,0.81l-5.87 54.51c-3.56,-1.21 -7.13,-2.07 -10.58,-2.64 -3.51,-0.52 -6.84,-0.81 -10.12,-0.81 -14.55,0 -25.76,4.49 -33.7,13.4 -7.88,8.91 -11.85,21.57 -11.85,37.95l0 70.44 -59.69 0zm154.17 0l0 -170.1 56.64 0 0 40.08c5.86,-14.67 13.8,-25.59 23.92,-32.9 10.12,-7.3 22.37,-10.98 36.74,-10.98 2.36,0 4.77,0.06 7.19,0.23 2.41,0.18 4.83,0.46 7.3,0.81l-5.87 54.51c-3.56,-1.21 -7.13,-2.07 -10.58,-2.64 -3.51,-0.52 -6.84,-0.81 -10.12,-0.81 -14.55,0 -25.76,4.49 -33.7,13.4 -7.88,8.91 -11.85,21.57 -11.85,37.95l0 70.44 -59.69 0zm328.42 -170.1l0 86.83c0,19.21 -1.55,33.47 -4.66,42.73 -3.04,9.26 -8.28,17.48 -15.58,24.68 -7.53,7.53 -16.91,13.16 -28.12,16.85 -11.27,3.73 -24.44,5.58 -39.62,5.58 -15.07,0 -28.18,-1.84 -39.34,-5.58 -11.21,-3.68 -20.7,-9.32 -28.58,-16.85 -7.3,-6.96 -12.48,-15.13 -15.52,-24.5 -3.05,-9.38 -4.54,-23.7 -4.54,-42.91l0 -86.83 57.28 0 0 90.74c0,14.21 2.36,24.5 7.07,30.88 4.71,6.33 12.36,9.49 22.94,9.49 10.69,0 18.34,-3.1 23,-9.31 4.66,-6.27 7.01,-16.62 7.01,-31.06l0 -90.74 58.66 0zm96.66 85.56c0,13.23 3.45,23.7 10.35,31.34 6.9,7.65 16.44,11.44 28.58,11.44 12.14,0 21.74,-3.79 28.75,-11.44 7.02,-7.65 10.52,-18.11 10.52,-31.34 0,-13.22 -3.51,-23.69 -10.46,-31.33 -6.96,-7.65 -16.56,-11.44 -28.81,-11.44 -12.13,0 -21.68,3.79 -28.58,11.44 -6.9,7.65 -10.35,18.11 -10.35,31.33zm-53.25 159.76l0 -245.32 55.26 0 0 28.64c7.65,-11.5 16.22,-20.07 25.76,-25.7 9.55,-5.64 20.13,-8.46 31.8,-8.46 23.92,0 42.96,8.17 57.11,24.5 14.15,16.39 21.22,38.53 21.22,66.48 0,27.2 -7.01,49.22 -21.1,66.01 -14.09,16.8 -32.49,25.19 -55.15,25.19 -14.38,0 -26.11,-2.64 -35.14,-7.94 -9.02,-5.23 -17.08,-13.91 -24.15,-26.05 0.57,3.34 0.98,7.48 1.26,12.25 0.29,4.83 0.4,10.81 0.4,17.89l0 72.51 -57.28 0zm236.75 -75.22l0 -127.66 -25.53 0 0 -42.44 25.53 0 0 -50.72 59 0 0 50.72 25.53 0 0 42.44 -25.53 0 0 127.66 -59 0zm111.11 -223.24c0,-9.09 3.22,-16.8 9.72,-23.18 6.43,-6.38 14.2,-9.6 23.34,-9.6 9.44,0 17.31,3.16 23.64,9.43 6.39,6.27 9.55,14.03 9.55,23.35 0,9.31 -3.22,17.19 -9.72,23.69 -6.44,6.5 -14.27,9.78 -23.47,9.78 -9.02,0 -16.79,-3.34 -23.29,-9.95 -6.49,-6.61 -9.77,-14.44 -9.77,-23.52zm3.1 223.24l0 -170.1 60.04 0 0 170.1 -60.04 0zm226.7 -84.65c0,-12.65 -3.22,-22.66 -9.61,-29.96 -6.38,-7.3 -15.07,-10.99 -25.94,-10.99 -10.98,0 -19.66,3.68 -26.05,10.99 -6.32,7.3 -9.48,17.31 -9.48,29.96 0,12.71 3.16,22.71 9.43,29.96 6.26,7.24 15.01,10.87 26.11,10.87 10.99,0 19.66,-3.62 26.05,-10.87 6.33,-7.25 9.5,-17.25 9.5,-29.96zm59.69 0c0,12.25 -2.41,23.93 -7.18,34.9 -4.77,11.04 -11.68,20.93 -20.82,29.68 -9.2,8.75 -19.49,15.41 -30.88,19.9 -11.44,4.48 -23.52,6.72 -36.34,6.72 -13.05,0 -25.25,-2.24 -36.63,-6.72 -11.44,-4.49 -21.62,-11.16 -30.6,-19.9 -9.02,-8.57 -15.87,-18.34 -20.59,-29.39 -4.71,-11.1 -7.07,-22.83 -7.07,-35.19 0,-12.42 2.36,-24.15 7.02,-35.2 4.66,-10.98 11.5,-20.87 20.64,-29.68 8.86,-8.63 18.98,-15.18 30.43,-19.55 11.39,-4.37 23.64,-6.56 36.8,-6.56 13.17,0 25.41,2.19 36.75,6.56 11.33,4.37 21.5,10.92 30.47,19.55 9.26,8.92 16.22,18.86 20.93,29.85 4.72,10.98 7.07,22.71 7.07,35.02zm34.5 84.65l0 -170.1 54.98 0 0 34.5c7.94,-13.86 17.14,-23.98 27.6,-30.43 10.41,-6.38 22.94,-9.6 37.5,-9.6 11.04,0 20.81,1.79 29.39,5.3 8.57,3.56 15.59,8.63 20.93,15.29 4.54,5.69 7.71,12.71 9.6,20.87 1.9,8.22 2.88,20.48 2.88,36.75l0 97.41 -60.04 0 0 -91.15c0,-13.63 -2.24,-23.46 -6.67,-29.67 -4.43,-6.15 -11.5,-9.26 -21.27,-9.26 -12.48,0 -21.57,4.6 -27.32,13.8 -5.7,9.2 -8.57,24.15 -8.57,44.85l0 71.42 -59 0zm-1554.5 215.33l0 73.49c-9.2,-10.24 -18.4,-17.71 -27.55,-22.48 -9.14,-4.77 -18.98,-7.19 -29.39,-7.19 -19.32,0 -34.96,6.62 -46.92,19.78 -11.97,13.17 -17.95,30.36 -17.95,51.58 0,19.78 6.1,36.18 18.29,49.17 12.19,13.05 27.72,19.55 46.57,19.55 10.41,0 20.25,-2.36 29.39,-7.13 9.14,-4.71 18.34,-12.24 27.55,-22.54l0 73.49c-10.64,5.18 -21.28,9.09 -31.8,11.68 -10.58,2.58 -21.23,3.85 -32.03,3.85 -13.46,0 -25.88,-1.61 -37.26,-4.78 -11.39,-3.21 -21.85,-8.1 -31.4,-14.6 -18.41,-12.37 -32.44,-27.89 -42.1,-46.64 -9.66,-18.8 -14.49,-39.91 -14.49,-63.37 0,-18.86 3.05,-36 9.2,-51.47 6.09,-15.47 15.35,-29.44 27.66,-42.04 11.68,-12.02 24.85,-20.99 39.5,-26.97 14.67,-5.93 30.94,-8.92 48.89,-8.92 10.81,0 21.45,1.26 32.03,3.85 10.52,2.59 21.16,6.49 31.8,11.67zm271.02 113.18c0,-13.29 -3.51,-23.76 -10.58,-31.52 -7.07,-7.76 -16.74,-11.61 -28.98,-11.61 -12.25,0 -21.85,3.85 -28.87,11.56 -7.02,7.65 -10.52,18.22 -10.52,31.57 0,13.22 3.51,23.69 10.58,31.33 7.08,7.65 16.68,11.44 28.81,11.44 12.25,0 21.91,-3.79 28.98,-11.44 7.07,-7.65 10.58,-18.11 10.58,-31.33zm52.85 -84.88l0 170.1 -55.21 0 0 -27.6c-7.88,11.79 -16.68,20.42 -26.51,25.93 -9.83,5.46 -21.39,8.22 -34.62,8.22 -22.72,0 -40.83,-8.28 -54.46,-24.84 -13.57,-16.56 -20.36,-38.82 -20.36,-66.65 0,-27.77 7.13,-49.8 21.33,-66.2 14.2,-16.33 33.3,-24.49 57.33,-24.49 12.82,0 23.87,2.76 33.13,8.22 9.26,5.47 17.19,13.86 23.8,25.25l0 -27.95 55.56 0zm29.39 155.96l12.47 -45.89c8.8,7.65 18.41,13.52 28.93,17.66 10.52,4.08 21.1,6.15 31.74,6.15 7.53,0 13.28,-1.21 17.19,-3.62 3.96,-2.41 5.92,-5.92 5.92,-10.52 0,-7.53 -7.94,-13.17 -23.8,-16.91 -5.18,-1.21 -9.38,-2.3 -12.48,-3.17 -18,-4.94 -30.99,-11.44 -39.16,-19.49 -8.11,-7.99 -12.19,-18.46 -12.19,-31.22 0,-16.56 6.21,-29.73 18.63,-39.62 12.42,-9.89 29.21,-14.84 50.43,-14.84 10.92,0 22.03,1.26 33.3,3.79 11.27,2.53 22.83,6.44 34.62,11.74l-12.47 41.4c-7.94,-5.41 -16.04,-9.55 -24.27,-12.37 -8.22,-2.82 -16.39,-4.19 -24.61,-4.19 -6.84,0 -12.02,1.09 -15.53,3.21 -3.51,2.13 -5.24,5.24 -5.24,9.26 0,6.04 7.88,11.16 23.64,15.36 3.63,0.98 6.33,1.73 8.11,2.18 20.75,5.93 35.19,12.95 43.36,20.94 8.1,8.05 12.18,18.92 12.18,32.6 0,17.37 -6.67,31.46 -20.07,42.16 -13.34,10.75 -31.05,16.1 -53.02,16.1 -14.95,0 -28.81,-1.72 -41.64,-5.12 -12.82,-3.45 -24.84,-8.62 -36.05,-15.58zm300.12 -92.81c-1.15,-9.66 -4.83,-17.43 -11.04,-23.29 -6.27,-5.87 -13.91,-8.8 -23.06,-8.8 -9.78,0 -17.6,2.65 -23.41,7.99 -5.75,5.35 -9.6,13.4 -11.56,24.1l69.06 0zm59 33.81l-129.39 0c0.12,13.11 3.51,23.23 10.12,30.36 6.67,7.13 16.04,10.7 28.18,10.7 9.14,0 16.79,-1.73 23.06,-5.12 6.21,-3.45 10.98,-8.52 14.26,-15.24l45.14 18.17c-5.41,13.05 -14.95,23.11 -28.64,30.19 -13.74,7.07 -30.54,10.63 -50.43,10.63 -29.67,0 -53.49,-8.22 -71.36,-24.66 -17.95,-16.5 -26.92,-38.18 -26.92,-65.16 0,-26.51 8.97,-48.53 26.86,-66.07 17.94,-17.54 40.6,-26.28 67.97,-26.28 28.18,0 50.43,8.85 66.71,26.63 16.27,17.77 24.44,42.1 24.44,72.98l0 2.87zm18.58 59l12.47 -45.89c8.8,7.65 18.41,13.52 28.93,17.66 10.52,4.08 21.1,6.15 31.74,6.15 7.53,0 13.28,-1.21 17.19,-3.62 3.96,-2.41 5.92,-5.92 5.92,-10.52 0,-7.53 -7.94,-13.17 -23.81,-16.91 -5.18,-1.21 -9.37,-2.3 -12.48,-3.17 -17.99,-4.94 -30.99,-11.44 -39.16,-19.49 -8.11,-7.99 -12.19,-18.46 -12.19,-31.22 0,-16.56 6.21,-29.73 18.63,-39.62 12.42,-9.89 29.21,-14.84 50.43,-14.84 10.92,0 22.03,1.26 33.3,3.79 11.27,2.53 22.83,6.44 34.62,11.74l-12.47 41.4c-7.94,-5.41 -16.05,-9.55 -24.27,-12.37 -8.22,-2.82 -16.39,-4.19 -24.62,-4.19 -6.84,0 -12.01,1.09 -15.52,3.21 -3.51,2.13 -5.24,5.24 -5.24,9.26 0,6.04 7.88,11.16 23.64,15.36 3.62,0.98 6.33,1.73 8.11,2.18 20.75,5.93 35.19,12.95 43.36,20.94 8.11,8.05 12.19,18.92 12.19,32.6 0,17.37 -6.67,31.46 -20.07,42.16 -13.34,10.75 -31.05,16.1 -53.02,16.1 -14.95,0 -28.81,-1.72 -41.64,-5.12 -12.82,-3.45 -24.84,-8.62 -36.05,-15.58z"/>
 </g>
</svg>
