<svg width="198" height="106" viewBox="0 0 198 106" fill="none" xmlns="http://www.w3.org/2000/svg">
<path d="M78.634 8.60065L104.268 53L78.634 97.3993L27.366 97.3993L1.73205 53L27.366 8.60065L78.634 8.60065Z" fill="white" stroke="#262258" stroke-width="3"/>
<path d="M65.7385 44.3373H65.5745L63.3068 38.9253V38.8982C63.4202 38.8971 63.5342 38.8958 63.6475 38.8907C64.092 38.871 64.4365 38.4949 64.417 38.0503C64.3973 37.6059 64.0229 37.2641 63.5766 37.2809C63.4868 37.285 63.3967 37.2859 63.3068 37.2869V36.9775C63.3068 36.5325 62.9462 36.1719 62.5011 36.1719C62.0561 36.1719 61.6954 36.5325 61.6954 36.9775V37.1396C58.4281 36.4883 58.4226 34.6702 56.0329 34.6702H55.8904C55.6366 33.9369 55.0531 33.3568 54.3176 33.1074V32.5947C54.3176 32.1497 53.957 31.789 53.5119 31.789C53.0669 31.789 52.7063 32.1497 52.7063 32.5947V33.1074C51.9708 33.3568 51.387 33.9373 51.1333 34.6708C51.0639 34.6822 49.8074 34.5511 48.6793 35.5101C47.9618 36.1203 46.8666 36.8184 45.3873 37.1275V36.9782C45.3873 36.5331 45.0267 36.1725 44.5816 36.1725C44.1366 36.1725 43.776 36.5331 43.776 36.9782V37.2903C43.3405 37.3012 42.9906 37.6569 42.9906 38.0949C42.9906 38.533 43.3404 38.8887 43.776 38.8995V38.9257L41.5084 44.3373C41.4441 44.3477 40.9669 44.2638 40.5866 44.6605C40.1998 45.0638 40.273 45.5463 40.3712 46.1846C40.5157 47.0374 41.0581 47.8088 41.9325 48.2308C42.334 48.4224 42.6431 48.8904 43.4083 48.8904H45.755C46.3134 48.8904 46.7091 48.5894 46.7827 48.5291C47.0043 48.3475 47.0463 48.3257 47.2485 48.2221C48.3867 47.6783 48.8131 46.6736 48.8669 45.4297C48.8817 44.7928 48.3853 44.3374 47.8189 44.3374H47.6549L45.3873 38.9258V38.7643C47.4792 38.4009 48.9552 37.3907 49.7231 36.7378C50.3398 36.2134 51.0761 36.2895 51.1234 36.2823C51.3717 37.0294 51.9609 37.6219 52.7062 37.8745V46.246C51.0972 46.3541 50.0469 48.0032 50.6394 49.5086C49.6348 49.7932 48.8963 50.7178 48.8963 51.8123C48.8963 53.1327 49.9707 54.2069 51.291 54.2069H55.8014C57.1218 54.2069 58.196 53.1326 58.196 51.8123C58.196 50.6953 57.4272 49.7548 56.3911 49.4914C56.9693 47.988 55.9179 46.3535 54.3175 46.246V37.8745C55.0628 37.6218 55.6523 37.0291 55.9005 36.2816C55.9575 36.2904 56.6652 36.2057 57.2904 36.7371C58.0667 37.3972 59.5669 38.4225 61.6953 38.7755V38.9255L59.4275 44.3375C59.3632 44.3479 58.8862 44.264 58.5059 44.6608C58.1734 45.0074 58.2139 45.4402 58.2157 45.4295C58.2157 46.82 58.87 47.757 59.8518 48.2309C60.2661 48.4286 60.5658 48.8905 61.3275 48.8905H63.6744C64.4053 48.8902 64.6565 48.4872 65.1699 48.221C66.3161 47.6725 66.739 46.6701 66.7868 45.4285C66.8111 44.8367 66.3369 44.3373 65.7385 44.3373ZM43.3995 47.2805C43.4002 47.2805 43.4229 47.3004 43.4229 47.3004C43.4169 47.2954 43.4055 47.2854 43.3995 47.2805ZM45.7603 47.283C45.7562 47.2863 45.7544 47.2793 45.7547 47.279C42.3068 47.2711 43.9966 47.421 42.6144 46.7705C42.278 46.6116 42.0378 46.3062 41.966 45.949H47.1969C47.0426 46.717 46.4433 46.6986 45.7603 47.283ZM45.9076 44.3373H43.2554L44.5816 41.1725L45.9076 44.3373ZM56.5845 51.812C56.5845 52.244 56.2331 52.5953 55.8014 52.5953H51.2911C50.8591 52.5953 50.5079 52.2439 50.5079 51.812C50.5079 51.3802 50.8593 51.0289 51.2911 51.0289C52.9662 51.0289 54.3008 51.0289 55.8014 51.0289C56.2331 51.0289 56.5845 51.3803 56.5845 51.812ZM54.9388 48.6342C54.9388 49.0661 54.5874 49.4174 54.1557 49.4174H52.868C52.4362 49.4174 52.0849 49.066 52.0849 48.6342C52.0849 48.2024 52.4363 47.8511 52.868 47.8511H54.1557C54.5874 47.8511 54.9388 48.2024 54.9388 48.6342ZM53.5117 36.3958C53.0126 36.3958 52.6065 35.9899 52.6065 35.4906C52.6065 34.9915 53.0124 34.5854 53.5117 34.5854C54.011 34.5854 54.417 34.9914 54.417 35.4906C54.417 35.9899 54.0109 36.3958 53.5117 36.3958ZM62.501 41.1719L63.8274 44.3373H61.1747L62.501 41.1719ZM61.3192 47.2805C61.35 47.3068 61.3394 47.2978 61.3417 47.2998C61.3418 47.2998 61.3284 47.2884 61.3192 47.2805ZM63.6798 47.283C63.6778 47.2854 63.6739 47.2793 63.6739 47.2793C60.6335 47.2719 61.6545 47.4131 60.7669 46.8921C60.3766 46.6803 59.9982 46.5094 59.8855 45.9487H65.1165C64.9611 46.7236 64.332 46.7235 63.6798 47.283Z" fill="#08024F"/>
<path d="M61.0999 57.6358H45.9239C45.4789 57.6358 45.1182 57.9964 45.1182 58.4415C45.1182 58.8865 45.4789 59.2471 45.9239 59.2471H61.1002C61.5452 59.2471 61.9058 58.8865 61.9058 58.4415C61.9058 57.9964 61.5451 57.6358 61.0999 57.6358Z" fill="#08024F"/>
<path d="M61.0999 61.0196H45.9239C45.4789 61.0196 45.1182 61.3802 45.1182 61.8253C45.1182 62.2703 45.4789 62.6309 45.9239 62.6309H61.1002C61.5452 62.6309 61.9058 62.2703 61.9058 61.8253C61.9058 61.3802 61.5451 61.0196 61.0999 61.0196Z" fill="#08024F"/>
<path d="M61.0999 64.4036H45.9239C45.4789 64.4036 45.1182 64.7643 45.1182 65.2093C45.1182 65.6544 45.4789 66.015 45.9239 66.015H61.1002C61.5452 66.015 61.9058 65.6544 61.9058 65.2093C61.9058 64.7643 61.5451 64.4036 61.0999 64.4036Z" fill="#08024F"/>
<path d="M75.0011 64.135C75.4461 64.135 75.8068 63.7744 75.8068 63.3293V27.6919C75.8069 26.2075 74.5992 25 73.115 25C71.3697 25 35.5536 25 33.7921 25C31.2383 25 29.1929 27.1146 29.1929 29.5579C29.1929 32.2918 29.193 72.7976 29.193 75.4334C29.193 77.8894 31.3027 80.0001 33.7921 80.0001H59.4175C59.8626 80.0001 60.2232 79.6395 60.2232 79.1944C60.2232 78.7494 59.8626 78.3888 59.4175 78.3888C59.4066 78.3888 33.8095 78.367 33.7921 78.367C31.4481 78.367 29.8841 75.6829 31.4173 73.6781C31.9348 73.001 32.7316 72.5483 33.6413 72.4998C33.7728 72.4931 36.8195 72.4959 36.8307 72.4959V75.838C36.8307 76.7265 37.8135 77.2677 38.5647 76.7909L40.3988 75.6257L42.2054 76.7735C42.9697 77.2581 43.9668 76.707 43.9668 75.8053V72.4957H70.1288V78.3885H63.1776C62.7326 78.3885 62.3719 78.7491 62.3719 79.1941C62.3719 79.6392 62.7326 79.9998 63.1776 79.9998C64.3281 79.9998 71.6777 79.9998 72.9374 79.9998C74.5196 79.9998 75.8069 78.7126 75.8069 77.1303C75.8069 75.9059 75.8069 67.962 75.8069 67.089C75.8069 66.6439 75.4463 66.2833 75.0012 66.2833C74.5562 66.2833 74.1955 66.6439 74.1955 67.089V69.6298C74.1955 70.1916 73.8241 70.6685 73.3139 70.8276C73.01 70.9223 35.5833 70.8848 34.8579 70.8841V35.0674C34.8579 34.6223 34.4973 34.2617 34.0522 34.2617C33.6072 34.2617 33.2465 34.6223 33.2465 35.0674V70.9171C32.3246 71.0287 31.477 71.4191 30.8047 71.9966C30.9 28.5986 30.4884 29.2882 31.2399 28.0535C31.6793 27.3338 32.4114 26.8169 33.2463 26.6629V31.3074C33.2463 31.7524 33.6069 32.113 34.052 32.113C34.497 32.113 34.8577 31.7524 34.8577 31.3074V26.6114H73.115C73.7106 26.6114 74.1954 27.0961 74.1954 27.6919V63.3293C74.1954 63.7744 74.556 64.135 75.0011 64.135ZM71.74 72.4958C72.5795 72.4385 73.2931 72.6502 74.1952 72.2065V77.1307C74.1952 77.8243 73.6309 78.3887 72.9372 78.3887H71.7399L71.74 72.4958ZM38.442 72.4958H42.3554V74.9597C41.2931 74.3416 41.0319 73.9683 40.3988 73.9683C39.7647 73.9683 39.5019 74.3426 38.442 74.9596V72.4958Z" fill="#08024F"/>
<line x1="192" y1="52.5" x2="105" y2="52.5" stroke="#262258" stroke-width="3"/>
<circle cx="193.5" cy="52.5" r="4.5" transform="rotate(-180 193.5 52.5)" fill="#262258"/>
</svg>
