<svg width="196" height="106" viewBox="0 0 196 106" fill="none" xmlns="http://www.w3.org/2000/svg">
<path d="M27.366 97.3993L1.73206 53L27.366 8.60066L78.634 8.60066L104.268 53L78.634 97.3994L27.366 97.3993Z" fill="white" stroke="#262258" stroke-width="3"/>
<line x1="190" y1="53.5" x2="103" y2="53.5" stroke="#262258" stroke-width="3"/>
<circle cx="191.5" cy="53.5" r="4.5" transform="rotate(-180 191.5 53.5)" fill="#262258"/>
<path d="M64.1719 51.7656C65.1211 51.7656 65.8906 50.9961 65.8906 50.0469C65.8906 49.0976 65.1211 48.3281 64.1719 48.3281C63.2226 48.3281 62.4531 49.0976 62.4531 50.0469C62.4531 50.9961 63.2226 51.7656 64.1719 51.7656Z" fill="#070241"/>
<path d="M68.125 35.4375H65.8906V33.7188C65.8906 32.7695 65.1211 32 64.1719 32C63.2226 32 62.4531 32.7695 62.4531 33.7188V35.4375H54.6328V33.7188C54.6328 32.7695 53.8633 32 52.9141 32C51.9648 32 51.1953 32.7695 51.1953 33.7188V35.4375H43.4609V33.7188C43.4609 32.7695 42.6915 32 41.7422 32C40.7929 32 40.0234 32.7695 40.0234 33.7188V35.4375H37.875C34.0841 35.4375 31 38.5216 31 42.3125V69.125C31 72.9159 34.0841 76 37.875 76H51.0234C51.9727 76 52.7422 75.2305 52.7422 74.2812C52.7422 73.332 51.9727 72.5625 51.0234 72.5625H37.875C35.9796 72.5625 34.4375 71.0204 34.4375 69.125V42.3125C34.4375 40.4171 35.9796 38.875 37.875 38.875H40.0234V40.5938C40.0234 41.543 40.7929 42.3125 41.7422 42.3125C42.6915 42.3125 43.4609 41.543 43.4609 40.5938V38.875H51.1953V40.5938C51.1953 41.543 51.9648 42.3125 52.9141 42.3125C53.8633 42.3125 54.6328 41.543 54.6328 40.5938V38.875H62.4531V40.5938C62.4531 41.543 63.2226 42.3125 64.1719 42.3125C65.1211 42.3125 65.8906 41.543 65.8906 40.5938V38.875H68.125C70.0204 38.875 71.5625 40.4171 71.5625 42.3125V52.1094C71.5625 53.0586 72.332 53.8281 73.2812 53.8281C74.2305 53.8281 75 53.0586 75 52.1094V42.3125C75 38.5216 71.9159 35.4375 68.125 35.4375Z" fill="#070241"/>
<path d="M64.6016 55.2031C58.8678 55.2031 54.2031 59.8678 54.2031 65.6016C54.2031 71.3353 58.8678 76 64.6016 76C70.3353 76 75 71.3353 75 65.6016C75 59.8678 70.3353 55.2031 64.6016 55.2031ZM64.6016 72.5625C60.7633 72.5625 57.6406 69.4399 57.6406 65.6016C57.6406 61.7633 60.7633 58.6406 64.6016 58.6406C68.4398 58.6406 71.5625 61.7633 71.5625 65.6016C71.5625 69.4399 68.4398 72.5625 64.6016 72.5625Z" fill="#070241"/>
<path d="M67.0938 63.8828H66.3203V62.0781C66.3203 61.1289 65.5508 60.3594 64.6016 60.3594C63.6523 60.3594 62.8828 61.1289 62.8828 62.0781V65.6016C62.8828 66.5508 63.6523 67.3203 64.6016 67.3203H67.0938C68.043 67.3203 68.8125 66.5508 68.8125 65.6016C68.8125 64.6523 68.043 63.8828 67.0938 63.8828Z" fill="#070241"/>
<path d="M56.6953 51.7656C57.6446 51.7656 58.4141 50.9961 58.4141 50.0469C58.4141 49.0976 57.6446 48.3281 56.6953 48.3281C55.7461 48.3281 54.9766 49.0976 54.9766 50.0469C54.9766 50.9961 55.7461 51.7656 56.6953 51.7656Z" fill="#070241"/>
<path d="M49.2188 59.2422C50.168 59.2422 50.9375 58.4727 50.9375 57.5234C50.9375 56.5742 50.168 55.8047 49.2188 55.8047C48.2695 55.8047 47.5 56.5742 47.5 57.5234C47.5 58.4727 48.2695 59.2422 49.2188 59.2422Z" fill="#070241"/>
<path d="M41.7422 51.7656C42.6914 51.7656 43.4609 50.9961 43.4609 50.0469C43.4609 49.0976 42.6914 48.3281 41.7422 48.3281C40.7929 48.3281 40.0234 49.0976 40.0234 50.0469C40.0234 50.9961 40.7929 51.7656 41.7422 51.7656Z" fill="#070241"/>
<path d="M41.7422 59.2422C42.6914 59.2422 43.4609 58.4727 43.4609 57.5234C43.4609 56.5742 42.6914 55.8047 41.7422 55.8047C40.7929 55.8047 40.0234 56.5742 40.0234 57.5234C40.0234 58.4727 40.7929 59.2422 41.7422 59.2422Z" fill="#070241"/>
<path d="M41.7422 66.7188C42.6914 66.7188 43.4609 65.9492 43.4609 65C43.4609 64.0508 42.6914 63.2812 41.7422 63.2812C40.7929 63.2812 40.0234 64.0508 40.0234 65C40.0234 65.9492 40.7929 66.7188 41.7422 66.7188Z" fill="#070241"/>
<path d="M49.2188 66.7188C50.168 66.7188 50.9375 65.9492 50.9375 65C50.9375 64.0508 50.168 63.2812 49.2188 63.2812C48.2695 63.2812 47.5 64.0508 47.5 65C47.5 65.9492 48.2695 66.7188 49.2188 66.7188Z" fill="#070241"/>
<path d="M49.2188 51.7656C50.168 51.7656 50.9375 50.9961 50.9375 50.0469C50.9375 49.0976 50.168 48.3281 49.2188 48.3281C48.2695 48.3281 47.5 49.0976 47.5 50.0469C47.5 50.9961 48.2695 51.7656 49.2188 51.7656Z" fill="#070241"/>
</svg>
