<svg width="196" height="106" viewBox="0 0 196 106" fill="none" xmlns="http://www.w3.org/2000/svg">
<path d="M27.366 97.3993L1.73206 53L27.366 8.60066L78.634 8.60066L104.268 53L78.634 97.3994L27.366 97.3993Z" fill="white" stroke="#262258" stroke-width="3"/>
<line x1="190" y1="52.5" x2="103" y2="52.5" stroke="#262258" stroke-width="3"/>
<circle cx="191.5" cy="52.5" r="4.5" transform="rotate(180 191.5 52.5)" fill="#262258"/>
<path d="M70.3653 56.2329L69.3184 54.4295C68.6007 53.1931 67.0082 52.7665 65.7685 53.4783L63.7319 54.6477L63.1768 53.6916L64.8636 52.7231C65.2206 52.5182 65.3424 52.0634 65.1357 51.7075L57.4049 38.3902C57.1981 38.0341 56.7413 37.9117 56.3843 38.1167L54.6976 39.0851L54.1425 38.1289L56.1792 36.9595C56.7797 36.6148 57.2089 36.0574 57.3877 35.3902C57.5665 34.723 57.4735 34.0257 57.1258 33.4268L56.0789 31.6232C55.9796 31.4522 55.8164 31.3274 55.6249 31.2761C55.4335 31.2248 55.2298 31.2513 55.0582 31.3497L42.5214 38.5483C42.1644 38.7533 42.0425 39.2081 42.2492 39.564L43.2962 41.3674C43.6438 41.9662 44.2045 42.395 44.8749 42.5746C45.5453 42.7542 46.2452 42.6633 46.8457 42.3185L48.8825 41.149L49.4376 42.1051L47.7506 43.0737C47.5793 43.1721 47.4543 43.3344 47.4033 43.5249C47.3522 43.7153 47.3793 43.9184 47.4785 44.0893L48.2998 45.504L47.0016 46.2494C46.8302 46.3478 46.7052 46.5102 46.6542 46.7006C46.6032 46.8911 46.6302 47.0942 46.7294 47.265L48.2384 49.8644L23.1904 64.2468C22.0848 64.8818 21.706 66.2955 22.346 67.3982C22.6562 67.9324 23.1562 68.3148 23.7543 68.475C24.3524 68.6353 24.9766 68.5542 25.5124 68.2466L41.0969 59.2982C41.4539 59.0933 41.5757 58.6385 41.369 58.2826C41.1623 57.9266 40.7054 57.8042 40.3485 58.0092L24.7642 66.9575C24.5737 67.0668 24.3518 67.0956 24.1393 67.0387C23.9267 66.9817 23.749 66.8459 23.6388 66.656C23.4113 66.2641 23.5459 65.7617 23.9389 65.5361L48.9868 51.1539L49.812 52.5753L43.251 56.3425C42.894 56.5474 42.7721 57.0022 42.9788 57.3581C43.0822 57.5361 43.248 57.6557 43.4328 57.7052C43.6174 57.7547 43.8209 57.7341 43.9995 57.6316L50.5604 53.8644L52.0695 56.4638C52.1688 56.6348 52.332 56.7596 52.5235 56.8109C52.715 56.8622 52.9186 56.8357 53.0902 56.7372L54.3884 55.9918L55.2096 57.4064C55.313 57.5844 55.4789 57.7041 55.6636 57.7536C55.8483 57.8031 56.0517 57.7824 56.2303 57.6799L57.917 56.7113L58.4722 57.6675L56.4354 58.837C55.8349 59.1817 55.4056 59.7391 55.2269 60.4063C55.0481 61.0736 55.1411 61.771 55.4887 62.3697L56.5357 64.1731C56.6349 64.3441 56.7982 64.4689 56.9896 64.5202C57.1811 64.5715 57.3847 64.545 57.5563 64.4466L61.0122 62.4622C61.3692 62.2572 61.491 61.8025 61.2842 61.4465C61.0777 61.0905 60.6207 60.9681 60.2638 61.1731L57.4543 62.7863L56.7816 61.6275C56.6338 61.3729 56.5943 61.0766 56.6703 60.7931C56.7463 60.5095 56.9286 60.2727 57.1839 60.1262L66.5172 54.7671C67.0438 54.4647 67.7206 54.6459 68.0257 55.1713L68.6985 56.3302L63.1663 59.5066C62.8093 59.7116 62.6875 60.1663 62.8942 60.5222C63.1009 60.8781 63.5576 61.0007 63.9147 60.7957L70.0931 57.2482C70.2645 57.1498 70.3894 56.9874 70.4405 56.797C70.4916 56.6068 70.4645 56.4037 70.3653 56.2329ZM46.0975 41.0293C45.8422 41.1759 45.5448 41.2146 45.2599 41.1382C44.9749 41.0619 44.7367 40.8797 44.5889 40.6252L43.9162 39.4663L55.1604 33.0101L55.8331 34.169C55.9809 34.4235 56.0204 34.7198 55.9444 35.0035C55.8684 35.2871 55.6861 35.5239 55.4308 35.6704L46.0975 41.0293ZM53.4048 39.8274L50.7305 41.3629L50.1754 40.4068L52.8497 38.8713L53.4048 39.8274ZM52.988 55.0772L48.3964 47.1677L49.0483 46.7934L53.6399 54.7029L52.988 55.0772ZM56.1282 56.0198L49.1456 43.9919L51.9645 42.3733L58.947 54.4013L56.1282 56.0198ZM53.2571 41.6311L54.3232 41.019L61.3057 53.0469L60.2397 53.659L53.2571 41.6311ZM59.7648 56.9254L59.2098 55.9693L61.8841 54.4338L62.4392 55.3898L59.7648 56.9254ZM62.5985 52.3046L55.616 40.2766L56.4863 39.7769L63.4688 51.8048L62.5985 52.3046Z" fill="#070241"/>
<path d="M70.409 79.569L68.8076 79.1399L69.1938 77.6985C69.3001 77.3018 69.0632 76.8937 68.6646 76.7869L50.8458 72.0124C50.4472 71.9056 50.038 72.1406 49.9318 72.5372L49.5455 73.9787L47.9441 73.5496C47.5455 73.4428 47.1363 73.6778 47.0301 74.0744L46.3333 76.6747C46.2271 77.0713 46.4639 77.4794 46.8625 77.5862L49.8588 78.389C50.2574 78.4958 50.6665 78.2608 50.7728 77.8642C50.8791 77.4676 50.6423 77.0595 50.2436 76.9527L47.969 76.3432L48.2808 75.1794L69.3024 80.8121L68.9905 81.9759L53.4841 77.8209C53.0854 77.7141 52.6763 77.9491 52.57 78.3458C52.4637 78.7424 52.7006 79.1505 53.0992 79.2573L69.3273 83.6056C69.7259 83.7124 70.1351 83.4774 70.2413 83.0808L70.9381 80.4806C71.0444 80.0839 70.8075 79.6758 70.409 79.569ZM67.3642 78.7532L50.9888 74.3654L51.1826 73.6421L67.558 78.0299L67.3642 78.7532Z" fill="#070241"/>
<path d="M61.9978 66.0302C61.5992 65.9233 61.19 66.1584 61.0837 66.555L60.5071 68.7069C60.4008 69.1035 60.6377 69.5116 61.0363 69.6184C61.4349 69.7252 61.8441 69.4902 61.9504 69.0936L62.527 66.9417C62.6332 66.5451 62.3964 66.137 61.9978 66.0302Z" fill="#070241"/>
<path d="M69.0642 70.4949C68.8575 70.1389 68.4006 70.0165 68.0437 70.2214L66.1071 71.3334C65.75 71.5383 65.6282 71.9931 65.8349 72.349C65.9382 72.527 66.1042 72.6466 66.2888 72.6961C66.4734 72.7456 66.677 72.725 66.8555 72.6224L68.7921 71.5105C69.149 71.3055 69.2709 70.8508 69.0642 70.4949Z" fill="#070241"/>
<path d="M55.7877 68.5683L54.6665 66.637C54.4599 66.281 54.0031 66.1585 53.646 66.3636C53.289 66.5685 53.1672 67.0232 53.3738 67.3792L54.495 69.3105C54.5983 69.4885 54.7641 69.6081 54.9489 69.6576C55.1335 69.707 55.337 69.6864 55.5155 69.5839C55.8725 69.379 55.9943 68.9243 55.7877 68.5683Z" fill="#070241"/>
<path d="M68.116 73.7242C67.7174 73.6174 67.3082 73.8524 67.202 74.249L67.1969 74.268C67.0906 74.6646 67.3274 75.0727 67.7261 75.1795C68.1247 75.2864 68.5338 75.0513 68.6401 74.6547L68.6452 74.6358C68.7515 74.2391 68.5146 73.831 68.116 73.7242Z" fill="#070241"/>
<path d="M52.8523 69.6343C52.4537 69.5275 52.0445 69.7625 51.9382 70.1591L51.9332 70.1781C51.8269 70.5747 52.0637 70.9828 52.4623 71.0896C52.861 71.1965 53.2701 70.9614 53.3764 70.5648L53.3815 70.5459C53.4878 70.1492 53.2509 69.7411 52.8523 69.6343Z" fill="#070241"/>
<path d="M64.5352 69.3479C64.1365 69.2411 63.7274 69.4761 63.6211 69.8728L63.616 69.8917C63.5097 70.2884 63.7466 70.6965 64.1452 70.8033C64.5438 70.9101 64.953 70.6751 65.0593 70.2784L65.0643 70.2595C65.1706 69.8628 64.9338 69.4547 64.5352 69.3479Z" fill="#070241"/>
<path d="M58.1415 67.6348C57.7429 67.528 57.3338 67.763 57.2275 68.1596L57.2224 68.1786C57.1161 68.5752 57.353 68.9833 57.7516 69.0901C58.1502 69.1969 58.5594 68.9619 58.6656 68.5653L58.6707 68.5463C58.777 68.1497 58.5402 67.7416 58.1415 67.6348Z" fill="#070241"/>
</svg>
