<svg width="196" height="106" viewBox="0 0 196 106" fill="none" xmlns="http://www.w3.org/2000/svg">
<path d="M27.366 97.3993L1.73205 53L27.366 8.60065L78.634 8.60065L104.268 53L78.634 97.3993L27.366 97.3993Z" fill="white" stroke="#262258" stroke-width="3"/>
<line x1="190" y1="53.5" x2="103" y2="53.5" stroke="#262258" stroke-width="3"/>
<circle cx="191.5" cy="53.5" r="4.5" transform="rotate(180 191.5 53.5)" fill="#262258"/>
<path d="M71.1987 51.8519V51.0387H72.7667C73.1604 51.0387 73.4795 50.7174 73.4795 50.3212V47.9772H74.2873C74.6809 47.9772 75 47.6559 75 47.2597V44.9635C75 44.7061 74.863 44.4682 74.6409 44.3405L53.3536 32.0945C53.1345 31.9685 52.8654 31.9685 52.6464 32.0945L31.3591 44.3405C31.137 44.4682 31 44.706 31 44.9635V47.2597C31 47.6559 31.3191 47.9772 31.7127 47.9772H32.5205V50.3212C32.5205 50.7174 32.8396 51.0387 33.2333 51.0387H34.8013V51.8519C34.8013 52.4094 35.1087 52.8955 35.5616 53.1488V66.4419H33.2333C32.8396 66.4419 32.5205 66.7632 32.5205 67.1595V69.5034H31.7127C31.3191 69.5034 31 69.8247 31 70.221V73.2825C31 73.6787 31.3191 74 31.7127 74H74.2873C74.6809 74 75 73.6787 75 73.2825V70.221C75 69.8247 74.6809 69.5034 74.2873 69.5034H73.4795V67.1595C73.4795 66.7632 73.1604 66.4419 72.7667 66.4419H70.4384V53.1488C70.8913 52.8955 71.1987 52.4094 71.1987 51.8519ZM69.7732 51.8519C69.7732 51.8783 69.7519 51.8998 69.7257 51.8998H66.6847C66.6584 51.8998 66.6371 51.8783 66.6371 51.8519V51.0387H69.7732V51.8519ZM62.8359 66.4419V53.1488C63.2887 52.8955 63.5961 52.4094 63.5961 51.8519V51.0387H65.2117V51.8519C65.2117 52.4094 65.5191 52.8955 65.9719 53.1488V66.4419H62.8359ZM59.7948 66.4419V53.3348H61.4104V66.4419H59.7948ZM55.2333 66.4419V53.1488C55.6861 52.8955 55.9935 52.4094 55.9935 51.8519V51.0387H57.6091V51.8519C57.6091 52.4094 57.9165 52.8955 58.3693 53.1488V66.4419H55.2333ZM52.1922 66.4419V53.3348H53.8078V66.4419H52.1922ZM47.6307 66.4419V53.1488C48.0835 52.8955 48.3909 52.4094 48.3909 51.8519V51.0387H50.0065V51.8519C50.0065 52.4094 50.3139 52.8955 50.7667 53.1488V66.4419H47.6307ZM44.5896 66.4419V53.3348H46.2052V66.4419H44.5896ZM40.0281 66.4419V53.1488C40.4809 52.8955 40.7883 52.4094 40.7883 51.8519V51.0387H42.4039V51.8519C42.4039 52.4094 42.7113 52.8955 43.1641 53.1488V66.4419H40.0281ZM46.9654 51.0387V51.8519C46.9654 51.8783 46.9442 51.8998 46.9179 51.8998H43.8769C43.8507 51.8998 43.8294 51.8783 43.8294 51.8519V51.0387H46.9654ZM54.568 51.0387V51.8519C54.568 51.8783 54.5467 51.8998 54.5205 51.8998H51.4795C51.4533 51.8998 51.432 51.8783 51.432 51.8519V51.0387H54.568ZM62.1706 51.0387V51.8519C62.1706 51.8783 62.1493 51.8998 62.1231 51.8998H59.0821C59.0558 51.8998 59.0346 51.8783 59.0346 51.8519V51.0387H62.1706ZM32.4255 45.3799L53 33.5439L73.5745 45.3799V46.5421H32.4255V45.3799ZM33.946 47.9772H72.054V49.6036H33.946V47.9772ZM39.3629 51.0387V51.8519C39.3629 51.8783 39.3416 51.8998 39.3153 51.8998H36.2743C36.2481 51.8998 36.2268 51.8783 36.2268 51.8519V51.0387H39.3629ZM36.987 53.3348H38.6026V66.4419H36.987V53.3348ZM73.5745 72.5649H32.4255V70.9385H73.5745V72.5649ZM72.054 69.5034H33.946V67.877H72.054V69.5034ZM67.3974 66.4419V53.3348H69.013V66.4419H67.3974Z" fill="#070241"/>
</svg>
