<svg width="28" height="28" viewBox="0 0 28 28" fill="none" xmlns="http://www.w3.org/2000/svg">
<path d="M27.9993 18.8376C27.9993 18.8314 28 18.8253 28 18.8191C28 18.8178 27.9998 18.8164 27.9998 18.815C27.9997 18.805 27.999 18.795 27.9982 18.7849C27.9978 18.78 27.9976 18.7751 27.997 18.7703C27.9961 18.7616 27.9945 18.753 27.993 18.7444C27.9919 18.7382 27.991 18.732 27.9896 18.7258C27.9881 18.7192 27.9862 18.7126 27.9843 18.7059C27.9822 18.698 27.9801 18.69 27.9775 18.6823C27.9758 18.6772 27.9737 18.6722 27.9718 18.6671C27.9684 18.6581 27.965 18.6492 27.961 18.6405C27.9604 18.6391 27.96 18.6377 27.9593 18.6363L23.162 8.3567V7.00932H23.1922C23.7091 7.00932 24.1296 6.59977 24.1296 6.09634V6.02636C24.1296 5.57588 23.7982 5.19685 23.3416 5.12505L15.4212 3.88016V3.08917C15.7218 2.76102 15.905 2.32874 15.905 1.85541C15.905 0.832342 15.0504 0 14 0C12.9496 0 12.0951 0.832342 12.0951 1.85541C12.0951 2.32874 12.2782 2.76102 12.5789 3.08917V3.83722L4.65367 5.12375C4.19987 5.19744 3.87046 5.57618 3.87046 6.0243V6.09634C3.87046 6.59977 4.29095 7.00932 4.80783 7.00932H4.83806V8.3567L0.0406997 18.6363C0.0400345 18.6377 0.0396111 18.6391 0.0390064 18.6405C0.0350755 18.6491 0.0316284 18.6581 0.0282418 18.667C0.0263066 18.6721 0.0242505 18.6772 0.0224967 18.6823C0.0198963 18.69 0.0177797 18.698 0.015663 18.7059C0.0138488 18.7126 0.0119136 18.7192 0.0104017 18.7258C0.00907126 18.732 0.00810365 18.7382 0.0070151 18.7444C0.00550323 18.753 0.00393088 18.7616 0.00296328 18.7703C0.002419 18.7751 0.00223758 18.7801 0.00181425 18.785C0.00102808 18.795 0.00036285 18.805 0.0002419 18.815C0.0002419 18.8164 0 18.8177 0 18.8191C0 18.8253 0.000665225 18.8314 0.0007257 18.8376C0.0009676 18.8426 0.000907125 18.8476 0.00133045 18.8525C0.0296328 20.6696 2.34256 22.0882 5.29163 22.0882C8.24069 22.0882 10.5536 20.6696 10.5819 18.8526C10.5823 18.8476 10.5822 18.8426 10.5825 18.8376C10.5825 18.8314 10.5832 18.8254 10.5832 18.8192C10.5832 18.8178 10.583 18.8165 10.5829 18.8151C10.5829 18.8051 10.5822 18.795 10.5814 18.785C10.581 18.7801 10.5808 18.7752 10.5802 18.7704C10.5793 18.7617 10.5777 18.7531 10.5762 18.7444C10.5751 18.7383 10.5742 18.732 10.5728 18.7259C10.5713 18.7192 10.5693 18.7126 10.5675 18.706C10.5654 18.698 10.5633 18.6901 10.5607 18.6824C10.559 18.6773 10.5569 18.6722 10.555 18.6672C10.5516 18.6582 10.5482 18.6493 10.5442 18.6405C10.5436 18.6392 10.5432 18.6378 10.5425 18.6364L5.74519 8.3567V7.00932H12.5789V16.6071C12.2907 16.763 12.0951 17.0623 12.0951 17.4055V23.9133L9.2219 24.7878C8.62543 24.9694 8.22466 25.5004 8.22466 26.1091V26.8298C8.22466 27.0738 8.42768 27.2715 8.67823 27.2715H19.3218C19.5724 27.2715 19.7754 27.0738 19.7754 26.8298V26.109C19.7754 25.5003 19.3746 24.9694 18.7782 24.7878L15.905 23.9133V17.4055C15.905 17.0623 15.7094 16.763 15.4212 16.6071V7.00932H22.2549V8.3567L17.4575 18.6364C17.4568 18.6377 17.4564 18.6392 17.4558 18.6405C17.4519 18.6492 17.4484 18.6582 17.4451 18.6671C17.4431 18.6722 17.4411 18.6772 17.4393 18.6824C17.4367 18.6901 17.4346 18.698 17.4325 18.706C17.4307 18.7126 17.4287 18.7192 17.4272 18.7259C17.4259 18.732 17.4249 18.7383 17.4238 18.7444C17.4223 18.7531 17.4207 18.7617 17.4198 18.7704C17.4192 18.7752 17.419 18.7801 17.4186 18.785C17.4178 18.795 17.4172 18.8051 17.417 18.815C17.417 18.8164 17.4168 18.8178 17.4168 18.8191C17.4168 18.8254 17.4175 18.8314 17.4175 18.8377C17.4178 18.8426 17.4177 18.8476 17.4181 18.8526C17.4464 20.6696 19.7594 22.0882 22.7084 22.0882C25.6575 22.0882 27.9704 20.6696 27.9987 18.8526C27.9991 18.8476 27.999 18.8426 27.9993 18.8376ZM5.29163 9.52001L9.42522 18.3774H1.15804L5.29163 9.52001ZM5.29163 21.2047C3.19145 21.2047 1.37937 20.3516 0.986166 19.2609H9.59715C9.20388 20.3516 7.3918 21.2047 5.29163 21.2047ZM14.9979 17.4055V23.7963H13.0022V17.4055C13.0022 17.3892 13.0158 17.376 13.0324 17.376H14.9676C14.9843 17.376 14.9979 17.3892 14.9979 17.4055ZM13.486 16.4925V3.64161C13.6496 3.68637 13.8219 3.71082 14 3.71082C14.1781 3.71082 14.3504 3.68637 14.5141 3.64161V16.4925H13.486ZM14 0.883527C14.5502 0.883527 14.9979 1.31952 14.9979 1.85541C14.9979 2.3913 14.5502 2.82729 14 2.82729C13.4498 2.82729 13.0022 2.3913 13.0022 1.85541C13.0022 1.31952 13.4498 0.883527 14 0.883527ZM4.80783 6.12579C4.79119 6.12579 4.77759 6.1126 4.77759 6.09634V6.0243C4.77759 6.00981 4.78823 5.99762 4.80287 5.99526L12.5789 4.733V6.12579H4.80783ZM18.8683 26.109V26.388H9.13179V26.109C9.13179 25.8888 9.27675 25.6967 9.49252 25.6311L12.6179 24.6799H15.3822L18.5076 25.6311C18.7233 25.6968 18.8683 25.8888 18.8683 26.109ZM15.4212 4.77517L23.197 5.99733C23.2118 5.99962 23.2225 6.01187 23.2225 6.02642V6.0964C23.2225 6.11266 23.2089 6.12585 23.1922 6.12585H15.4212V4.77517ZM22.7084 9.52001L26.842 18.3774H18.5748L22.7084 9.52001ZM22.7084 21.2047C20.6083 21.2047 18.7962 20.3516 18.403 19.2609H27.014C26.6207 20.3516 24.8086 21.2047 22.7084 21.2047Z" fill="white"/>
</svg>
