<?xml version="1.0" encoding="UTF-8"?>
<!DOCTYPE svg PUBLIC "-//W3C//DTD SVG 1.1//EN" "http://www.w3.org/Graphics/SVG/1.1/DTD/svg11.dtd">
<!-- Creator: CorelDRAW 2017 -->
<svg xmlns="http://www.w3.org/2000/svg" xml:space="preserve" width="16.3336in" height="2.66396in" version="1.1" style="shape-rendering:geometricPrecision; text-rendering:geometricPrecision; image-rendering:optimizeQuality; fill-rule:evenodd; clip-rule:evenodd"
viewBox="0 0 8272.93 1349.29"
 xmlns:xlink="http://www.w3.org/1999/xlink">
 <defs>
  <style type="text/css">
   <![CDATA[
    .fil0 {fill:#070241}
   ]]>
  </style>
 </defs>
 <g id="Layer_x0020_1">
  <metadata id="CorelCorpID_0Corel-Layer"/>
  <path class="fil0" d="M1287.11 1061.81l-188.05 0 0 -537.29 175.03 0 3.45 94.22c21.38,-37.64 46.62,-64.93 75.31,-82.02 28.7,-17.09 64.51,-25.65 107.46,-25.65l14.85 0 0 200.27 -19.54 0 -20.97 0c-58.21,0 -97.48,6.73 -117.43,19.95 -20.15,13.44 -30.11,45.39 -30.11,96.27l0 234.25zm632.74 -400.93c-11.19,-6.3 -21.78,-10.99 -31.96,-13.63 -10.17,-2.86 -20.15,-4.27 -30.12,-4.27 -35.41,0 -65.33,14.85 -89.54,44.57 -24.22,29.5 -36.43,66.96 -36.43,111.93 0,42.13 10.58,77.34 31.94,105.43 21.38,28.08 47.21,42.13 77.96,42.13 12.19,0 24.83,-3.26 37.85,-9.76 13.03,-6.73 26.47,-16.7 40.3,-30.34l0 -246.06zm186.83 -136.36l0 335.81c0,42.13 0.8,77.53 2.44,106.24 1.62,28.49 3.87,52.91 7.12,73.26l-173.2 47.62 -16.68 -51.08c-23.41,17.29 -46.42,30.34 -69,38.67 -22.39,8.35 -46,12.41 -70.63,12.41 -69.39,0 -127.61,-27.67 -174.61,-82.82 -47.22,-55.36 -70.83,-124.15 -70.83,-206.37 0,-86.69 26.47,-158.35 79.37,-214.71 52.91,-56.38 119.86,-84.66 200.66,-84.66 18.52,0 38.06,2.64 58.41,7.73 20.35,5.07 42.74,13.02 67.37,23.81l159.56 -5.9zm329.9 537.29l-186.83 0 0 -537.29 172.58 0 0 89.95c28.5,-35.21 59.02,-61.45 91.18,-78.76 32.14,-17.29 67.16,-25.84 104.8,-25.84 56.99,0 100.14,16.28 129.45,48.85 29.5,32.56 44.16,79.98 44.16,142.66l0 360.43 -185.61 0 0 -307.91c0,-28.31 -5.7,-49.46 -17.3,-63.71 -11.39,-14.45 -28.5,-21.57 -51.29,-21.57 -32.34,0 -57.39,10.98 -74.89,32.76 -17.51,21.98 -26.25,53.73 -26.25,95.45l0 264.98zm489.87 -24.43l0 -147.76c47.22,30.14 84.06,50.68 110.3,61.06 26.05,10.58 50.48,15.88 72.67,15.88 19.54,0 35.2,-4.27 47.01,-12.82 12.02,-8.55 17.92,-19.74 17.92,-33.79 0,-11.8 -4.07,-21.79 -12.42,-29.72 -8.35,-7.93 -22.79,-15.45 -42.94,-22.58l-69.2 -24.62c-45.18,-15.48 -79.57,-37.26 -102.98,-65.34 -23.41,-27.88 -35,-61.05 -35,-99.31 0,-53.94 18.92,-97.48 56.58,-130.26 37.85,-32.76 88.12,-49.24 151,-49.24 28.91,0 59.64,4.06 92,12.19 32.36,8.16 68.57,20.98 108.26,38.07l-23.41 130.45c-23.8,-20.14 -49.85,-36.03 -78.15,-47.41 -28.28,-11.6 -54.74,-17.31 -79.37,-17.31 -18.31,0 -33.17,4.27 -44.78,12.82 -11.6,8.55 -17.29,19.32 -17.29,32.36 0,11.2 3.26,19.95 9.77,26.46 6.52,6.51 21.16,13.63 43.75,21.18l64.51 23.2c50.49,17.91 86.7,39.49 108.28,64.93 21.77,25.44 32.57,58.61 32.57,99.71 0,59.22 -19.54,106.04 -58.42,140.44 -39.07,34.39 -91.99,51.48 -159.15,51.48 -32.77,0 -64.71,-4.06 -96.47,-12.19 -31.55,-8.14 -63.3,-20.76 -95.05,-37.87zm520 283.31l0 -796.17 186.83 0c18.73,-7.13 37.04,-12.42 55.36,-15.68 18.31,-3.46 37.04,-5.09 56.17,-5.09 77.33,0 141.24,26.88 191.52,80.4 50.26,53.71 75.5,122.92 75.5,207.58 0,87.72 -27.07,158.95 -81.4,213.09 -54.15,54.33 -125.17,81.42 -212.48,81.42 -11.61,0 -23.81,-0.61 -37.04,-2.05 -13.02,-1.42 -29.3,-3.45 -48.84,-6.29l0 211.24 -185.62 31.55zm186.83 -382.62c13.03,3.66 24.42,6.1 33.78,7.74 9.56,1.62 18.32,2.43 26.25,2.43 36.23,0 66.34,-14.85 90.57,-44.76 24.22,-29.72 36.23,-67.58 36.23,-113.16 0,-42.54 -10.99,-77.76 -32.97,-105.64 -21.97,-27.88 -49.25,-41.72 -81.81,-41.72 -9.99,0 -20.56,1.01 -31.55,3.26 -11.19,2.24 -24.62,5.89 -40.5,10.99l0 280.85zm834.23 -277.2c-11.19,-6.3 -21.79,-10.99 -31.96,-13.63 -10.18,-2.86 -20.15,-4.27 -30.12,-4.27 -35.41,0 -65.33,14.85 -89.54,44.57 -24.22,29.5 -36.44,66.96 -36.44,111.93 0,42.13 10.59,77.34 31.96,105.43 21.38,28.08 47.21,42.13 77.96,42.13 12.19,0 24.82,-3.26 37.85,-9.76 13.02,-6.73 26.47,-16.7 40.3,-30.34l0 -246.06zm186.83 -136.36l0 335.81c0,42.13 0.8,77.53 2.44,106.24 1.62,28.49 3.86,52.91 7.12,73.26l-173.21 47.62 -16.67 -51.08c-23.41,17.29 -46.42,30.34 -69,38.67 -22.39,8.35 -46,12.41 -70.63,12.41 -69.39,0 -127.61,-27.67 -174.61,-82.82 -47.23,-55.36 -70.83,-124.15 -70.83,-206.37 0,-86.69 26.47,-158.35 79.37,-214.71 52.91,-56.38 119.86,-84.66 200.67,-84.66 18.52,0 38.06,2.64 58.41,7.73 20.35,5.07 42.75,13.02 67.37,23.81l159.56 -5.9zm331.12 537.29l-188.05 0 0 -537.29 175.03 0 3.46 94.22c21.37,-37.64 46.6,-64.93 75.3,-82.02 28.7,-17.09 64.51,-25.65 107.46,-25.65l14.86 0 0 200.27 -19.54 0 -20.98 0c-58.2,0 -97.47,6.73 -117.42,19.95 -20.15,13.44 -30.12,45.39 -30.12,96.27l0 234.25zm431.66 -318.71l232.83 -7.12 0 -8.35c0,-28.28 -9.99,-51.49 -29.72,-69.61 -19.95,-18.11 -44.97,-27.27 -75.09,-27.27 -33.58,0 -61.88,9.76 -84.46,29.52 -22.59,19.74 -37.04,47.42 -43.56,82.82zm356.16 127l-20.75 165.06c-36.63,17.3 -72.66,30.33 -108.07,38.66 -35.41,8.35 -71.03,12.43 -107.26,12.43 -89.54,0 -161.59,-25.65 -216.56,-77.14 -54.74,-51.49 -82.21,-118.65 -82.21,-201.28 0,-86.29 29.91,-159.15 89.95,-218.58 60.05,-59.44 133.11,-89.15 218.99,-89.15 73.47,0 133.71,21.78 180.93,65.33 47.01,43.56 70.63,99.94 70.63,169.12 0,10.58 -0.83,27.69 -2.44,51.29l-0.61 3.46 -16.69 24.21 -366.13 10.19c2.86,36.23 17.91,65.73 45.19,88.33 27.47,22.57 62.07,33.78 103.59,33.78 29.52,0 62.08,-6.32 98.1,-19.15 35.83,-12.61 73.67,-31.54 113.36,-56.58zm319.94 191.72l-186.83 0 0 -537.29 172.58 0 0 89.95c28.5,-35.21 59.02,-61.45 91.18,-78.76 32.14,-17.29 67.16,-25.84 104.81,-25.84 56.98,0 100.13,16.28 129.44,48.85 29.5,32.56 44.16,79.98 44.16,142.66l0 360.43 -185.61 0 0 -307.91c0,-28.31 -5.7,-49.46 -17.3,-63.71 -11.39,-14.45 -28.5,-21.57 -51.29,-21.57 -32.34,0 -57.39,10.98 -74.89,32.76 -17.51,21.98 -26.25,53.73 -26.25,95.45l0 264.98zm961.02 -30.53c-32.98,18.73 -65.54,32.57 -97.49,41.53 -31.96,8.95 -64.93,13.43 -98.7,13.43 -89.55,0 -163.02,-26.88 -220.42,-80.6 -57.6,-53.53 -86.29,-121.51 -86.29,-203.94 0,-85.26 30.94,-157.11 92.81,-214.9 61.87,-57.81 139.41,-86.7 232.83,-86.7 34.17,0 67.76,3.87 100.33,11.59 32.56,7.73 64.1,19.34 94.24,35.01l-20.98 167.09c-29.31,-17.91 -57.59,-31.54 -84.86,-40.91 -27.27,-9.36 -52.51,-14.03 -75.92,-14.03 -42.12,0 -77.13,12.81 -105.01,38.47 -27.88,25.63 -41.72,57.38 -41.72,95.44 0,40.7 12.81,73.27 38.66,97.9 25.85,24.62 59.84,36.84 101.97,36.84 26.25,0 54.34,-5.7 84.05,-16.89 29.93,-11.4 64.51,-29.72 103.81,-55.15l-17.31 175.83zm155.09 30.53l0 -864.55 206.37 0 0 864.55 -206.37 0zm583.69 0l0 -683.82 -274.74 0 0 -180.73 754.64 0 0 180.73 -273.52 0 0 683.82 -206.38 0zm-7793.03 -1061.81l977.54 210.41 0 928.48 -977.54 210.41 0 -1349.29zm231.36 477.67l165.53 0 0 -225.67 -317.18 0 113.24 168.52 33.26 -32.29 2.92 4.14 3.25 4.02 1.69 1.85 8.56 -8.28 -1.26 -1.4 -3.03 -3.8 -2.7 -3.92 -2.38 -4.14 -2.16 -4.25 -1.84 -4.47 -1.51 -4.58 -1.19 -4.8 -0.86 -4.82 -0.54 -4.92 -0.32 -5.03 0.32 -5.03 0.54 -4.92 0.86 -4.82 1.19 -4.81 1.51 -4.59 1.84 -4.47 2.16 -4.25 2.38 -4.13 2.7 -3.92 3.03 -3.8 3.13 -3.47 3.47 -3.35 3.67 -3.13 3.89 -2.8 4.01 -2.68 4.22 -2.35 4.44 -2.13 4.53 -1.79 4.77 -1.45 4.86 -1.23 4.97 -0.79 5.09 -0.55 5.19 -0.22 5.19 0.22 5.09 0.55 4.97 0.79 4.88 1.23 4.76 1.45 4.54 1.79 4.43 2.13 4.23 2.35 4.11 2.68 3.79 2.8 3.68 3.13 3.46 3.35 3.25 3.47 2.92 3.8 2.7 3.92 2.38 4.13 2.16 4.25 1.84 4.47 1.51 4.59 1.3 4.81 0.87 4.82 0.53 4.92 0.22 5.03 -0.22 5.03 -0.53 4.92 -0.87 4.82 -1.3 4.8 -1.51 4.58 -1.84 4.47 -2.16 4.25 -2.38 4.14 -2.7 3.92 -2.92 3.8 -3.25 3.47 -3.46 3.35 -3.68 3.13 -3.79 2.8 -4.11 2.68 -4.23 2.35 -4.43 2.12 -4.54 1.79 -4.76 1.45 -4.88 1.23 -4.97 0.79 -5.09 0.55 -5.19 0.22 -5.19 -0.22 -5.09 -0.55 -4.97 -0.79 -4.86 -1.23 -4.77 -1.45 -4.53 -1.79 -4.44 -2.12 -4.22 -2.35 -4.01 -2.68 -3.89 -2.8 -1.46 -1.24 -8.49 8.3 1.84 1.55 4.11 3.14 4.23 2.9 -38.59 37.56 18.1 26.93zm66.25 -186.74l4.44 0.12 4.44 0.55 4.22 0.79 4.11 1.23 4 1.34 3.79 1.78 3.79 2.02 3.46 2.35 3.25 2.45 3.03 2.8 2.92 3.02 2.6 3.25 2.38 3.35 2.05 3.58 1.83 3.7 1.42 3.8 1.3 4.03 0.86 4.25 0.54 4.14 0.21 4.36 -0.21 4.36 -0.54 4.26 -0.86 4.13 -1.3 4.02 -1.42 3.8 -1.83 3.7 -2.05 3.58 -2.38 3.35 -2.6 3.25 -2.92 2.91 -3.03 2.92 -3.25 2.45 -3.46 2.35 -3.79 1.9 -3.79 1.79 -4 1.45 -4.11 1.23 -4.22 0.78 -4.44 0.57 -4.44 0.11 -4.44 -0.11 -4.32 -0.57 -4.33 -0.78 -4.11 -1.23 -4 -1.45 -3.79 -1.79 -3.68 -1.9 -3.46 -2.35 -3.35 -2.45 -3.02 -2.92 -2.82 -2.91 -2.7 -3.25 -2.27 -3.35 -2.16 -3.58 -1.73 -3.7 -1.51 -3.8 -1.19 -4.02 -0.86 -4.13 -0.54 -4.26 -0.22 -4.36 0.22 -4.36 0.54 -4.14 0.86 -4.25 1.19 -4.03 1.51 -3.8 1.73 -3.7 2.16 -3.58 2.27 -3.35 2.7 -3.25 2.82 -3.02 3.02 -2.8 3.35 -2.45 3.46 -2.35 3.68 -2.02 3.79 -1.78 4 -1.34 4.11 -1.23 4.33 -0.79 4.32 -0.55 4.44 -0.12zm0 11.75l0 11.75 3.35 0.23 3.14 0.45 3.14 0.78 2.92 1.12 2.7 1.45 2.72 1.68 2.37 1.9 2.16 2.12 1.95 2.35 1.73 2.47 1.4 2.68 1.19 2.91 0.86 2.92 0.54 3.23 0.21 3.26 12.02 0 -0.11 -3.81 -0.54 -3.68 -0.87 -3.59 -1.07 -3.35 -1.4 -3.35 -1.73 -3.13 -1.95 -2.92 -2.28 -2.8 -2.48 -2.57 -2.6 -2.45 -2.93 -2.13 -3.02 -1.9 -3.25 -1.68 -3.35 -1.45 -3.47 -1.01 -3.67 -0.89 -3.79 -0.45 -3.89 -0.12zm369.52 854.85l0 -679.86 225.9 0 0 -225.67 -451.57 0 0 905.53 225.67 0z"/>
 </g>
</svg>
