<svg
        width="289"

        height="204"
        viewBox="0 0 289 204"
        fill="none"
        xmlns="http://www.w3.org/2000/svg"
>
    <circle cx="144.173" cy="89.4523" r="20.2391" fill="#DBDFF1" />
    <path
            d="M103.004 148.72H96.574L87.3029 154.676V160.869L96.0275 155.295H96.2461V186.023H103.004V148.72ZM113.841 186.023H120.854L136.7 154.494V148.72H111.291V154.366H129.706V154.621L113.841 186.023ZM144.947 186.023H151.959L167.806 154.494V148.72H142.397V154.366H160.811V154.621L144.947 186.023ZM186.671 186.733C195.669 186.751 201.042 179.648 201.042 167.408C201.042 155.241 195.632 148.21 186.671 148.21C177.71 148.21 172.318 155.222 172.3 167.408C172.3 179.63 177.673 186.733 186.671 186.733ZM186.671 181.032C182.026 181.032 179.112 176.369 179.13 167.408C179.148 158.519 182.045 153.838 186.671 153.838C191.316 153.838 194.212 158.519 194.23 167.408C194.23 176.369 191.334 181.032 186.671 181.032Z"
            fill="#070241"
    />
    <path
            d="M144.412 82.7059C148.454 82.7059 151.816 85.6143 152.522 89.4522C151.817 93.2902 148.454 96.1986 144.412 96.1986C140.37 96.1986 137.007 93.2902 136.302 89.4522C137.007 85.6143 140.37 82.7059 144.412 82.7059ZM144.412 94.6994C145.941 94.6991 147.424 94.1798 148.619 93.2266C149.814 92.2734 150.651 90.9426 150.991 89.4522C150.649 87.963 149.813 86.6338 148.618 85.6818C147.422 84.7298 145.94 84.2115 144.412 84.2115C142.884 84.2115 141.401 84.7298 140.206 85.6818C139.011 86.6338 138.174 87.963 137.833 89.4522C138.173 90.9426 139.009 92.2734 140.205 93.2266C141.4 94.1798 142.883 94.6991 144.412 94.6994ZM144.412 92.8254C143.517 92.8254 142.659 92.47 142.027 91.8374C141.394 91.2048 141.039 90.3469 141.039 89.4522C141.039 88.5576 141.394 87.6996 142.027 87.067C142.659 86.4345 143.517 86.0791 144.412 86.0791C145.306 86.0791 146.164 86.4345 146.797 87.067C147.43 87.6996 147.785 88.5576 147.785 89.4522C147.785 90.3469 147.43 91.2048 146.797 91.8374C146.164 92.47 145.306 92.8254 144.412 92.8254ZM144.412 91.3262C144.909 91.3262 145.386 91.1288 145.737 90.7774C146.088 90.4259 146.286 89.9493 146.286 89.4522C146.286 88.9552 146.088 88.4786 145.737 88.1271C145.386 87.7757 144.909 87.5783 144.412 87.5783C143.915 87.5783 143.438 87.7757 143.087 88.1271C142.735 88.4786 142.538 88.9552 142.538 89.4522C142.538 89.9493 142.735 90.4259 143.087 90.7774C143.438 91.1288 143.915 91.3262 144.412 91.3262Z"
            fill="#383874"
    />
    <path
            d="M288.095 144.922C288.095 65.4362 223.827 1 144.547 1C65.2684 1 1 65.4362 1 144.922"
            stroke="#DBDFF1"
            stroke-width="0.749595"
    />
    <path
            d="M36.9392 197.769C28.8138 181.657 24.2375 163.449 24.2375 144.173C24.2375 78.3483 77.5988 24.9871 143.423 24.9871C209.248 24.9871 262.609 78.3483 262.609 144.173C262.609 163.449 258.033 181.657 249.907 197.769"
            stroke="#DBDFF1"
            stroke-width="10.4943"
            stroke-linecap="round"
    />
    <path
            d="M36.9392 197.769C28.8138 181.657 24.2375 163.449 24.2375 144.173C24.2375 78.3483 77.5988 24.9871 143.423 24.9871C188.613 24.9871 227.929 50.137 248.138 87.2035"
            stroke="#8676FF"
            stroke-width="10.4943"
            stroke-linecap="round"
    />
</svg>