<svg width="570" height="298" viewBox="0 0 570 298" fill="none" xmlns="http://www.w3.org/2000/svg">
    <rect x="301.052" y="0.383034" width="272.105" height="79.6053" rx="11.5789" fill="white"/>
    <path d="M394.267 49.3304H400.323C404.284 49.3304 405.921 47.399 405.921 44.8784C405.921 42.2268 404.087 40.7865 402.549 40.6883V40.5246C403.989 40.1318 405.266 39.1825 405.266 37.0219C405.266 34.5668 403.629 32.57 400.126 32.57H394.267V49.3304ZM396.296 47.53V41.7031H400.421C402.614 41.7031 403.989 43.1762 403.989 44.8784C403.989 46.3515 402.974 47.53 400.323 47.53H396.296ZM396.296 39.9354V34.3704H400.126C402.352 34.3704 403.335 35.5489 403.335 37.0219C403.335 38.7896 401.894 39.9354 400.061 39.9354H396.296ZM408.994 49.3304H410.925V41.3757C410.925 39.6735 412.267 38.4296 414.1 38.4296C414.616 38.4296 415.148 38.5278 415.279 38.5605V36.5964C415.058 36.58 414.55 36.5637 414.264 36.5637C412.758 36.5637 411.449 37.4148 410.99 38.6587H410.86V36.7601H408.994V49.3304ZM417.568 49.3304H419.5V36.7601H417.568V49.3304ZM418.55 34.665C419.303 34.665 419.925 34.0758 419.925 33.3556C419.925 32.6354 419.303 32.0462 418.55 32.0462C417.797 32.0462 417.175 32.6354 417.175 33.3556C417.175 34.0758 417.797 34.665 418.55 34.665ZM423.299 49.3304H425.165V47.399H425.394C425.82 48.0864 426.638 49.5923 429.06 49.5923C432.203 49.5923 434.396 47.0717 434.396 43.078C434.396 39.117 432.203 36.5964 429.028 36.5964C426.572 36.5964 425.82 38.1022 425.394 38.7569H425.23V32.57H423.299V49.3304ZM425.198 43.0452C425.198 40.23 426.442 38.3314 428.798 38.3314C431.254 38.3314 432.465 40.3937 432.465 43.0452C432.465 45.7295 431.221 47.8573 428.798 47.8573C426.474 47.8573 425.198 45.8932 425.198 43.0452ZM442.621 49.5923C445.174 49.5923 447.04 48.3156 447.629 46.417L445.763 45.8932C445.272 47.2026 444.135 47.8573 442.621 47.8573C440.354 47.8573 438.791 46.3924 438.701 43.6999H447.826V42.8815C447.826 38.2004 445.043 36.5964 442.424 36.5964C439.02 36.5964 436.761 39.2807 436.761 43.1434C436.761 47.0062 438.987 49.5923 442.621 49.5923ZM438.701 42.0304C438.832 40.0745 440.215 38.3314 442.424 38.3314C444.52 38.3314 445.862 39.9026 445.862 42.0304H438.701ZM450.764 49.3304H452.695V41.3757C452.695 39.6735 454.037 38.4296 455.87 38.4296C456.386 38.4296 456.918 38.5278 457.049 38.5605V36.5964C456.828 36.58 456.321 36.5637 456.034 36.5637C454.528 36.5637 453.219 37.4148 452.761 38.6587H452.63V36.7601H450.764V49.3304ZM460.965 54.0115C462.708 54.0115 463.944 53.0868 464.664 51.1636L470.016 36.7928L467.905 36.7601L464.435 46.777H464.304L460.834 36.7601H458.739L463.387 49.3959L463.027 50.3779C462.34 52.2602 461.456 52.4402 460.048 52.0801L459.557 53.7824C459.754 53.8806 460.31 54.0115 460.965 54.0115Z" fill="#222B45"/>
    <rect x="315.527" y="10.5146" width="59.3421" height="59.3421" rx="11.5789" fill="#FFD1B8"/>
    <path fill-rule="evenodd" clip-rule="evenodd" d="M344.474 29.3304L343.751 27.883L343.027 29.3304L341.579 29.5113L342.787 30.536L342.303 32.2251L343.751 31.2612L345.198 32.2251L344.714 30.536L345.922 29.5113L344.474 29.3304ZM356.536 44.768L355.329 42.3567L354.122 44.768L351.71 45.0705L353.721 46.7799L352.917 49.5936L355.329 47.9855L357.74 49.5936L356.937 46.7799L358.947 45.0705L356.536 44.768ZM338.202 32.7071L337.236 30.7778L336.271 32.7071L334.342 32.9488L335.95 34.3151L335.307 36.5672L337.236 35.2805L339.166 36.5672L338.523 34.3151L340.131 32.9488L338.202 32.7071ZM333.494 48.1462C333.494 48.9191 333.795 49.6457 334.342 50.1928L336.638 52.4883C337.185 53.0354 337.912 53.3364 338.684 53.3364C339.457 53.3364 340.184 53.0354 340.731 52.4883L357.5 35.7191C358.047 35.172 358.348 34.4454 358.348 33.6725C358.348 32.8996 358.047 32.173 357.5 31.6259L355.205 29.3304C354.11 28.2362 352.206 28.2362 351.112 29.3304L334.342 46.0996C333.795 46.6467 333.494 47.3733 333.494 48.1462ZM353.158 31.377L355.453 33.6725L350.263 38.8628L347.968 36.5672L353.158 31.377Z" fill="white"/>
    <rect x="416.842" y="217.488" width="272.105" height="79.6053" rx="11.5789" fill="white"/>
    <path d="M519.222 253.865H521.186C521.096 251.337 518.764 249.446 515.523 249.446C512.315 249.446 509.794 251.312 509.794 254.127C509.794 256.386 511.431 257.728 514.05 258.481L516.112 259.07C517.88 259.561 519.451 260.183 519.451 261.853C519.451 263.686 517.683 264.897 515.359 264.897C513.362 264.897 511.595 264.013 511.431 262.115H509.336C509.532 264.864 511.758 266.73 515.359 266.73C519.222 266.73 521.415 264.602 521.415 261.885C521.415 258.743 518.436 257.728 516.701 257.27L514.999 256.812C513.755 256.484 511.758 255.829 511.758 254.029C511.758 252.425 513.231 251.247 515.457 251.247C517.487 251.247 519.025 252.212 519.222 253.865ZM529.597 266.698C532.379 266.698 534.212 264.995 534.54 262.769H532.608C532.248 264.144 531.103 264.963 529.597 264.963C527.305 264.963 525.832 263.064 525.832 260.151C525.832 257.303 527.338 255.437 529.597 255.437C531.299 255.437 532.314 256.484 532.608 257.63H534.54C534.212 255.273 532.216 253.702 529.564 253.702C526.16 253.702 523.901 256.386 523.901 260.216C523.901 263.981 526.061 266.698 529.597 266.698ZM541.062 266.73C543.256 266.73 544.401 265.552 544.794 264.733H544.892V266.436H546.824V258.154C546.824 254.16 543.779 253.702 542.175 253.702C540.277 253.702 538.116 254.356 537.134 256.648L538.967 257.303C539.393 256.386 540.399 255.404 542.241 255.404C544.017 255.404 544.892 256.345 544.892 257.957V258.023C544.892 258.956 543.943 258.874 541.652 259.168C539.319 259.471 536.774 259.987 536.774 262.868C536.774 265.323 538.673 266.73 541.062 266.73ZM541.357 264.995C539.818 264.995 538.705 264.308 538.705 262.966C538.705 261.493 540.048 261.034 541.553 260.838C542.372 260.74 544.565 260.511 544.892 260.118V261.885C544.892 263.457 543.648 264.995 541.357 264.995ZM550.349 266.436H552.28V258.579C552.28 256.738 553.622 255.437 555.128 255.437C556.593 255.437 557.616 256.394 557.616 257.826V266.436H559.58V258.252C559.58 256.631 560.595 255.437 562.363 255.437C563.738 255.437 564.916 256.165 564.916 258.023V266.436H566.847V258.023C566.847 255.068 565.26 253.702 563.017 253.702C561.217 253.702 559.899 254.528 559.253 255.829H559.122C558.5 254.487 557.403 253.702 555.75 253.702C554.113 253.702 552.902 254.487 552.378 255.829H552.215V253.865H550.349V266.436Z" fill="#222B45"/>
    <rect x="431.316" y="227.62" width="59.3421" height="59.3421" rx="11.5789" fill="#FFD1B8"/>
    <path fill-rule="evenodd" clip-rule="evenodd" d="M454.474 268.146C453.677 268.146 453.027 267.496 453.027 266.699C453.027 265.901 453.677 265.251 454.474 265.251H470.395V268.146H454.474ZM471.842 244.988H454.474C452.08 244.988 450.132 246.936 450.132 249.33V266.699C450.132 269.093 452.08 271.041 454.474 271.041H470.395H471.842C472.641 271.041 473.29 270.393 473.29 269.594V268.146V265.251V246.436C473.29 245.637 472.641 244.988 471.842 244.988Z" fill="white"/>
    <mask id="mask0" mask-type="alpha" maskUnits="userSpaceOnUse" x="450" y="244" width="24" height="28">
        <path fill-rule="evenodd" clip-rule="evenodd" d="M454.474 268.146C453.677 268.146 453.027 267.496 453.027 266.699C453.027 265.901 453.677 265.251 454.474 265.251H470.395V268.146H454.474ZM471.842 244.988H454.474C452.08 244.988 450.132 246.936 450.132 249.33V266.699C450.132 269.093 452.08 271.041 454.474 271.041H470.395H471.842C472.641 271.041 473.29 270.393 473.29 269.594V268.146V265.251V246.436C473.29 245.637 472.641 244.988 471.842 244.988Z" fill="white"/>
    </mask>
    <g mask="url(#mask0)">
    </g>
    <rect y="0.383041" width="272.105" height="79.6053" rx="11.5789" fill="white"/>
    <path d="M93.2137 49.3304H95.2432V41.834H102.51V40.0336H95.2432V34.3704H103.263V32.57H93.2137V49.3304ZM106.343 49.3304H108.274V41.3757C108.274 39.6735 109.616 38.4296 111.449 38.4296C111.965 38.4296 112.497 38.5278 112.628 38.5605V36.5964C112.407 36.58 111.899 36.5637 111.613 36.5637C110.107 36.5637 108.798 37.4148 108.339 38.6587H108.208V36.7601H106.343V49.3304ZM118.616 49.625C120.809 49.625 121.955 48.4465 122.348 47.6282H122.446V49.3304H124.378V41.0484C124.378 37.0547 121.333 36.5964 119.729 36.5964C117.831 36.5964 115.67 37.2511 114.688 39.5426L116.521 40.1973C116.947 39.2807 117.953 38.2986 119.795 38.2986C121.571 38.2986 122.446 39.2398 122.446 40.852V40.9174C122.446 41.8504 121.497 41.7686 119.205 42.0632C116.873 42.366 114.328 42.8816 114.328 45.7623C114.328 48.2174 116.227 49.625 118.616 49.625ZM118.911 47.89C117.372 47.89 116.259 47.2026 116.259 45.8605C116.259 44.3874 117.601 43.9291 119.107 43.7327C119.926 43.6345 122.119 43.4053 122.446 43.0125V44.7802C122.446 46.3515 121.202 47.89 118.911 47.89ZM135.825 44.191C135.825 46.5479 134.024 47.6282 132.584 47.6282C130.98 47.6282 129.834 46.4497 129.834 44.6165V36.7601H127.903V44.7475C127.903 47.9555 129.605 49.4941 131.962 49.4941C133.861 49.4941 135.105 48.4793 135.694 47.2026H135.825V49.3304H137.756V36.7601H135.825V44.191ZM146.04 49.5923C148.463 49.5923 149.281 48.0865 149.706 47.399H149.936V49.3304H151.802V32.57H149.87V38.7569H149.706C149.281 38.1022 148.528 36.5964 146.073 36.5964C142.898 36.5964 140.704 39.117 140.704 43.078C140.704 47.0717 142.898 49.5923 146.04 49.5923ZM146.302 47.8573C143.88 47.8573 142.636 45.7295 142.636 43.0452C142.636 40.3937 143.847 38.3314 146.302 38.3314C148.659 38.3314 149.903 40.23 149.903 43.0452C149.903 45.8932 148.626 47.8573 146.302 47.8573Z" fill="#222B45"/>
    <rect x="14.4736" y="10.5146" width="59.3421" height="59.3421" rx="11.5789" fill="#FFD1B8"/>
    <path fill-rule="evenodd" clip-rule="evenodd" d="M46.3158 42.3567C46.3158 43.1557 45.6674 43.8041 44.8684 43.8041C44.0695 43.8041 43.4211 43.1557 43.4211 42.3567V35.1199C43.4211 34.3209 44.0695 33.6725 44.8684 33.6725C45.6674 33.6725 46.3158 34.3209 46.3158 35.1199V42.3567ZM44.8684 48.1462C44.0695 48.1462 43.4211 47.4978 43.4211 46.6988C43.4211 45.8999 44.0695 45.2515 44.8684 45.2515C45.6674 45.2515 46.3158 45.8999 46.3158 46.6988C46.3158 47.4978 45.6674 48.1462 44.8684 48.1462ZM44.8687 26.4357C36.8749 26.4357 30.395 32.9155 30.395 40.9094C30.395 48.9032 36.8749 55.383 44.8687 55.383C52.8625 55.383 59.3424 48.9032 59.3424 40.9094C59.3424 32.9155 52.8625 26.4357 44.8687 26.4357Z" fill="white"/>
    <mask id="mask1" mask-type="alpha" maskUnits="userSpaceOnUse" x="30" y="26" width="30" height="30">
        <path fill-rule="evenodd" clip-rule="evenodd" d="M46.3158 42.3567C46.3158 43.1557 45.6674 43.8041 44.8684 43.8041C44.0695 43.8041 43.4211 43.1557 43.4211 42.3567V35.1199C43.4211 34.3209 44.0695 33.6725 44.8684 33.6725C45.6674 33.6725 46.3158 34.3209 46.3158 35.1199V42.3567ZM44.8684 48.1462C44.0695 48.1462 43.4211 47.4978 43.4211 46.6988C43.4211 45.8999 44.0695 45.2515 44.8684 45.2515C45.6674 45.2515 46.3158 45.8999 46.3158 46.6988C46.3158 47.4978 45.6674 48.1462 44.8684 48.1462ZM44.8687 26.4357C36.8749 26.4357 30.395 32.9155 30.395 40.9094C30.395 48.9032 36.8749 55.383 44.8687 55.383C52.8625 55.383 59.3424 48.9032 59.3424 40.9094C59.3424 32.9155 52.8625 26.4357 44.8687 26.4357Z" fill="white"/>
    </mask>
    <g mask="url(#mask1)">
    </g>
    <rect x="54.9985" y="217.271" width="347.46" height="79.4444" rx="11.5789" fill="white"/>
    <path d="M147.892 249.675V266.436H149.791V253.702H149.954L155.192 266.436H157.025L162.263 253.702H162.426V266.436H164.325V249.675H161.903L156.207 263.588H156.01L150.314 249.675H147.892ZM173.239 266.698C176.644 266.698 178.935 264.111 178.935 260.216C178.935 256.288 176.644 253.702 173.239 253.702C169.835 253.702 167.543 256.288 167.543 260.216C167.543 264.111 169.835 266.698 173.239 266.698ZM173.239 264.963C170.653 264.963 169.475 262.737 169.475 260.216C169.475 257.695 170.653 255.437 173.239 255.437C175.825 255.437 177.004 257.695 177.004 260.216C177.004 262.737 175.825 264.963 173.239 264.963ZM183.815 258.874C183.815 256.681 185.173 255.437 187.023 255.437C188.815 255.437 189.903 256.607 189.903 258.579V266.436H191.835V258.448C191.835 255.24 190.124 253.702 187.579 253.702C185.681 253.702 184.502 254.553 183.913 255.829H183.749V253.865H181.883V266.436H183.815V258.874ZM200.634 266.698C203.188 266.698 205.054 265.421 205.643 263.522L203.777 262.998C203.286 264.308 202.148 264.963 200.634 264.963C198.368 264.963 196.804 263.498 196.714 260.805H205.839V259.987C205.839 255.306 203.057 253.702 200.438 253.702C197.034 253.702 194.775 256.386 194.775 260.249C194.775 264.111 197.001 266.698 200.634 266.698ZM196.714 259.136C196.845 257.18 198.228 255.437 200.438 255.437C202.533 255.437 203.875 257.008 203.875 259.136H196.714ZM210.021 271.117C211.764 271.117 213 270.192 213.72 268.269L219.073 253.898L216.961 253.865L213.491 263.882H213.36L209.89 253.865H207.795L212.444 266.501L212.084 267.483C211.396 269.365 210.512 269.546 209.105 269.185L208.614 270.888C208.81 270.986 209.367 271.117 210.021 271.117ZM230.041 249.675H228.11V266.436H230.041V249.675ZM237.277 266.73C239.471 266.73 240.616 265.552 241.009 264.733H241.107V266.436H243.039V258.154C243.039 254.16 239.994 253.702 238.39 253.702C236.492 253.702 234.331 254.356 233.349 256.648L235.182 257.303C235.608 256.386 236.615 255.404 238.456 255.404C240.232 255.404 241.107 256.345 241.107 257.957V258.023C241.107 258.956 240.158 258.874 237.867 259.168C235.534 259.471 232.989 259.987 232.989 262.868C232.989 265.323 234.888 266.73 237.277 266.73ZM237.572 264.995C236.033 264.995 234.92 264.308 234.92 262.966C234.92 261.493 236.263 261.034 237.768 260.838C238.587 260.74 240.78 260.511 241.107 260.118V261.885C241.107 263.457 239.864 264.995 237.572 264.995ZM254.486 261.296C254.486 263.653 252.685 264.733 251.245 264.733C249.641 264.733 248.495 263.555 248.495 261.722V253.865H246.564V261.853C246.564 265.061 248.266 266.599 250.623 266.599C252.522 266.599 253.766 265.585 254.355 264.308H254.486V266.436H256.417V253.865H254.486V261.296ZM261.886 258.874C261.886 256.681 263.245 255.437 265.094 255.437C266.886 255.437 267.975 256.607 267.975 258.579V266.436H269.906V258.448C269.906 255.24 268.196 253.702 265.651 253.702C263.752 253.702 262.574 254.553 261.984 255.829H261.821V253.865H259.955V266.436H261.886V258.874ZM278.182 266.698C280.605 266.698 281.423 265.192 281.848 264.504H282.078V266.436H283.944V249.675H282.012V255.862H281.848C281.423 255.207 280.67 253.702 278.215 253.702C275.04 253.702 272.846 256.222 272.846 260.183C272.846 264.177 275.04 266.698 278.182 266.698ZM278.444 264.963C276.022 264.963 274.778 262.835 274.778 260.151C274.778 257.499 275.989 255.437 278.444 255.437C280.801 255.437 282.045 257.335 282.045 260.151C282.045 262.998 280.768 264.963 278.444 264.963ZM293.019 266.698C295.573 266.698 297.439 265.421 298.028 263.522L296.162 262.998C295.671 264.308 294.533 264.963 293.019 264.963C290.752 264.963 289.189 263.498 289.099 260.805H298.224V259.987C298.224 255.306 295.442 253.702 292.823 253.702C289.418 253.702 287.16 256.386 287.16 260.249C287.16 264.111 289.386 266.698 293.019 266.698ZM289.099 259.136C289.23 257.18 290.613 255.437 292.823 255.437C294.918 255.437 296.26 257.008 296.26 259.136H289.099ZM301.162 266.436H303.094V258.481C303.094 256.779 304.436 255.535 306.269 255.535C306.785 255.535 307.316 255.633 307.447 255.666V253.702C307.226 253.685 306.719 253.669 306.433 253.669C304.927 253.669 303.617 254.52 303.159 255.764H303.028V253.865H301.162V266.436ZM309.737 266.436H311.668V253.865H309.737V266.436ZM310.719 251.77C311.472 251.77 312.094 251.181 312.094 250.461C312.094 249.741 311.472 249.151 310.719 249.151C309.966 249.151 309.344 249.741 309.344 250.461C309.344 251.181 309.966 251.77 310.719 251.77ZM317.137 258.874C317.137 256.681 318.496 255.437 320.345 255.437C322.137 255.437 323.226 256.607 323.226 258.579V266.436H325.157V258.448C325.157 255.24 323.447 253.702 320.902 253.702C319.003 253.702 317.824 254.553 317.235 255.829H317.072V253.865H315.206V266.436H317.137V258.874ZM333.76 271.411C336.772 271.411 339.194 270.037 339.194 266.796V253.865H337.329V255.862H337.132C336.707 255.207 335.921 253.702 333.466 253.702C330.29 253.702 328.097 256.222 328.097 260.085C328.097 264.013 330.389 266.239 333.433 266.239C335.888 266.239 336.674 264.799 337.099 264.111H337.263V266.665C337.263 268.76 335.79 269.709 333.76 269.709C331.477 269.709 330.675 268.506 330.16 267.811L328.621 268.891C329.407 270.208 330.953 271.411 333.76 271.411ZM333.695 264.504C331.272 264.504 330.029 262.671 330.029 260.052C330.029 257.499 331.24 255.437 333.695 255.437C336.052 255.437 337.296 257.335 337.296 260.052C337.296 262.835 336.019 264.504 333.695 264.504Z" fill="#222B45"/>
    <rect x="69.1509" y="227.62" width="59.3421" height="59.3421" rx="11.5789" fill="#FFD1B8"/>
    <path fill-rule="evenodd" clip-rule="evenodd" d="M100.994 259.462C100.994 260.261 100.346 260.909 99.5467 260.909C98.7477 260.909 98.0993 260.261 98.0993 259.462V252.225C98.0993 251.426 98.7477 250.778 99.5467 250.778C100.346 250.778 100.994 251.426 100.994 252.225V259.462ZM99.5467 265.251C98.7477 265.251 98.0993 264.603 98.0993 263.804C98.0993 263.005 98.7477 262.357 99.5467 262.357C100.346 262.357 100.994 263.005 100.994 263.804C100.994 264.603 100.346 265.251 99.5467 265.251ZM99.5455 243.541C91.5516 243.541 85.0718 250.021 85.0718 258.015C85.0718 266.008 91.5516 272.488 99.5455 272.488C107.539 272.488 114.019 266.008 114.019 258.015C114.019 250.021 107.539 243.541 99.5455 243.541Z" fill="white"/>
    <mask id="mask2" mask-type="alpha" maskUnits="userSpaceOnUse" x="85" y="243" width="30" height="30">
        <path fill-rule="evenodd" clip-rule="evenodd" d="M100.994 259.462C100.994 260.261 100.346 260.909 99.5467 260.909C98.7477 260.909 98.0993 260.261 98.0993 259.462V252.225C98.0993 251.426 98.7477 250.778 99.5467 250.778C100.346 250.778 100.994 251.426 100.994 252.225V259.462ZM99.5467 265.251C98.7477 265.251 98.0993 264.603 98.0993 263.804C98.0993 263.005 98.7477 262.357 99.5467 262.357C100.346 262.357 100.994 263.005 100.994 263.804C100.994 264.603 100.346 265.251 99.5467 265.251ZM99.5455 243.541C91.5516 243.541 85.0718 250.021 85.0718 258.015C85.0718 266.008 91.5516 272.488 99.5455 272.488C107.539 272.488 114.019 266.008 114.019 258.015C114.019 250.021 107.539 243.541 99.5455 243.541Z" fill="white"/>
    </mask>
    <g mask="url(#mask2)">
    </g>
    <rect x="231.579" y="108.936" width="272.105" height="79.6053" rx="11.5789" fill="white"/>
    <path d="M333.959 145.313H335.923C335.833 142.784 333.501 140.893 330.26 140.893C327.052 140.893 324.531 142.759 324.531 145.575C324.531 147.833 326.168 149.175 328.787 149.928L330.849 150.518C332.617 151.009 334.188 151.631 334.188 153.3C334.188 155.133 332.421 156.344 330.096 156.344C328.1 156.344 326.332 155.461 326.168 153.562H324.073C324.269 156.312 326.495 158.178 330.096 158.178C333.959 158.178 336.152 156.05 336.152 153.333C336.152 150.19 333.173 149.175 331.439 148.717L329.736 148.259C328.492 147.932 326.495 147.277 326.495 145.476C326.495 143.872 327.969 142.694 330.195 142.694C332.224 142.694 333.763 143.66 333.959 145.313ZM344.694 145.313H342.01V142.301H340.079V145.313H338.18V146.949H340.079V154.806C340.079 156.999 341.846 158.047 343.483 158.047C344.203 158.047 344.661 157.916 344.923 157.818L344.531 156.083C344.367 156.115 344.105 156.181 343.679 156.181C342.828 156.181 342.01 155.919 342.01 154.282V146.949H344.694V145.313ZM352.735 158.145C355.288 158.145 357.154 156.868 357.743 154.97L355.877 154.446C355.386 155.755 354.249 156.41 352.735 156.41C350.468 156.41 348.905 154.945 348.815 152.253H357.94V151.434C357.94 146.753 355.157 145.149 352.538 145.149C349.134 145.149 346.875 147.833 346.875 151.696C346.875 155.559 349.101 158.145 352.735 158.145ZM348.815 150.583C348.946 148.627 350.329 146.884 352.538 146.884C354.633 146.884 355.976 148.455 355.976 150.583H348.815ZM364.577 158.178C366.77 158.178 367.916 156.999 368.309 156.181H368.407V157.883H370.338V149.601C370.338 145.607 367.294 145.149 365.69 145.149C363.791 145.149 361.631 145.804 360.649 148.095L362.482 148.75C362.907 147.833 363.914 146.851 365.755 146.851C367.531 146.851 368.407 147.792 368.407 149.405V149.47C368.407 150.403 367.457 150.321 365.166 150.616C362.834 150.919 360.288 151.434 360.288 154.315C360.288 156.77 362.187 158.178 364.577 158.178ZM364.871 156.443C363.333 156.443 362.22 155.755 362.22 154.413C362.22 152.94 363.562 152.482 365.068 152.285C365.886 152.187 368.079 151.958 368.407 151.565V153.333C368.407 154.904 367.163 156.443 364.871 156.443ZM375.795 141.123H373.863V157.883H375.795V141.123ZM379.332 157.883H381.264V145.313H379.332V157.883ZM380.314 143.218C381.067 143.218 381.689 142.628 381.689 141.908C381.689 141.188 381.067 140.599 380.314 140.599C379.561 140.599 378.939 141.188 378.939 141.908C378.939 142.628 379.561 143.218 380.314 143.218ZM386.732 150.321C386.732 148.128 388.091 146.884 389.94 146.884C391.733 146.884 392.821 148.054 392.821 150.027V157.883H394.752V149.896C394.752 146.688 393.042 145.149 390.497 145.149C388.598 145.149 387.42 146 386.831 147.277H386.667V145.313H384.801V157.883H386.732V150.321ZM403.356 162.859C406.367 162.859 408.79 161.484 408.79 158.243V145.313H406.924V147.31H406.727C406.302 146.655 405.516 145.149 403.061 145.149C399.886 145.149 397.693 147.67 397.693 151.532C397.693 155.461 399.984 157.687 403.028 157.687C405.484 157.687 406.269 156.246 406.695 155.559H406.858V158.112C406.858 160.207 405.385 161.157 403.356 161.157C401.072 161.157 400.27 159.954 399.755 159.258L398.216 160.338C399.002 161.656 400.549 162.859 403.356 162.859ZM403.29 155.952C400.868 155.952 399.624 154.118 399.624 151.5C399.624 148.946 400.835 146.884 403.29 146.884C405.647 146.884 406.891 148.783 406.891 151.5C406.891 154.282 405.614 155.952 403.29 155.952Z" fill="#222B45"/>
    <rect x="245.82" y="119.452" width="59.3421" height="59.3421" rx="11.5789" fill="#FFD1B8"/>
    <path fill-rule="evenodd" clip-rule="evenodd" d="M290.951 149.219C290.951 153.549 289.275 157.32 286.481 160.113C283.688 162.907 279.777 164.583 275.587 164.583C271.257 164.583 267.486 162.907 264.693 160.113C261.899 157.32 260.223 153.409 260.223 149.219C260.223 145.029 261.899 141.118 264.693 138.325C267.486 135.531 271.397 133.855 275.587 133.855C279.777 133.855 283.688 135.531 286.481 138.325C289.275 141.118 290.951 145.029 290.951 149.219ZM281.313 152.99L285.364 157.041C287.18 154.946 288.157 152.152 288.157 149.219C288.157 146.286 287.04 143.493 285.364 141.398L281.453 145.308C282.151 146.426 282.57 147.822 282.57 149.219C282.57 150.616 282.151 152.012 281.313 152.99ZM271.397 149.219C271.397 146.845 273.213 145.029 275.587 145.029C277.962 145.029 279.777 146.845 279.777 149.219C279.777 151.593 277.962 153.409 275.587 153.409C273.213 153.409 271.397 151.593 271.397 149.219ZM279.358 143.493L283.408 139.442C281.313 137.626 278.52 136.649 275.587 136.649C272.654 136.649 269.86 137.626 267.765 139.442L271.676 143.353C272.793 142.655 274.19 142.236 275.587 142.236C276.983 142.236 278.38 142.655 279.358 143.493ZM265.81 141.398L269.86 145.448C269.022 146.426 268.603 147.822 268.603 149.219C268.603 150.616 269.022 152.012 269.721 153.13L265.81 157.041C264.134 154.946 263.016 152.152 263.016 149.219C263.016 146.286 263.994 143.493 265.81 141.398ZM271.816 154.946L267.765 158.996C269.86 160.812 272.654 161.789 275.726 161.929C278.659 161.929 281.453 160.812 283.548 159.136L279.497 155.085C278.38 155.784 276.983 156.203 275.587 156.203C274.19 156.203 272.793 155.784 271.816 154.946Z" fill="white"/>
    <rect x="532.632" y="108.936" width="272.105" height="79.6053" rx="11.5789" fill="white"/>
    <rect x="547.105" y="119.067" width="59.3421" height="59.3421" rx="11.5789" fill="#FFD1B8"/>
    <path fill-rule="evenodd" clip-rule="evenodd" d="M584.375 143.381C583.335 143.98 582.008 143.624 581.409 142.587C580.81 141.547 581.166 140.22 582.203 139.621C583.243 139.022 584.57 139.378 585.169 140.416C585.768 141.455 585.412 142.782 584.375 143.381ZM576.052 142.225C574.854 142.225 573.881 141.252 573.881 140.054C573.881 138.855 574.854 137.883 576.052 137.883C577.251 137.883 578.223 138.855 578.223 140.054C578.223 141.252 577.251 142.225 576.052 142.225ZM572.144 145.481C571.544 146.519 570.217 146.875 569.178 146.276C568.14 145.677 567.784 144.35 568.383 143.31C568.983 142.273 570.31 141.917 571.349 142.516C572.387 143.115 572.743 144.442 572.144 145.481ZM570.03 153.432C569.036 154.103 567.687 153.841 567.017 152.847C566.345 151.854 566.609 150.504 567.601 149.834C568.596 149.162 569.945 149.426 570.615 150.418C571.286 151.413 571.023 152.762 570.03 153.432ZM588.414 139.453C585.631 136.582 581.574 134.978 577.365 134.988H577.363C570.208 135.049 564.1 140.419 563.16 147.48C562.607 151.62 563.841 155.79 566.544 158.919C569.248 162.051 573.169 163.879 577.3 163.935H577.353C579.092 163.935 580.623 162.796 581.012 161.206C581.3 160.016 581.001 158.809 580.19 157.894C580.073 157.764 580.005 157.59 580.005 157.424C580.005 157.026 580.33 156.7 580.728 156.7H583.118C587.738 156.7 591.789 152.94 591.964 148.491C592.098 145.162 590.837 141.953 588.414 139.453Z" fill="white"/>
    <mask id="mask3" mask-type="alpha" maskUnits="userSpaceOnUse" x="563" y="134" width="29" height="30">
        <path fill-rule="evenodd" clip-rule="evenodd" d="M584.375 143.381C583.335 143.98 582.008 143.624 581.409 142.587C580.81 141.547 581.166 140.22 582.203 139.621C583.243 139.022 584.57 139.378 585.169 140.416C585.768 141.455 585.412 142.782 584.375 143.381ZM576.052 142.225C574.854 142.225 573.881 141.252 573.881 140.054C573.881 138.855 574.854 137.883 576.052 137.883C577.251 137.883 578.223 138.855 578.223 140.054C578.223 141.252 577.251 142.225 576.052 142.225ZM572.144 145.481C571.544 146.519 570.217 146.875 569.178 146.276C568.14 145.677 567.784 144.35 568.383 143.31C568.983 142.273 570.31 141.917 571.349 142.516C572.387 143.115 572.743 144.442 572.144 145.481ZM570.03 153.432C569.036 154.103 567.687 153.841 567.017 152.847C566.345 151.854 566.609 150.504 567.601 149.834C568.596 149.162 569.945 149.426 570.615 150.418C571.286 151.413 571.023 152.762 570.03 153.432ZM588.414 139.453C585.631 136.582 581.574 134.978 577.365 134.988H577.363C570.208 135.049 564.1 140.419 563.16 147.48C562.607 151.62 563.841 155.79 566.544 158.919C569.248 162.051 573.169 163.879 577.3 163.935H577.353C579.092 163.935 580.623 162.796 581.012 161.206C581.3 160.016 581.001 158.809 580.19 157.894C580.073 157.764 580.005 157.59 580.005 157.424C580.005 157.026 580.33 156.7 580.728 156.7H583.118C587.738 156.7 591.789 152.94 591.964 148.491C592.098 145.162 590.837 141.953 588.414 139.453Z" fill="white"/>
    </mask>
    <g mask="url(#mask3)">
    </g>
</svg>
