<svg
        width="450"
        height="352"
        viewBox="0 0 450 352"
        fill="none"
        xmlns="http://www.w3.org/2000/svg"
>
    <path
            d="M1.95302 187.331C3.03165 187.331 3.90605 186.457 3.90605 185.378C3.90605 184.3 3.03165 183.425 1.95302 183.425C0.874399 183.425 0 184.3 0 185.378C0 186.457 0.874399 187.331 1.95302 187.331Z"
            fill="#070241"
    />
    <path
            d="M25.3891 187.331C26.4677 187.331 27.3421 186.457 27.3421 185.378C27.3421 184.3 26.4677 183.425 25.3891 183.425C24.3104 183.425 23.436 184.3 23.436 185.378C23.436 186.457 24.3104 187.331 25.3891 187.331Z"
            fill="#070241"
    />
    <path
            d="M48.8261 187.331C49.9047 187.331 50.7791 186.457 50.7791 185.378C50.7791 184.3 49.9047 183.425 48.8261 183.425C47.7474 183.425 46.873 184.3 46.873 185.378C46.873 186.457 47.7474 187.331 48.8261 187.331Z"
            fill="#070241"
    />
    <path
            d="M72.2616 187.331C73.3402 187.331 74.2146 186.457 74.2146 185.378C74.2146 184.3 73.3402 183.425 72.2616 183.425C71.183 183.425 70.3086 184.3 70.3086 185.378C70.3086 186.457 71.183 187.331 72.2616 187.331Z"
            fill="#070241"
    />
    <path
            d="M95.6977 187.331C96.7763 187.331 97.6507 186.457 97.6507 185.378C97.6507 184.3 96.7763 183.425 95.6977 183.425C94.619 183.425 93.7446 184.3 93.7446 185.378C93.7446 186.457 94.619 187.331 95.6977 187.331Z"
            fill="#070241"
    />
    <path
            d="M119.135 187.331C120.213 187.331 121.088 186.457 121.088 185.378C121.088 184.3 120.213 183.425 119.135 183.425C118.056 183.425 117.182 184.3 117.182 185.378C117.182 186.457 118.056 187.331 119.135 187.331Z"
            fill="#070241"
    />
    <path
            d="M142.571 187.331C143.65 187.331 144.524 186.457 144.524 185.378C144.524 184.3 143.65 183.425 142.571 183.425C141.493 183.425 140.618 184.3 140.618 185.378C140.618 186.457 141.493 187.331 142.571 187.331Z"
            fill="#070241"
    />
    <path
            d="M166.007 187.331C167.086 187.331 167.96 186.457 167.96 185.378C167.96 184.3 167.086 183.425 166.007 183.425C164.929 183.425 164.054 184.3 164.054 185.378C164.054 186.457 164.929 187.331 166.007 187.331Z"
            fill="#070241"
    />
    <path
            d="M189.442 187.331C190.521 187.331 191.395 186.457 191.395 185.378C191.395 184.3 190.521 183.425 189.442 183.425C188.364 183.425 187.489 184.3 187.489 185.378C187.489 186.457 188.364 187.331 189.442 187.331Z"
            fill="#070241"
    />
    <path
            d="M212.88 187.331C213.958 187.331 214.833 186.457 214.833 185.378C214.833 184.3 213.958 183.425 212.88 183.425C211.801 183.425 210.927 184.3 210.927 185.378C210.927 186.457 211.801 187.331 212.88 187.331Z"
            fill="#070241"
    />
    <path
            d="M1.95302 210.768C3.03165 210.768 3.90605 209.893 3.90605 208.815C3.90605 207.736 3.03165 206.862 1.95302 206.862C0.874399 206.862 0 207.736 0 208.815C0 209.893 0.874399 210.768 1.95302 210.768Z"
            fill="#070241"
    />
    <path
            d="M25.3891 210.768C26.4677 210.768 27.3421 209.893 27.3421 208.815C27.3421 207.736 26.4677 206.862 25.3891 206.862C24.3104 206.862 23.436 207.736 23.436 208.815C23.436 209.893 24.3104 210.768 25.3891 210.768Z"
            fill="#070241"
    />
    <path
            d="M48.8261 210.768C49.9047 210.768 50.7791 209.893 50.7791 208.815C50.7791 207.736 49.9047 206.862 48.8261 206.862C47.7474 206.862 46.873 207.736 46.873 208.815C46.873 209.893 47.7474 210.768 48.8261 210.768Z"
            fill="#070241"
    />
    <path
            d="M72.2616 210.768C73.3402 210.768 74.2146 209.893 74.2146 208.815C74.2146 207.736 73.3402 206.862 72.2616 206.862C71.183 206.862 70.3086 207.736 70.3086 208.815C70.3086 209.893 71.183 210.768 72.2616 210.768Z"
            fill="#070241"
    />
    <path
            d="M95.6977 210.768C96.7763 210.768 97.6507 209.893 97.6507 208.815C97.6507 207.736 96.7763 206.862 95.6977 206.862C94.619 206.862 93.7446 207.736 93.7446 208.815C93.7446 209.893 94.619 210.768 95.6977 210.768Z"
            fill="#070241"
    />
    <path
            d="M119.135 210.768C120.213 210.768 121.088 209.893 121.088 208.815C121.088 207.736 120.213 206.862 119.135 206.862C118.056 206.862 117.182 207.736 117.182 208.815C117.182 209.893 118.056 210.768 119.135 210.768Z"
            fill="#070241"
    />
    <path
            d="M142.571 210.768C143.65 210.768 144.524 209.893 144.524 208.815C144.524 207.736 143.65 206.862 142.571 206.862C141.493 206.862 140.618 207.736 140.618 208.815C140.618 209.893 141.493 210.768 142.571 210.768Z"
            fill="#070241"
    />
    <path
            d="M166.007 210.768C167.086 210.768 167.96 209.893 167.96 208.815C167.96 207.736 167.086 206.862 166.007 206.862C164.929 206.862 164.054 207.736 164.054 208.815C164.054 209.893 164.929 210.768 166.007 210.768Z"
            fill="#070241"
    />
    <path
            d="M189.442 210.768C190.521 210.768 191.395 209.893 191.395 208.815C191.395 207.736 190.521 206.862 189.442 206.862C188.364 206.862 187.489 207.736 187.489 208.815C187.489 209.893 188.364 210.768 189.442 210.768Z"
            fill="#070241"
    />
    <path
            d="M212.88 210.768C213.958 210.768 214.833 209.893 214.833 208.815C214.833 207.736 213.958 206.862 212.88 206.862C211.801 206.862 210.927 207.736 210.927 208.815C210.927 209.893 211.801 210.768 212.88 210.768Z"
            fill="#070241"
    />
    <path
            d="M1.95302 234.204C3.03165 234.204 3.90605 233.33 3.90605 232.251C3.90605 231.172 3.03165 230.298 1.95302 230.298C0.874399 230.298 0 231.172 0 232.251C0 233.33 0.874399 234.204 1.95302 234.204Z"
            fill="#070241"
    />
    <path
            d="M25.3891 234.204C26.4677 234.204 27.3421 233.33 27.3421 232.251C27.3421 231.172 26.4677 230.298 25.3891 230.298C24.3104 230.298 23.436 231.172 23.436 232.251C23.436 233.33 24.3104 234.204 25.3891 234.204Z"
            fill="#070241"
    />
    <path
            d="M48.8261 234.204C49.9047 234.204 50.7791 233.33 50.7791 232.251C50.7791 231.172 49.9047 230.298 48.8261 230.298C47.7474 230.298 46.873 231.172 46.873 232.251C46.873 233.33 47.7474 234.204 48.8261 234.204Z"
            fill="#070241"
    />
    <path
            d="M72.2616 234.204C73.3402 234.204 74.2146 233.33 74.2146 232.251C74.2146 231.172 73.3402 230.298 72.2616 230.298C71.183 230.298 70.3086 231.172 70.3086 232.251C70.3086 233.33 71.183 234.204 72.2616 234.204Z"
            fill="#070241"
    />
    <path
            d="M95.6977 234.204C96.7763 234.204 97.6507 233.33 97.6507 232.251C97.6507 231.172 96.7763 230.298 95.6977 230.298C94.619 230.298 93.7446 231.172 93.7446 232.251C93.7446 233.33 94.619 234.204 95.6977 234.204Z"
            fill="#070241"
    />
    <path
            d="M119.135 234.204C120.213 234.204 121.088 233.33 121.088 232.251C121.088 231.172 120.213 230.298 119.135 230.298C118.056 230.298 117.182 231.172 117.182 232.251C117.182 233.33 118.056 234.204 119.135 234.204Z"
            fill="#070241"
    />
    <path
            d="M142.571 234.204C143.65 234.204 144.524 233.33 144.524 232.251C144.524 231.172 143.65 230.298 142.571 230.298C141.493 230.298 140.618 231.172 140.618 232.251C140.618 233.33 141.493 234.204 142.571 234.204Z"
            fill="#070241"
    />
    <path
            d="M166.007 234.204C167.086 234.204 167.96 233.33 167.96 232.251C167.96 231.172 167.086 230.298 166.007 230.298C164.929 230.298 164.054 231.172 164.054 232.251C164.054 233.33 164.929 234.204 166.007 234.204Z"
            fill="#070241"
    />
    <path
            d="M189.442 234.204C190.521 234.204 191.395 233.33 191.395 232.251C191.395 231.172 190.521 230.298 189.442 230.298C188.364 230.298 187.489 231.172 187.489 232.251C187.489 233.33 188.364 234.204 189.442 234.204Z"
            fill="#070241"
    />
    <path
            d="M212.88 234.204C213.958 234.204 214.833 233.33 214.833 232.251C214.833 231.172 213.958 230.298 212.88 230.298C211.801 230.298 210.927 231.172 210.927 232.251C210.927 233.33 211.801 234.204 212.88 234.204Z"
            fill="#070241"
    />
    <path
            d="M1.95302 257.64C3.03165 257.64 3.90605 256.766 3.90605 255.687C3.90605 254.609 3.03165 253.734 1.95302 253.734C0.874399 253.734 0 254.609 0 255.687C0 256.766 0.874399 257.64 1.95302 257.64Z"
            fill="#070241"
    />
    <path
            d="M25.3891 257.64C26.4677 257.64 27.3421 256.766 27.3421 255.687C27.3421 254.609 26.4677 253.734 25.3891 253.734C24.3104 253.734 23.436 254.609 23.436 255.687C23.436 256.766 24.3104 257.64 25.3891 257.64Z"
            fill="#070241"
    />
    <path
            d="M48.8261 257.64C49.9047 257.64 50.7791 256.766 50.7791 255.687C50.7791 254.609 49.9047 253.734 48.8261 253.734C47.7474 253.734 46.873 254.609 46.873 255.687C46.873 256.766 47.7474 257.64 48.8261 257.64Z"
            fill="#070241"
    />
    <path
            d="M72.2616 257.64C73.3402 257.64 74.2146 256.766 74.2146 255.687C74.2146 254.609 73.3402 253.734 72.2616 253.734C71.183 253.734 70.3086 254.609 70.3086 255.687C70.3086 256.766 71.183 257.64 72.2616 257.64Z"
            fill="#070241"
    />
    <path
            d="M95.6977 257.64C96.7763 257.64 97.6507 256.766 97.6507 255.687C97.6507 254.609 96.7763 253.734 95.6977 253.734C94.619 253.734 93.7446 254.609 93.7446 255.687C93.7446 256.766 94.619 257.64 95.6977 257.64Z"
            fill="#070241"
    />
    <path
            d="M119.135 257.64C120.213 257.64 121.088 256.766 121.088 255.687C121.088 254.609 120.213 253.734 119.135 253.734C118.056 253.734 117.182 254.609 117.182 255.687C117.182 256.766 118.056 257.64 119.135 257.64Z"
            fill="#070241"
    />
    <path
            d="M142.571 257.64C143.65 257.64 144.524 256.766 144.524 255.687C144.524 254.609 143.65 253.734 142.571 253.734C141.493 253.734 140.618 254.609 140.618 255.687C140.618 256.766 141.493 257.64 142.571 257.64Z"
            fill="#070241"
    />
    <path
            d="M166.007 257.64C167.086 257.64 167.96 256.766 167.96 255.687C167.96 254.609 167.086 253.734 166.007 253.734C164.929 253.734 164.054 254.609 164.054 255.687C164.054 256.766 164.929 257.64 166.007 257.64Z"
            fill="#070241"
    />
    <path
            d="M189.442 257.64C190.521 257.64 191.395 256.766 191.395 255.687C191.395 254.609 190.521 253.734 189.442 253.734C188.364 253.734 187.489 254.609 187.489 255.687C187.489 256.766 188.364 257.64 189.442 257.64Z"
            fill="#070241"
    />
    <path
            d="M212.88 257.64C213.958 257.64 214.833 256.766 214.833 255.687C214.833 254.609 213.958 253.734 212.88 253.734C211.801 253.734 210.927 254.609 210.927 255.687C210.927 256.766 211.801 257.64 212.88 257.64Z"
            fill="#070241"
    />
    <path
            d="M1.95302 281.077C3.03165 281.077 3.90605 280.202 3.90605 279.124C3.90605 278.045 3.03165 277.171 1.95302 277.171C0.874399 277.171 0 278.045 0 279.124C0 280.202 0.874399 281.077 1.95302 281.077Z"
            fill="#070241"
    />
    <path
            d="M25.3891 281.077C26.4677 281.077 27.3421 280.202 27.3421 279.124C27.3421 278.045 26.4677 277.171 25.3891 277.171C24.3104 277.171 23.436 278.045 23.436 279.124C23.436 280.202 24.3104 281.077 25.3891 281.077Z"
            fill="#070241"
    />
    <path
            d="M48.8261 281.077C49.9047 281.077 50.7791 280.202 50.7791 279.124C50.7791 278.045 49.9047 277.171 48.8261 277.171C47.7474 277.171 46.873 278.045 46.873 279.124C46.873 280.202 47.7474 281.077 48.8261 281.077Z"
            fill="#070241"
    />
    <path
            d="M72.2616 281.077C73.3402 281.077 74.2146 280.202 74.2146 279.124C74.2146 278.045 73.3402 277.171 72.2616 277.171C71.183 277.171 70.3086 278.045 70.3086 279.124C70.3086 280.202 71.183 281.077 72.2616 281.077Z"
            fill="#070241"
    />
    <path
            d="M95.6977 281.077C96.7763 281.077 97.6507 280.202 97.6507 279.124C97.6507 278.045 96.7763 277.171 95.6977 277.171C94.619 277.171 93.7446 278.045 93.7446 279.124C93.7446 280.202 94.619 281.077 95.6977 281.077Z"
            fill="#070241"
    />
    <path
            d="M119.135 281.077C120.213 281.077 121.088 280.202 121.088 279.124C121.088 278.045 120.213 277.171 119.135 277.171C118.056 277.171 117.182 278.045 117.182 279.124C117.182 280.202 118.056 281.077 119.135 281.077Z"
            fill="#070241"
    />
    <path
            d="M142.571 281.077C143.65 281.077 144.524 280.202 144.524 279.124C144.524 278.045 143.65 277.171 142.571 277.171C141.493 277.171 140.618 278.045 140.618 279.124C140.618 280.202 141.493 281.077 142.571 281.077Z"
            fill="#070241"
    />
    <path
            d="M166.007 281.077C167.086 281.077 167.96 280.202 167.96 279.124C167.96 278.045 167.086 277.171 166.007 277.171C164.929 277.171 164.054 278.045 164.054 279.124C164.054 280.202 164.929 281.077 166.007 281.077Z"
            fill="#070241"
    />
    <path
            d="M189.442 281.077C190.521 281.077 191.395 280.202 191.395 279.124C191.395 278.045 190.521 277.171 189.442 277.171C188.364 277.171 187.489 278.045 187.489 279.124C187.489 280.202 188.364 281.077 189.442 281.077Z"
            fill="#070241"
    />
    <path
            d="M212.88 281.077C213.958 281.077 214.833 280.202 214.833 279.124C214.833 278.045 213.958 277.171 212.88 277.171C211.801 277.171 210.927 278.045 210.927 279.124C210.927 280.202 211.801 281.077 212.88 281.077Z"
            fill="#070241"
    />
    <path
            d="M1.95302 304.513C3.03165 304.513 3.90605 303.639 3.90605 302.56C3.90605 301.481 3.03165 300.607 1.95302 300.607C0.874399 300.607 0 301.481 0 302.56C0 303.639 0.874399 304.513 1.95302 304.513Z"
            fill="#070241"
    />
    <path
            d="M25.3891 304.513C26.4677 304.513 27.3421 303.639 27.3421 302.56C27.3421 301.481 26.4677 300.607 25.3891 300.607C24.3104 300.607 23.436 301.481 23.436 302.56C23.436 303.639 24.3104 304.513 25.3891 304.513Z"
            fill="#070241"
    />
    <path
            d="M48.8261 304.513C49.9047 304.513 50.7791 303.639 50.7791 302.56C50.7791 301.481 49.9047 300.607 48.8261 300.607C47.7474 300.607 46.873 301.481 46.873 302.56C46.873 303.639 47.7474 304.513 48.8261 304.513Z"
            fill="#070241"
    />
    <path
            d="M72.2616 304.513C73.3402 304.513 74.2146 303.639 74.2146 302.56C74.2146 301.481 73.3402 300.607 72.2616 300.607C71.183 300.607 70.3086 301.481 70.3086 302.56C70.3086 303.639 71.183 304.513 72.2616 304.513Z"
            fill="#070241"
    />
    <path
            d="M95.6977 304.513C96.7763 304.513 97.6507 303.639 97.6507 302.56C97.6507 301.481 96.7763 300.607 95.6977 300.607C94.619 300.607 93.7446 301.481 93.7446 302.56C93.7446 303.639 94.619 304.513 95.6977 304.513Z"
            fill="#070241"
    />
    <path
            d="M119.135 304.513C120.213 304.513 121.088 303.639 121.088 302.56C121.088 301.481 120.213 300.607 119.135 300.607C118.056 300.607 117.182 301.481 117.182 302.56C117.182 303.639 118.056 304.513 119.135 304.513Z"
            fill="#070241"
    />
    <path
            d="M142.571 304.513C143.65 304.513 144.524 303.639 144.524 302.56C144.524 301.481 143.65 300.607 142.571 300.607C141.493 300.607 140.618 301.481 140.618 302.56C140.618 303.639 141.493 304.513 142.571 304.513Z"
            fill="#070241"
    />
    <path
            d="M166.007 304.513C167.086 304.513 167.96 303.639 167.96 302.56C167.96 301.481 167.086 300.607 166.007 300.607C164.929 300.607 164.054 301.481 164.054 302.56C164.054 303.639 164.929 304.513 166.007 304.513Z"
            fill="#070241"
    />
    <path
            d="M189.442 304.513C190.521 304.513 191.395 303.639 191.395 302.56C191.395 301.481 190.521 300.607 189.442 300.607C188.364 300.607 187.489 301.481 187.489 302.56C187.489 303.639 188.364 304.513 189.442 304.513Z"
            fill="#070241"
    />
    <path
            d="M212.88 304.513C213.958 304.513 214.833 303.639 214.833 302.56C214.833 301.481 213.958 300.607 212.88 300.607C211.801 300.607 210.927 301.481 210.927 302.56C210.927 303.639 211.801 304.513 212.88 304.513Z"
            fill="#070241"
    />
    <path
            d="M1.95302 327.949C3.03165 327.949 3.90605 327.075 3.90605 325.996C3.90605 324.918 3.03165 324.043 1.95302 324.043C0.874399 324.043 0 324.918 0 325.996C0 327.075 0.874399 327.949 1.95302 327.949Z"
            fill="#070241"
    />
    <path
            d="M25.3891 327.949C26.4677 327.949 27.3421 327.075 27.3421 325.996C27.3421 324.918 26.4677 324.043 25.3891 324.043C24.3104 324.043 23.436 324.918 23.436 325.996C23.436 327.075 24.3104 327.949 25.3891 327.949Z"
            fill="#070241"
    />
    <path
            d="M48.8261 327.949C49.9047 327.949 50.7791 327.075 50.7791 325.996C50.7791 324.918 49.9047 324.043 48.8261 324.043C47.7474 324.043 46.873 324.918 46.873 325.996C46.873 327.075 47.7474 327.949 48.8261 327.949Z"
            fill="#070241"
    />
    <path
            d="M72.2616 327.949C73.3402 327.949 74.2146 327.075 74.2146 325.996C74.2146 324.918 73.3402 324.043 72.2616 324.043C71.183 324.043 70.3086 324.918 70.3086 325.996C70.3086 327.075 71.183 327.949 72.2616 327.949Z"
            fill="#070241"
    />
    <path
            d="M95.6977 327.949C96.7763 327.949 97.6507 327.075 97.6507 325.996C97.6507 324.918 96.7763 324.043 95.6977 324.043C94.619 324.043 93.7446 324.918 93.7446 325.996C93.7446 327.075 94.619 327.949 95.6977 327.949Z"
            fill="#070241"
    />
    <path
            d="M119.135 327.949C120.213 327.949 121.088 327.075 121.088 325.996C121.088 324.918 120.213 324.043 119.135 324.043C118.056 324.043 117.182 324.918 117.182 325.996C117.182 327.075 118.056 327.949 119.135 327.949Z"
            fill="#070241"
    />
    <path
            d="M142.571 327.949C143.65 327.949 144.524 327.075 144.524 325.996C144.524 324.918 143.65 324.043 142.571 324.043C141.493 324.043 140.618 324.918 140.618 325.996C140.618 327.075 141.493 327.949 142.571 327.949Z"
            fill="#070241"
    />
    <path
            d="M166.007 327.949C167.086 327.949 167.96 327.075 167.96 325.996C167.96 324.918 167.086 324.043 166.007 324.043C164.929 324.043 164.054 324.918 164.054 325.996C164.054 327.075 164.929 327.949 166.007 327.949Z"
            fill="#070241"
    />
    <path
            d="M189.442 327.949C190.521 327.949 191.395 327.075 191.395 325.996C191.395 324.918 190.521 324.043 189.442 324.043C188.364 324.043 187.489 324.918 187.489 325.996C187.489 327.075 188.364 327.949 189.442 327.949Z"
            fill="#070241"
    />
    <path
            d="M212.88 327.949C213.958 327.949 214.833 327.075 214.833 325.996C214.833 324.918 213.958 324.043 212.88 324.043C211.801 324.043 210.927 324.918 210.927 325.996C210.927 327.075 211.801 327.949 212.88 327.949Z"
            fill="#070241"
    />
    <path
            d="M1.95302 351.386C3.03165 351.386 3.90605 350.511 3.90605 349.433C3.90605 348.354 3.03165 347.479 1.95302 347.479C0.874399 347.479 0 348.354 0 349.433C0 350.511 0.874399 351.386 1.95302 351.386Z"
            fill="#070241"
    />
    <path
            d="M25.3891 351.386C26.4677 351.386 27.3421 350.511 27.3421 349.433C27.3421 348.354 26.4677 347.479 25.3891 347.479C24.3104 347.479 23.436 348.354 23.436 349.433C23.436 350.511 24.3104 351.386 25.3891 351.386Z"
            fill="#070241"
    />
    <path
            d="M48.8261 351.386C49.9047 351.386 50.7791 350.511 50.7791 349.433C50.7791 348.354 49.9047 347.479 48.8261 347.479C47.7474 347.479 46.873 348.354 46.873 349.433C46.873 350.511 47.7474 351.386 48.8261 351.386Z"
            fill="#070241"
    />
    <path
            d="M72.2616 351.386C73.3402 351.386 74.2146 350.511 74.2146 349.433C74.2146 348.354 73.3402 347.479 72.2616 347.479C71.183 347.479 70.3086 348.354 70.3086 349.433C70.3086 350.511 71.183 351.386 72.2616 351.386Z"
            fill="#070241"
    />
    <path
            d="M95.6977 351.386C96.7763 351.386 97.6507 350.511 97.6507 349.433C97.6507 348.354 96.7763 347.479 95.6977 347.479C94.619 347.479 93.7446 348.354 93.7446 349.433C93.7446 350.511 94.619 351.386 95.6977 351.386Z"
            fill="#070241"
    />
    <path
            d="M119.135 351.386C120.213 351.386 121.088 350.511 121.088 349.433C121.088 348.354 120.213 347.479 119.135 347.479C118.056 347.479 117.182 348.354 117.182 349.433C117.182 350.511 118.056 351.386 119.135 351.386Z"
            fill="#070241"
    />
    <path
            d="M142.571 351.386C143.65 351.386 144.524 350.511 144.524 349.433C144.524 348.354 143.65 347.479 142.571 347.479C141.493 347.479 140.618 348.354 140.618 349.433C140.618 350.511 141.493 351.386 142.571 351.386Z"
            fill="#070241"
    />
    <path
            d="M166.007 351.386C167.086 351.386 167.96 350.511 167.96 349.433C167.96 348.354 167.086 347.479 166.007 347.479C164.929 347.479 164.054 348.354 164.054 349.433C164.054 350.511 164.929 351.386 166.007 351.386Z"
            fill="#070241"
    />
    <path
            d="M189.442 351.386C190.521 351.386 191.395 350.511 191.395 349.433C191.395 348.354 190.521 347.479 189.442 347.479C188.364 347.479 187.489 348.354 187.489 349.433C187.489 350.511 188.364 351.386 189.442 351.386Z"
            fill="#070241"
    />
    <path
            d="M212.88 351.386C213.958 351.386 214.833 350.511 214.833 349.433C214.833 348.354 213.958 347.479 212.88 347.479C211.801 347.479 210.927 348.354 210.927 349.433C210.927 350.511 211.801 351.386 212.88 351.386Z"
            fill="#070241"
    />
    <path
            d="M236.316 187.331C237.394 187.331 238.269 186.457 238.269 185.378C238.269 184.3 237.394 183.425 236.316 183.425C235.237 183.425 234.363 184.3 234.363 185.378C234.363 186.457 235.237 187.331 236.316 187.331Z"
            fill="#070241"
    />
    <path
            d="M259.752 187.331C260.831 187.331 261.705 186.457 261.705 185.378C261.705 184.3 260.831 183.425 259.752 183.425C258.674 183.425 257.799 184.3 257.799 185.378C257.799 186.457 258.674 187.331 259.752 187.331Z"
            fill="#070241"
    />
    <path
            d="M283.188 187.331C284.267 187.331 285.141 186.457 285.141 185.378C285.141 184.3 284.267 183.425 283.188 183.425C282.11 183.425 281.235 184.3 281.235 185.378C281.235 186.457 282.11 187.331 283.188 187.331Z"
            fill="#070241"
    />
    <path
            d="M306.624 187.331C307.703 187.331 308.577 186.457 308.577 185.378C308.577 184.3 307.703 183.425 306.624 183.425C305.546 183.425 304.671 184.3 304.671 185.378C304.671 186.457 305.546 187.331 306.624 187.331Z"
            fill="#070241"
    />
    <path
            d="M330.06 187.331C331.139 187.331 332.013 186.457 332.013 185.378C332.013 184.3 331.139 183.425 330.06 183.425C328.982 183.425 328.107 184.3 328.107 185.378C328.107 186.457 328.982 187.331 330.06 187.331Z"
            fill="#070241"
    />
    <path
            d="M353.497 187.331C354.576 187.331 355.45 186.457 355.45 185.378C355.45 184.3 354.576 183.425 353.497 183.425C352.418 183.425 351.544 184.3 351.544 185.378C351.544 186.457 352.418 187.331 353.497 187.331Z"
            fill="#070241"
    />
    <path
            d="M376.933 187.331C378.012 187.331 378.886 186.457 378.886 185.378C378.886 184.3 378.012 183.425 376.933 183.425C375.854 183.425 374.98 184.3 374.98 185.378C374.98 186.457 375.854 187.331 376.933 187.331Z"
            fill="#070241"
    />
    <path
            d="M400.37 187.331C401.448 187.331 402.323 186.457 402.323 185.378C402.323 184.3 401.448 183.425 400.37 183.425C399.291 183.425 398.417 184.3 398.417 185.378C398.417 186.457 399.291 187.331 400.37 187.331Z"
            fill="#070241"
    />
    <path
            d="M423.807 187.331C424.885 187.331 425.76 186.457 425.76 185.378C425.76 184.3 424.885 183.425 423.807 183.425C422.728 183.425 421.854 184.3 421.854 185.378C421.854 186.457 422.728 187.331 423.807 187.331Z"
            fill="#070241"
    />
    <path
            d="M447.242 187.331C448.32 187.331 449.195 186.457 449.195 185.378C449.195 184.3 448.32 183.425 447.242 183.425C446.163 183.425 445.289 184.3 445.289 185.378C445.289 186.457 446.163 187.331 447.242 187.331Z"
            fill="#070241"
    />
    <path
            d="M236.316 210.768C237.394 210.768 238.269 209.893 238.269 208.815C238.269 207.736 237.394 206.862 236.316 206.862C235.237 206.862 234.363 207.736 234.363 208.815C234.363 209.893 235.237 210.768 236.316 210.768Z"
            fill="#070241"
    />
    <path
            d="M259.752 210.768C260.831 210.768 261.705 209.893 261.705 208.815C261.705 207.736 260.831 206.862 259.752 206.862C258.674 206.862 257.799 207.736 257.799 208.815C257.799 209.893 258.674 210.768 259.752 210.768Z"
            fill="#070241"
    />
    <path
            d="M283.188 210.768C284.267 210.768 285.141 209.893 285.141 208.815C285.141 207.736 284.267 206.862 283.188 206.862C282.11 206.862 281.235 207.736 281.235 208.815C281.235 209.893 282.11 210.768 283.188 210.768Z"
            fill="#070241"
    />
    <path
            d="M306.624 210.768C307.703 210.768 308.577 209.893 308.577 208.815C308.577 207.736 307.703 206.862 306.624 206.862C305.546 206.862 304.671 207.736 304.671 208.815C304.671 209.893 305.546 210.768 306.624 210.768Z"
            fill="#070241"
    />
    <path
            d="M330.06 210.768C331.139 210.768 332.013 209.893 332.013 208.815C332.013 207.736 331.139 206.862 330.06 206.862C328.982 206.862 328.107 207.736 328.107 208.815C328.107 209.893 328.982 210.768 330.06 210.768Z"
            fill="#070241"
    />
    <path
            d="M353.497 210.768C354.576 210.768 355.45 209.893 355.45 208.815C355.45 207.736 354.576 206.862 353.497 206.862C352.418 206.862 351.544 207.736 351.544 208.815C351.544 209.893 352.418 210.768 353.497 210.768Z"
            fill="#070241"
    />
    <path
            d="M376.933 210.768C378.012 210.768 378.886 209.893 378.886 208.815C378.886 207.736 378.012 206.862 376.933 206.862C375.854 206.862 374.98 207.736 374.98 208.815C374.98 209.893 375.854 210.768 376.933 210.768Z"
            fill="#070241"
    />
    <path
            d="M400.37 210.768C401.448 210.768 402.323 209.893 402.323 208.815C402.323 207.736 401.448 206.862 400.37 206.862C399.291 206.862 398.417 207.736 398.417 208.815C398.417 209.893 399.291 210.768 400.37 210.768Z"
            fill="#070241"
    />
    <path
            d="M423.807 210.768C424.885 210.768 425.76 209.893 425.76 208.815C425.76 207.736 424.885 206.862 423.807 206.862C422.728 206.862 421.854 207.736 421.854 208.815C421.854 209.893 422.728 210.768 423.807 210.768Z"
            fill="#070241"
    />
    <path
            d="M447.242 210.768C448.32 210.768 449.195 209.893 449.195 208.815C449.195 207.736 448.32 206.862 447.242 206.862C446.163 206.862 445.289 207.736 445.289 208.815C445.289 209.893 446.163 210.768 447.242 210.768Z"
            fill="#070241"
    />
    <path
            d="M236.316 234.204C237.394 234.204 238.269 233.33 238.269 232.251C238.269 231.172 237.394 230.298 236.316 230.298C235.237 230.298 234.363 231.172 234.363 232.251C234.363 233.33 235.237 234.204 236.316 234.204Z"
            fill="#070241"
    />
    <path
            d="M259.752 234.204C260.831 234.204 261.705 233.33 261.705 232.251C261.705 231.172 260.831 230.298 259.752 230.298C258.674 230.298 257.799 231.172 257.799 232.251C257.799 233.33 258.674 234.204 259.752 234.204Z"
            fill="#070241"
    />
    <path
            d="M283.188 234.204C284.267 234.204 285.141 233.33 285.141 232.251C285.141 231.172 284.267 230.298 283.188 230.298C282.11 230.298 281.235 231.172 281.235 232.251C281.235 233.33 282.11 234.204 283.188 234.204Z"
            fill="#070241"
    />
    <path
            d="M306.624 234.204C307.703 234.204 308.577 233.33 308.577 232.251C308.577 231.172 307.703 230.298 306.624 230.298C305.546 230.298 304.671 231.172 304.671 232.251C304.671 233.33 305.546 234.204 306.624 234.204Z"
            fill="#070241"
    />
    <path
            d="M330.06 234.204C331.139 234.204 332.013 233.33 332.013 232.251C332.013 231.172 331.139 230.298 330.06 230.298C328.982 230.298 328.107 231.172 328.107 232.251C328.107 233.33 328.982 234.204 330.06 234.204Z"
            fill="#070241"
    />
    <path
            d="M353.497 234.204C354.576 234.204 355.45 233.33 355.45 232.251C355.45 231.172 354.576 230.298 353.497 230.298C352.418 230.298 351.544 231.172 351.544 232.251C351.544 233.33 352.418 234.204 353.497 234.204Z"
            fill="#070241"
    />
    <path
            d="M376.933 234.204C378.012 234.204 378.886 233.33 378.886 232.251C378.886 231.172 378.012 230.298 376.933 230.298C375.854 230.298 374.98 231.172 374.98 232.251C374.98 233.33 375.854 234.204 376.933 234.204Z"
            fill="#070241"
    />
    <path
            d="M400.37 234.204C401.448 234.204 402.323 233.33 402.323 232.251C402.323 231.172 401.448 230.298 400.37 230.298C399.291 230.298 398.417 231.172 398.417 232.251C398.417 233.33 399.291 234.204 400.37 234.204Z"
            fill="#070241"
    />
    <path
            d="M423.807 234.204C424.885 234.204 425.76 233.33 425.76 232.251C425.76 231.172 424.885 230.298 423.807 230.298C422.728 230.298 421.854 231.172 421.854 232.251C421.854 233.33 422.728 234.204 423.807 234.204Z"
            fill="#070241"
    />
    <path
            d="M447.242 234.204C448.32 234.204 449.195 233.33 449.195 232.251C449.195 231.172 448.32 230.298 447.242 230.298C446.163 230.298 445.289 231.172 445.289 232.251C445.289 233.33 446.163 234.204 447.242 234.204Z"
            fill="#070241"
    />
    <path
            d="M236.316 257.64C237.394 257.64 238.269 256.766 238.269 255.687C238.269 254.609 237.394 253.734 236.316 253.734C235.237 253.734 234.363 254.609 234.363 255.687C234.363 256.766 235.237 257.64 236.316 257.64Z"
            fill="#070241"
    />
    <path
            d="M259.752 257.64C260.831 257.64 261.705 256.766 261.705 255.687C261.705 254.609 260.831 253.734 259.752 253.734C258.674 253.734 257.799 254.609 257.799 255.687C257.799 256.766 258.674 257.64 259.752 257.64Z"
            fill="#070241"
    />
    <path
            d="M283.188 257.64C284.267 257.64 285.141 256.766 285.141 255.687C285.141 254.609 284.267 253.734 283.188 253.734C282.11 253.734 281.235 254.609 281.235 255.687C281.235 256.766 282.11 257.64 283.188 257.64Z"
            fill="#070241"
    />
    <path
            d="M306.624 257.64C307.703 257.64 308.577 256.766 308.577 255.687C308.577 254.609 307.703 253.734 306.624 253.734C305.546 253.734 304.671 254.609 304.671 255.687C304.671 256.766 305.546 257.64 306.624 257.64Z"
            fill="#070241"
    />
    <path
            d="M330.06 257.64C331.139 257.64 332.013 256.766 332.013 255.687C332.013 254.609 331.139 253.734 330.06 253.734C328.982 253.734 328.107 254.609 328.107 255.687C328.107 256.766 328.982 257.64 330.06 257.64Z"
            fill="#070241"
    />
    <path
            d="M353.497 257.64C354.576 257.64 355.45 256.766 355.45 255.687C355.45 254.609 354.576 253.734 353.497 253.734C352.418 253.734 351.544 254.609 351.544 255.687C351.544 256.766 352.418 257.64 353.497 257.64Z"
            fill="#070241"
    />
    <path
            d="M376.933 257.64C378.012 257.64 378.886 256.766 378.886 255.687C378.886 254.609 378.012 253.734 376.933 253.734C375.854 253.734 374.98 254.609 374.98 255.687C374.98 256.766 375.854 257.64 376.933 257.64Z"
            fill="#070241"
    />
    <path
            d="M400.37 257.64C401.448 257.64 402.323 256.766 402.323 255.687C402.323 254.609 401.448 253.734 400.37 253.734C399.291 253.734 398.417 254.609 398.417 255.687C398.417 256.766 399.291 257.64 400.37 257.64Z"
            fill="#070241"
    />
    <path
            d="M423.807 257.64C424.885 257.64 425.76 256.766 425.76 255.687C425.76 254.609 424.885 253.734 423.807 253.734C422.728 253.734 421.854 254.609 421.854 255.687C421.854 256.766 422.728 257.64 423.807 257.64Z"
            fill="#070241"
    />
    <path
            d="M447.242 257.64C448.32 257.64 449.195 256.766 449.195 255.687C449.195 254.609 448.32 253.734 447.242 253.734C446.163 253.734 445.289 254.609 445.289 255.687C445.289 256.766 446.163 257.64 447.242 257.64Z"
            fill="#070241"
    />
    <path
            d="M236.316 281.077C237.394 281.077 238.269 280.202 238.269 279.124C238.269 278.045 237.394 277.171 236.316 277.171C235.237 277.171 234.363 278.045 234.363 279.124C234.363 280.202 235.237 281.077 236.316 281.077Z"
            fill="#070241"
    />
    <path
            d="M259.752 281.077C260.831 281.077 261.705 280.202 261.705 279.124C261.705 278.045 260.831 277.171 259.752 277.171C258.674 277.171 257.799 278.045 257.799 279.124C257.799 280.202 258.674 281.077 259.752 281.077Z"
            fill="#070241"
    />
    <path
            d="M283.188 281.077C284.267 281.077 285.141 280.202 285.141 279.124C285.141 278.045 284.267 277.171 283.188 277.171C282.11 277.171 281.235 278.045 281.235 279.124C281.235 280.202 282.11 281.077 283.188 281.077Z"
            fill="#070241"
    />
    <path
            d="M306.624 281.077C307.703 281.077 308.577 280.202 308.577 279.124C308.577 278.045 307.703 277.171 306.624 277.171C305.546 277.171 304.671 278.045 304.671 279.124C304.671 280.202 305.546 281.077 306.624 281.077Z"
            fill="#070241"
    />
    <path
            d="M330.06 281.077C331.139 281.077 332.013 280.202 332.013 279.124C332.013 278.045 331.139 277.171 330.06 277.171C328.982 277.171 328.107 278.045 328.107 279.124C328.107 280.202 328.982 281.077 330.06 281.077Z"
            fill="#070241"
    />
    <path
            d="M353.497 281.077C354.576 281.077 355.45 280.202 355.45 279.124C355.45 278.045 354.576 277.171 353.497 277.171C352.418 277.171 351.544 278.045 351.544 279.124C351.544 280.202 352.418 281.077 353.497 281.077Z"
            fill="#070241"
    />
    <path
            d="M376.933 281.077C378.012 281.077 378.886 280.202 378.886 279.124C378.886 278.045 378.012 277.171 376.933 277.171C375.854 277.171 374.98 278.045 374.98 279.124C374.98 280.202 375.854 281.077 376.933 281.077Z"
            fill="#070241"
    />
    <path
            d="M400.37 281.077C401.448 281.077 402.323 280.202 402.323 279.124C402.323 278.045 401.448 277.171 400.37 277.171C399.291 277.171 398.417 278.045 398.417 279.124C398.417 280.202 399.291 281.077 400.37 281.077Z"
            fill="#070241"
    />
    <path
            d="M423.807 281.077C424.885 281.077 425.76 280.202 425.76 279.124C425.76 278.045 424.885 277.171 423.807 277.171C422.728 277.171 421.854 278.045 421.854 279.124C421.854 280.202 422.728 281.077 423.807 281.077Z"
            fill="#070241"
    />
    <path
            d="M447.242 281.077C448.32 281.077 449.195 280.202 449.195 279.124C449.195 278.045 448.32 277.171 447.242 277.171C446.163 277.171 445.289 278.045 445.289 279.124C445.289 280.202 446.163 281.077 447.242 281.077Z"
            fill="#070241"
    />
    <path
            d="M236.316 304.513C237.394 304.513 238.269 303.639 238.269 302.56C238.269 301.481 237.394 300.607 236.316 300.607C235.237 300.607 234.363 301.481 234.363 302.56C234.363 303.639 235.237 304.513 236.316 304.513Z"
            fill="#070241"
    />
    <path
            d="M259.752 304.513C260.831 304.513 261.705 303.639 261.705 302.56C261.705 301.481 260.831 300.607 259.752 300.607C258.674 300.607 257.799 301.481 257.799 302.56C257.799 303.639 258.674 304.513 259.752 304.513Z"
            fill="#070241"
    />
    <path
            d="M283.188 304.513C284.267 304.513 285.141 303.639 285.141 302.56C285.141 301.481 284.267 300.607 283.188 300.607C282.11 300.607 281.235 301.481 281.235 302.56C281.235 303.639 282.11 304.513 283.188 304.513Z"
            fill="#070241"
    />
    <path
            d="M306.624 304.513C307.703 304.513 308.577 303.639 308.577 302.56C308.577 301.481 307.703 300.607 306.624 300.607C305.546 300.607 304.671 301.481 304.671 302.56C304.671 303.639 305.546 304.513 306.624 304.513Z"
            fill="#070241"
    />
    <path
            d="M330.06 304.513C331.139 304.513 332.013 303.639 332.013 302.56C332.013 301.481 331.139 300.607 330.06 300.607C328.982 300.607 328.107 301.481 328.107 302.56C328.107 303.639 328.982 304.513 330.06 304.513Z"
            fill="#070241"
    />
    <path
            d="M353.497 304.513C354.576 304.513 355.45 303.639 355.45 302.56C355.45 301.481 354.576 300.607 353.497 300.607C352.418 300.607 351.544 301.481 351.544 302.56C351.544 303.639 352.418 304.513 353.497 304.513Z"
            fill="#070241"
    />
    <path
            d="M376.933 304.513C378.012 304.513 378.886 303.639 378.886 302.56C378.886 301.481 378.012 300.607 376.933 300.607C375.854 300.607 374.98 301.481 374.98 302.56C374.98 303.639 375.854 304.513 376.933 304.513Z"
            fill="#070241"
    />
    <path
            d="M400.37 304.513C401.448 304.513 402.323 303.639 402.323 302.56C402.323 301.481 401.448 300.607 400.37 300.607C399.291 300.607 398.417 301.481 398.417 302.56C398.417 303.639 399.291 304.513 400.37 304.513Z"
            fill="#070241"
    />
    <path
            d="M423.807 304.513C424.885 304.513 425.76 303.639 425.76 302.56C425.76 301.481 424.885 300.607 423.807 300.607C422.728 300.607 421.854 301.481 421.854 302.56C421.854 303.639 422.728 304.513 423.807 304.513Z"
            fill="#070241"
    />
    <path
            d="M447.242 304.513C448.32 304.513 449.195 303.639 449.195 302.56C449.195 301.481 448.32 300.607 447.242 300.607C446.163 300.607 445.289 301.481 445.289 302.56C445.289 303.639 446.163 304.513 447.242 304.513Z"
            fill="#070241"
    />
    <path
            d="M236.316 327.949C237.394 327.949 238.269 327.075 238.269 325.996C238.269 324.918 237.394 324.043 236.316 324.043C235.237 324.043 234.363 324.918 234.363 325.996C234.363 327.075 235.237 327.949 236.316 327.949Z"
            fill="#070241"
    />
    <path
            d="M259.752 327.949C260.831 327.949 261.705 327.075 261.705 325.996C261.705 324.918 260.831 324.043 259.752 324.043C258.674 324.043 257.799 324.918 257.799 325.996C257.799 327.075 258.674 327.949 259.752 327.949Z"
            fill="#070241"
    />
    <path
            d="M283.188 327.949C284.267 327.949 285.141 327.075 285.141 325.996C285.141 324.918 284.267 324.043 283.188 324.043C282.11 324.043 281.235 324.918 281.235 325.996C281.235 327.075 282.11 327.949 283.188 327.949Z"
            fill="#070241"
    />
    <path
            d="M306.624 327.949C307.703 327.949 308.577 327.075 308.577 325.996C308.577 324.918 307.703 324.043 306.624 324.043C305.546 324.043 304.671 324.918 304.671 325.996C304.671 327.075 305.546 327.949 306.624 327.949Z"
            fill="#070241"
    />
    <path
            d="M330.06 327.949C331.139 327.949 332.013 327.075 332.013 325.996C332.013 324.918 331.139 324.043 330.06 324.043C328.982 324.043 328.107 324.918 328.107 325.996C328.107 327.075 328.982 327.949 330.06 327.949Z"
            fill="#070241"
    />
    <path
            d="M353.497 327.949C354.576 327.949 355.45 327.075 355.45 325.996C355.45 324.918 354.576 324.043 353.497 324.043C352.418 324.043 351.544 324.918 351.544 325.996C351.544 327.075 352.418 327.949 353.497 327.949Z"
            fill="#070241"
    />
    <path
            d="M376.933 327.949C378.012 327.949 378.886 327.075 378.886 325.996C378.886 324.918 378.012 324.043 376.933 324.043C375.854 324.043 374.98 324.918 374.98 325.996C374.98 327.075 375.854 327.949 376.933 327.949Z"
            fill="#070241"
    />
    <path
            d="M400.37 327.949C401.448 327.949 402.323 327.075 402.323 325.996C402.323 324.918 401.448 324.043 400.37 324.043C399.291 324.043 398.417 324.918 398.417 325.996C398.417 327.075 399.291 327.949 400.37 327.949Z"
            fill="#070241"
    />
    <path
            d="M423.807 327.949C424.885 327.949 425.76 327.075 425.76 325.996C425.76 324.918 424.885 324.043 423.807 324.043C422.728 324.043 421.854 324.918 421.854 325.996C421.854 327.075 422.728 327.949 423.807 327.949Z"
            fill="#070241"
    />
    <path
            d="M447.242 327.949C448.32 327.949 449.195 327.075 449.195 325.996C449.195 324.918 448.32 324.043 447.242 324.043C446.163 324.043 445.289 324.918 445.289 325.996C445.289 327.075 446.163 327.949 447.242 327.949Z"
            fill="#070241"
    />
    <path
            d="M236.316 351.386C237.394 351.386 238.269 350.511 238.269 349.433C238.269 348.354 237.394 347.479 236.316 347.479C235.237 347.479 234.363 348.354 234.363 349.433C234.363 350.511 235.237 351.386 236.316 351.386Z"
            fill="#070241"
    />
    <path
            d="M259.752 351.386C260.831 351.386 261.705 350.511 261.705 349.433C261.705 348.354 260.831 347.479 259.752 347.479C258.674 347.479 257.799 348.354 257.799 349.433C257.799 350.511 258.674 351.386 259.752 351.386Z"
            fill="#070241"
    />
    <path
            d="M283.188 351.386C284.267 351.386 285.141 350.511 285.141 349.433C285.141 348.354 284.267 347.479 283.188 347.479C282.11 347.479 281.235 348.354 281.235 349.433C281.235 350.511 282.11 351.386 283.188 351.386Z"
            fill="#070241"
    />
    <path
            d="M306.624 351.386C307.703 351.386 308.577 350.511 308.577 349.433C308.577 348.354 307.703 347.479 306.624 347.479C305.546 347.479 304.671 348.354 304.671 349.433C304.671 350.511 305.546 351.386 306.624 351.386Z"
            fill="#070241"
    />
    <path
            d="M330.06 351.386C331.139 351.386 332.013 350.511 332.013 349.433C332.013 348.354 331.139 347.479 330.06 347.479C328.982 347.479 328.107 348.354 328.107 349.433C328.107 350.511 328.982 351.386 330.06 351.386Z"
            fill="#070241"
    />
    <path
            d="M353.497 351.386C354.576 351.386 355.45 350.511 355.45 349.433C355.45 348.354 354.576 347.479 353.497 347.479C352.418 347.479 351.544 348.354 351.544 349.433C351.544 350.511 352.418 351.386 353.497 351.386Z"
            fill="#070241"
    />
    <path
            d="M376.933 351.386C378.012 351.386 378.886 350.511 378.886 349.433C378.886 348.354 378.012 347.479 376.933 347.479C375.854 347.479 374.98 348.354 374.98 349.433C374.98 350.511 375.854 351.386 376.933 351.386Z"
            fill="#070241"
    />
    <path
            d="M400.37 351.386C401.448 351.386 402.323 350.511 402.323 349.433C402.323 348.354 401.448 347.479 400.37 347.479C399.291 347.479 398.417 348.354 398.417 349.433C398.417 350.511 399.291 351.386 400.37 351.386Z"
            fill="#070241"
    />
    <path
            d="M423.807 351.386C424.885 351.386 425.76 350.511 425.76 349.433C425.76 348.354 424.885 347.479 423.807 347.479C422.728 347.479 421.854 348.354 421.854 349.433C421.854 350.511 422.728 351.386 423.807 351.386Z"
            fill="#070241"
    />
    <path
            d="M447.242 351.386C448.32 351.386 449.195 350.511 449.195 349.433C449.195 348.354 448.32 347.479 447.242 347.479C446.163 347.479 445.289 348.354 445.289 349.433C445.289 350.511 446.163 351.386 447.242 351.386Z"
            fill="#070241"
    />
    <path
            d="M1.95302 4.48588C3.03165 4.48588 3.90605 3.61149 3.90605 2.53286C3.90605 1.45423 3.03165 0.579836 1.95302 0.579836C0.874399 0.579836 0 1.45423 0 2.53286C0 3.61149 0.874399 4.48588 1.95302 4.48588Z"
            fill="#070241"
    />
    <path
            d="M25.3891 4.48591C26.4677 4.48591 27.3421 3.61151 27.3421 2.53288C27.3421 1.45426 26.4677 0.579857 25.3891 0.579857C24.3104 0.579857 23.436 1.45426 23.436 2.53288C23.436 3.61151 24.3104 4.48591 25.3891 4.48591Z"
            fill="#070241"
    />
    <path
            d="M48.8261 4.48591C49.9047 4.48591 50.7791 3.61151 50.7791 2.53288C50.7791 1.45426 49.9047 0.579857 48.8261 0.579857C47.7474 0.579857 46.873 1.45426 46.873 2.53288C46.873 3.61151 47.7474 4.48591 48.8261 4.48591Z"
            fill="#070241"
    />
    <path
            d="M72.2616 4.48591C73.3402 4.48591 74.2146 3.61151 74.2146 2.53288C74.2146 1.45426 73.3402 0.579857 72.2616 0.579857C71.183 0.579857 70.3086 1.45426 70.3086 2.53288C70.3086 3.61151 71.183 4.48591 72.2616 4.48591Z"
            fill="#070241"
    />
    <path
            d="M95.6977 4.48591C96.7763 4.48591 97.6507 3.61151 97.6507 2.53288C97.6507 1.45426 96.7763 0.579857 95.6977 0.579857C94.619 0.579857 93.7446 1.45426 93.7446 2.53288C93.7446 3.61151 94.619 4.48591 95.6977 4.48591Z"
            fill="#070241"
    />
    <path
            d="M119.135 4.48591C120.213 4.48591 121.088 3.61151 121.088 2.53288C121.088 1.45426 120.213 0.579857 119.135 0.579857C118.056 0.579857 117.182 1.45426 117.182 2.53288C117.182 3.61151 118.056 4.48591 119.135 4.48591Z"
            fill="#070241"
    />
    <path
            d="M142.571 4.48591C143.65 4.48591 144.524 3.61151 144.524 2.53288C144.524 1.45426 143.65 0.579857 142.571 0.579857C141.493 0.579857 140.618 1.45426 140.618 2.53288C140.618 3.61151 141.493 4.48591 142.571 4.48591Z"
            fill="#070241"
    />
    <path
            d="M166.007 4.48591C167.086 4.48591 167.96 3.61151 167.96 2.53288C167.96 1.45426 167.086 0.579857 166.007 0.579857C164.929 0.579857 164.054 1.45426 164.054 2.53288C164.054 3.61151 164.929 4.48591 166.007 4.48591Z"
            fill="#070241"
    />
    <path
            d="M189.442 4.48591C190.521 4.48591 191.395 3.61151 191.395 2.53288C191.395 1.45426 190.521 0.579857 189.442 0.579857C188.364 0.579857 187.489 1.45426 187.489 2.53288C187.489 3.61151 188.364 4.48591 189.442 4.48591Z"
            fill="#070241"
    />
    <path
            d="M212.88 4.48591C213.958 4.48591 214.833 3.61151 214.833 2.53288C214.833 1.45426 213.958 0.579857 212.88 0.579857C211.801 0.579857 210.927 1.45426 210.927 2.53288C210.927 3.61151 211.801 4.48591 212.88 4.48591Z"
            fill="#070241"
    />
    <path
            d="M1.95302 27.9222C3.03165 27.9222 3.90605 27.0478 3.90605 25.9692C3.90605 24.8905 3.03165 24.0161 1.95302 24.0161C0.874399 24.0161 0 24.8905 0 25.9692C0 27.0478 0.874399 27.9222 1.95302 27.9222Z"
            fill="#070241"
    />
    <path
            d="M25.3891 27.9222C26.4677 27.9222 27.3421 27.0478 27.3421 25.9692C27.3421 24.8905 26.4677 24.0161 25.3891 24.0161C24.3104 24.0161 23.436 24.8905 23.436 25.9692C23.436 27.0478 24.3104 27.9222 25.3891 27.9222Z"
            fill="#070241"
    />
    <path
            d="M48.8261 27.9222C49.9047 27.9222 50.7791 27.0478 50.7791 25.9692C50.7791 24.8905 49.9047 24.0161 48.8261 24.0161C47.7474 24.0161 46.873 24.8905 46.873 25.9692C46.873 27.0478 47.7474 27.9222 48.8261 27.9222Z"
            fill="#070241"
    />
    <path
            d="M72.2616 27.9222C73.3402 27.9222 74.2146 27.0478 74.2146 25.9692C74.2146 24.8905 73.3402 24.0161 72.2616 24.0161C71.183 24.0161 70.3086 24.8905 70.3086 25.9692C70.3086 27.0478 71.183 27.9222 72.2616 27.9222Z"
            fill="#070241"
    />
    <path
            d="M95.6977 27.9222C96.7763 27.9222 97.6507 27.0478 97.6507 25.9692C97.6507 24.8905 96.7763 24.0161 95.6977 24.0161C94.619 24.0161 93.7446 24.8905 93.7446 25.9692C93.7446 27.0478 94.619 27.9222 95.6977 27.9222Z"
            fill="#070241"
    />
    <path
            d="M119.135 27.9222C120.213 27.9222 121.088 27.0478 121.088 25.9692C121.088 24.8905 120.213 24.0161 119.135 24.0161C118.056 24.0161 117.182 24.8905 117.182 25.9692C117.182 27.0478 118.056 27.9222 119.135 27.9222Z"
            fill="#070241"
    />
    <path
            d="M142.571 27.9222C143.65 27.9222 144.524 27.0478 144.524 25.9692C144.524 24.8905 143.65 24.0161 142.571 24.0161C141.493 24.0161 140.618 24.8905 140.618 25.9692C140.618 27.0478 141.493 27.9222 142.571 27.9222Z"
            fill="#070241"
    />
    <path
            d="M166.007 27.9222C167.086 27.9222 167.96 27.0478 167.96 25.9692C167.96 24.8905 167.086 24.0161 166.007 24.0161C164.929 24.0161 164.054 24.8905 164.054 25.9692C164.054 27.0478 164.929 27.9222 166.007 27.9222Z"
            fill="#070241"
    />
    <path
            d="M189.442 27.9222C190.521 27.9222 191.395 27.0478 191.395 25.9692C191.395 24.8905 190.521 24.0161 189.442 24.0161C188.364 24.0161 187.489 24.8905 187.489 25.9692C187.489 27.0478 188.364 27.9222 189.442 27.9222Z"
            fill="#070241"
    />
    <path
            d="M212.88 27.9222C213.958 27.9222 214.833 27.0478 214.833 25.9692C214.833 24.8905 213.958 24.0161 212.88 24.0161C211.801 24.0161 210.927 24.8905 210.927 25.9692C210.927 27.0478 211.801 27.9222 212.88 27.9222Z"
            fill="#070241"
    />
    <path
            d="M1.95302 51.3585C3.03165 51.3585 3.90605 50.4841 3.90605 49.4054C3.90605 48.3268 3.03165 47.4524 1.95302 47.4524C0.874399 47.4524 0 48.3268 0 49.4054C0 50.4841 0.874399 51.3585 1.95302 51.3585Z"
            fill="#070241"
    />
    <path
            d="M25.3891 51.3585C26.4677 51.3585 27.3421 50.4841 27.3421 49.4054C27.3421 48.3268 26.4677 47.4524 25.3891 47.4524C24.3104 47.4524 23.436 48.3268 23.436 49.4054C23.436 50.4841 24.3104 51.3585 25.3891 51.3585Z"
            fill="#070241"
    />
    <path
            d="M48.8261 51.3585C49.9047 51.3585 50.7791 50.4841 50.7791 49.4054C50.7791 48.3268 49.9047 47.4524 48.8261 47.4524C47.7474 47.4524 46.873 48.3268 46.873 49.4054C46.873 50.4841 47.7474 51.3585 48.8261 51.3585Z"
            fill="#070241"
    />
    <path
            d="M72.2616 51.3585C73.3402 51.3585 74.2146 50.4841 74.2146 49.4054C74.2146 48.3268 73.3402 47.4524 72.2616 47.4524C71.183 47.4524 70.3086 48.3268 70.3086 49.4054C70.3086 50.4841 71.183 51.3585 72.2616 51.3585Z"
            fill="#070241"
    />
    <path
            d="M95.6977 51.3585C96.7763 51.3585 97.6507 50.4841 97.6507 49.4054C97.6507 48.3268 96.7763 47.4524 95.6977 47.4524C94.619 47.4524 93.7446 48.3268 93.7446 49.4054C93.7446 50.4841 94.619 51.3585 95.6977 51.3585Z"
            fill="#070241"
    />
    <path
            d="M119.135 51.3585C120.213 51.3585 121.088 50.4841 121.088 49.4054C121.088 48.3268 120.213 47.4524 119.135 47.4524C118.056 47.4524 117.182 48.3268 117.182 49.4054C117.182 50.4841 118.056 51.3585 119.135 51.3585Z"
            fill="#070241"
    />
    <path
            d="M142.571 51.3585C143.65 51.3585 144.524 50.4841 144.524 49.4054C144.524 48.3268 143.65 47.4524 142.571 47.4524C141.493 47.4524 140.618 48.3268 140.618 49.4054C140.618 50.4841 141.493 51.3585 142.571 51.3585Z"
            fill="#070241"
    />
    <path
            d="M166.007 51.3585C167.086 51.3585 167.96 50.4841 167.96 49.4054C167.96 48.3268 167.086 47.4524 166.007 47.4524C164.929 47.4524 164.054 48.3268 164.054 49.4054C164.054 50.4841 164.929 51.3585 166.007 51.3585Z"
            fill="#070241"
    />
    <path
            d="M189.442 51.3585C190.521 51.3585 191.395 50.4841 191.395 49.4054C191.395 48.3268 190.521 47.4524 189.442 47.4524C188.364 47.4524 187.489 48.3268 187.489 49.4054C187.489 50.4841 188.364 51.3585 189.442 51.3585Z"
            fill="#070241"
    />
    <path
            d="M212.88 51.3585C213.958 51.3585 214.833 50.4841 214.833 49.4054C214.833 48.3268 213.958 47.4524 212.88 47.4524C211.801 47.4524 210.927 48.3268 210.927 49.4054C210.927 50.4841 211.801 51.3585 212.88 51.3585Z"
            fill="#070241"
    />
    <path
            d="M1.95302 74.7948C3.03165 74.7948 3.90605 73.9204 3.90605 72.8417C3.90605 71.7631 3.03165 70.8887 1.95302 70.8887C0.874399 70.8887 0 71.7631 0 72.8417C0 73.9204 0.874399 74.7948 1.95302 74.7948Z"
            fill="#070241"
    />
    <path
            d="M25.3891 74.7948C26.4677 74.7948 27.3421 73.9204 27.3421 72.8417C27.3421 71.7631 26.4677 70.8887 25.3891 70.8887C24.3104 70.8887 23.436 71.7631 23.436 72.8417C23.436 73.9204 24.3104 74.7948 25.3891 74.7948Z"
            fill="#070241"
    />
    <path
            d="M48.8261 74.7948C49.9047 74.7948 50.7791 73.9204 50.7791 72.8417C50.7791 71.7631 49.9047 70.8887 48.8261 70.8887C47.7474 70.8887 46.873 71.7631 46.873 72.8417C46.873 73.9204 47.7474 74.7948 48.8261 74.7948Z"
            fill="#070241"
    />
    <path
            d="M72.2616 74.7948C73.3402 74.7948 74.2146 73.9204 74.2146 72.8417C74.2146 71.7631 73.3402 70.8887 72.2616 70.8887C71.183 70.8887 70.3086 71.7631 70.3086 72.8417C70.3086 73.9204 71.183 74.7948 72.2616 74.7948Z"
            fill="#070241"
    />
    <path
            d="M95.6977 74.7948C96.7763 74.7948 97.6507 73.9204 97.6507 72.8417C97.6507 71.7631 96.7763 70.8887 95.6977 70.8887C94.619 70.8887 93.7446 71.7631 93.7446 72.8417C93.7446 73.9204 94.619 74.7948 95.6977 74.7948Z"
            fill="#070241"
    />
    <path
            d="M119.135 74.7948C120.213 74.7948 121.088 73.9204 121.088 72.8417C121.088 71.7631 120.213 70.8887 119.135 70.8887C118.056 70.8887 117.182 71.7631 117.182 72.8417C117.182 73.9204 118.056 74.7948 119.135 74.7948Z"
            fill="#070241"
    />
    <path
            d="M142.571 74.7948C143.65 74.7948 144.524 73.9204 144.524 72.8417C144.524 71.7631 143.65 70.8887 142.571 70.8887C141.493 70.8887 140.618 71.7631 140.618 72.8417C140.618 73.9204 141.493 74.7948 142.571 74.7948Z"
            fill="#070241"
    />
    <path
            d="M166.007 74.7948C167.086 74.7948 167.96 73.9204 167.96 72.8417C167.96 71.7631 167.086 70.8887 166.007 70.8887C164.929 70.8887 164.054 71.7631 164.054 72.8417C164.054 73.9204 164.929 74.7948 166.007 74.7948Z"
            fill="#070241"
    />
    <path
            d="M189.442 74.7948C190.521 74.7948 191.395 73.9204 191.395 72.8417C191.395 71.7631 190.521 70.8887 189.442 70.8887C188.364 70.8887 187.489 71.7631 187.489 72.8417C187.489 73.9204 188.364 74.7948 189.442 74.7948Z"
            fill="#070241"
    />
    <path
            d="M212.88 74.7948C213.958 74.7948 214.833 73.9204 214.833 72.8417C214.833 71.7631 213.958 70.8887 212.88 70.8887C211.801 70.8887 210.927 71.7631 210.927 72.8417C210.927 73.9204 211.801 74.7948 212.88 74.7948Z"
            fill="#070241"
    />
    <path
            d="M1.95302 98.231C3.03165 98.231 3.90605 97.3566 3.90605 96.278C3.90605 95.1994 3.03165 94.325 1.95302 94.325C0.874399 94.325 0 95.1994 0 96.278C0 97.3566 0.874399 98.231 1.95302 98.231Z"
            fill="#070241"
    />
    <path
            d="M25.3891 98.231C26.4677 98.231 27.3421 97.3566 27.3421 96.278C27.3421 95.1994 26.4677 94.325 25.3891 94.325C24.3104 94.325 23.436 95.1994 23.436 96.278C23.436 97.3566 24.3104 98.231 25.3891 98.231Z"
            fill="#070241"
    />
    <path
            d="M48.8261 98.231C49.9047 98.231 50.7791 97.3566 50.7791 96.278C50.7791 95.1994 49.9047 94.325 48.8261 94.325C47.7474 94.325 46.873 95.1994 46.873 96.278C46.873 97.3566 47.7474 98.231 48.8261 98.231Z"
            fill="#070241"
    />
    <path
            d="M72.2616 98.231C73.3402 98.231 74.2146 97.3566 74.2146 96.278C74.2146 95.1994 73.3402 94.325 72.2616 94.325C71.183 94.325 70.3086 95.1994 70.3086 96.278C70.3086 97.3566 71.183 98.231 72.2616 98.231Z"
            fill="#070241"
    />
    <path
            d="M95.6977 98.231C96.7763 98.231 97.6507 97.3566 97.6507 96.278C97.6507 95.1994 96.7763 94.325 95.6977 94.325C94.619 94.325 93.7446 95.1994 93.7446 96.278C93.7446 97.3566 94.619 98.231 95.6977 98.231Z"
            fill="#070241"
    />
    <path
            d="M119.135 98.231C120.213 98.231 121.088 97.3566 121.088 96.278C121.088 95.1994 120.213 94.325 119.135 94.325C118.056 94.325 117.182 95.1994 117.182 96.278C117.182 97.3566 118.056 98.231 119.135 98.231Z"
            fill="#070241"
    />
    <path
            d="M142.571 98.231C143.65 98.231 144.524 97.3566 144.524 96.278C144.524 95.1994 143.65 94.325 142.571 94.325C141.493 94.325 140.618 95.1994 140.618 96.278C140.618 97.3566 141.493 98.231 142.571 98.231Z"
            fill="#070241"
    />
    <path
            d="M166.007 98.231C167.086 98.231 167.96 97.3566 167.96 96.278C167.96 95.1994 167.086 94.325 166.007 94.325C164.929 94.325 164.054 95.1994 164.054 96.278C164.054 97.3566 164.929 98.231 166.007 98.231Z"
            fill="#070241"
    />
    <path
            d="M189.442 98.231C190.521 98.231 191.395 97.3566 191.395 96.278C191.395 95.1994 190.521 94.325 189.442 94.325C188.364 94.325 187.489 95.1994 187.489 96.278C187.489 97.3566 188.364 98.231 189.442 98.231Z"
            fill="#070241"
    />
    <path
            d="M212.88 98.231C213.958 98.231 214.833 97.3566 214.833 96.278C214.833 95.1994 213.958 94.325 212.88 94.325C211.801 94.325 210.927 95.1994 210.927 96.278C210.927 97.3566 211.801 98.231 212.88 98.231Z"
            fill="#070241"
    />
    <path
            d="M1.95302 121.667C3.03165 121.667 3.90605 120.793 3.90605 119.714C3.90605 118.636 3.03165 117.761 1.95302 117.761C0.874399 117.761 0 118.636 0 119.714C0 120.793 0.874399 121.667 1.95302 121.667Z"
            fill="#070241"
    />
    <path
            d="M25.3891 121.667C26.4677 121.667 27.3421 120.793 27.3421 119.714C27.3421 118.636 26.4677 117.761 25.3891 117.761C24.3104 117.761 23.436 118.636 23.436 119.714C23.436 120.793 24.3104 121.667 25.3891 121.667Z"
            fill="#070241"
    />
    <path
            d="M48.8261 121.667C49.9047 121.667 50.7791 120.793 50.7791 119.714C50.7791 118.636 49.9047 117.761 48.8261 117.761C47.7474 117.761 46.873 118.636 46.873 119.714C46.873 120.793 47.7474 121.667 48.8261 121.667Z"
            fill="#070241"
    />
    <path
            d="M72.2616 121.667C73.3402 121.667 74.2146 120.793 74.2146 119.714C74.2146 118.636 73.3402 117.761 72.2616 117.761C71.183 117.761 70.3086 118.636 70.3086 119.714C70.3086 120.793 71.183 121.667 72.2616 121.667Z"
            fill="#070241"
    />
    <path
            d="M95.6977 121.667C96.7763 121.667 97.6507 120.793 97.6507 119.714C97.6507 118.636 96.7763 117.761 95.6977 117.761C94.619 117.761 93.7446 118.636 93.7446 119.714C93.7446 120.793 94.619 121.667 95.6977 121.667Z"
            fill="#070241"
    />
    <path
            d="M119.135 121.667C120.213 121.667 121.088 120.793 121.088 119.714C121.088 118.636 120.213 117.761 119.135 117.761C118.056 117.761 117.182 118.636 117.182 119.714C117.182 120.793 118.056 121.667 119.135 121.667Z"
            fill="#070241"
    />
    <path
            d="M142.571 121.667C143.65 121.667 144.524 120.793 144.524 119.714C144.524 118.636 143.65 117.761 142.571 117.761C141.493 117.761 140.618 118.636 140.618 119.714C140.618 120.793 141.493 121.667 142.571 121.667Z"
            fill="#070241"
    />
    <path
            d="M166.007 121.667C167.086 121.667 167.96 120.793 167.96 119.714C167.96 118.636 167.086 117.761 166.007 117.761C164.929 117.761 164.054 118.636 164.054 119.714C164.054 120.793 164.929 121.667 166.007 121.667Z"
            fill="#070241"
    />
    <path
            d="M189.442 121.667C190.521 121.667 191.395 120.793 191.395 119.714C191.395 118.636 190.521 117.761 189.442 117.761C188.364 117.761 187.489 118.636 187.489 119.714C187.489 120.793 188.364 121.667 189.442 121.667Z"
            fill="#070241"
    />
    <path
            d="M212.88 121.667C213.958 121.667 214.833 120.793 214.833 119.714C214.833 118.636 213.958 117.761 212.88 117.761C211.801 117.761 210.927 118.636 210.927 119.714C210.927 120.793 211.801 121.667 212.88 121.667Z"
            fill="#070241"
    />
    <path
            d="M1.95302 145.104C3.03165 145.104 3.90605 144.229 3.90605 143.151C3.90605 142.072 3.03165 141.198 1.95302 141.198C0.874399 141.198 0 142.072 0 143.151C0 144.229 0.874399 145.104 1.95302 145.104Z"
            fill="#070241"
    />
    <path
            d="M25.3891 145.104C26.4677 145.104 27.3421 144.229 27.3421 143.151C27.3421 142.072 26.4677 141.198 25.3891 141.198C24.3104 141.198 23.436 142.072 23.436 143.151C23.436 144.229 24.3104 145.104 25.3891 145.104Z"
            fill="#070241"
    />
    <path
            d="M48.8261 145.104C49.9047 145.104 50.7791 144.229 50.7791 143.151C50.7791 142.072 49.9047 141.198 48.8261 141.198C47.7474 141.198 46.873 142.072 46.873 143.151C46.873 144.229 47.7474 145.104 48.8261 145.104Z"
            fill="#070241"
    />
    <path
            d="M72.2616 145.104C73.3402 145.104 74.2146 144.229 74.2146 143.151C74.2146 142.072 73.3402 141.198 72.2616 141.198C71.183 141.198 70.3086 142.072 70.3086 143.151C70.3086 144.229 71.183 145.104 72.2616 145.104Z"
            fill="#070241"
    />
    <path
            d="M95.6977 145.104C96.7763 145.104 97.6507 144.229 97.6507 143.151C97.6507 142.072 96.7763 141.198 95.6977 141.198C94.619 141.198 93.7446 142.072 93.7446 143.151C93.7446 144.229 94.619 145.104 95.6977 145.104Z"
            fill="#070241"
    />
    <path
            d="M119.135 145.104C120.213 145.104 121.088 144.229 121.088 143.151C121.088 142.072 120.213 141.198 119.135 141.198C118.056 141.198 117.182 142.072 117.182 143.151C117.182 144.229 118.056 145.104 119.135 145.104Z"
            fill="#070241"
    />
    <path
            d="M142.571 145.104C143.65 145.104 144.524 144.229 144.524 143.151C144.524 142.072 143.65 141.198 142.571 141.198C141.493 141.198 140.618 142.072 140.618 143.151C140.618 144.229 141.493 145.104 142.571 145.104Z"
            fill="#070241"
    />
    <path
            d="M166.007 145.104C167.086 145.104 167.96 144.229 167.96 143.151C167.96 142.072 167.086 141.198 166.007 141.198C164.929 141.198 164.054 142.072 164.054 143.151C164.054 144.229 164.929 145.104 166.007 145.104Z"
            fill="#070241"
    />
    <path
            d="M189.442 145.104C190.521 145.104 191.395 144.229 191.395 143.151C191.395 142.072 190.521 141.198 189.442 141.198C188.364 141.198 187.489 142.072 187.489 143.151C187.489 144.229 188.364 145.104 189.442 145.104Z"
            fill="#070241"
    />
    <path
            d="M212.88 145.104C213.958 145.104 214.833 144.229 214.833 143.151C214.833 142.072 213.958 141.198 212.88 141.198C211.801 141.198 210.927 142.072 210.927 143.151C210.927 144.229 211.801 145.104 212.88 145.104Z"
            fill="#070241"
    />
    <path
            d="M1.95302 168.54C3.03165 168.54 3.90605 167.666 3.90605 166.587C3.90605 165.508 3.03165 164.634 1.95302 164.634C0.874399 164.634 0 165.508 0 166.587C0 167.666 0.874399 168.54 1.95302 168.54Z"
            fill="#070241"
    />
    <path
            d="M25.3891 168.54C26.4677 168.54 27.3421 167.666 27.3421 166.587C27.3421 165.508 26.4677 164.634 25.3891 164.634C24.3104 164.634 23.436 165.508 23.436 166.587C23.436 167.666 24.3104 168.54 25.3891 168.54Z"
            fill="#070241"
    />
    <path
            d="M48.8261 168.54C49.9047 168.54 50.7791 167.666 50.7791 166.587C50.7791 165.508 49.9047 164.634 48.8261 164.634C47.7474 164.634 46.873 165.508 46.873 166.587C46.873 167.666 47.7474 168.54 48.8261 168.54Z"
            fill="#070241"
    />
    <path
            d="M72.2616 168.54C73.3402 168.54 74.2146 167.666 74.2146 166.587C74.2146 165.508 73.3402 164.634 72.2616 164.634C71.183 164.634 70.3086 165.508 70.3086 166.587C70.3086 167.666 71.183 168.54 72.2616 168.54Z"
            fill="#070241"
    />
    <path
            d="M95.6977 168.54C96.7763 168.54 97.6507 167.666 97.6507 166.587C97.6507 165.508 96.7763 164.634 95.6977 164.634C94.619 164.634 93.7446 165.508 93.7446 166.587C93.7446 167.666 94.619 168.54 95.6977 168.54Z"
            fill="#070241"
    />
    <path
            d="M119.135 168.54C120.213 168.54 121.088 167.666 121.088 166.587C121.088 165.508 120.213 164.634 119.135 164.634C118.056 164.634 117.182 165.508 117.182 166.587C117.182 167.666 118.056 168.54 119.135 168.54Z"
            fill="#070241"
    />
    <path
            d="M142.571 168.54C143.65 168.54 144.524 167.666 144.524 166.587C144.524 165.508 143.65 164.634 142.571 164.634C141.493 164.634 140.618 165.508 140.618 166.587C140.618 167.666 141.493 168.54 142.571 168.54Z"
            fill="#070241"
    />
    <path
            d="M166.007 168.54C167.086 168.54 167.96 167.666 167.96 166.587C167.96 165.508 167.086 164.634 166.007 164.634C164.929 164.634 164.054 165.508 164.054 166.587C164.054 167.666 164.929 168.54 166.007 168.54Z"
            fill="#070241"
    />
    <path
            d="M189.442 168.54C190.521 168.54 191.395 167.666 191.395 166.587C191.395 165.508 190.521 164.634 189.442 164.634C188.364 164.634 187.489 165.508 187.489 166.587C187.489 167.666 188.364 168.54 189.442 168.54Z"
            fill="#070241"
    />
    <path
            d="M212.88 168.54C213.958 168.54 214.833 167.666 214.833 166.587C214.833 165.508 213.958 164.634 212.88 164.634C211.801 164.634 210.927 165.508 210.927 166.587C210.927 167.666 211.801 168.54 212.88 168.54Z"
            fill="#070241"
    />
    <path
            d="M236.316 4.48591C237.394 4.48591 238.269 3.61151 238.269 2.53288C238.269 1.45426 237.394 0.579857 236.316 0.579857C235.237 0.579857 234.363 1.45426 234.363 2.53288C234.363 3.61151 235.237 4.48591 236.316 4.48591Z"
            fill="#070241"
    />
    <path
            d="M259.752 4.48591C260.831 4.48591 261.705 3.61151 261.705 2.53288C261.705 1.45426 260.831 0.579857 259.752 0.579857C258.674 0.579857 257.799 1.45426 257.799 2.53288C257.799 3.61151 258.674 4.48591 259.752 4.48591Z"
            fill="#070241"
    />
    <path
            d="M283.188 4.48591C284.267 4.48591 285.141 3.61151 285.141 2.53288C285.141 1.45426 284.267 0.579857 283.188 0.579857C282.11 0.579857 281.235 1.45426 281.235 2.53288C281.235 3.61151 282.11 4.48591 283.188 4.48591Z"
            fill="#070241"
    />
    <path
            d="M306.624 4.48591C307.703 4.48591 308.577 3.61151 308.577 2.53288C308.577 1.45426 307.703 0.579857 306.624 0.579857C305.546 0.579857 304.671 1.45426 304.671 2.53288C304.671 3.61151 305.546 4.48591 306.624 4.48591Z"
            fill="#070241"
    />
    <path
            d="M330.06 4.48591C331.139 4.48591 332.013 3.61151 332.013 2.53288C332.013 1.45426 331.139 0.579857 330.06 0.579857C328.982 0.579857 328.107 1.45426 328.107 2.53288C328.107 3.61151 328.982 4.48591 330.06 4.48591Z"
            fill="#070241"
    />
    <path
            d="M353.497 4.48591C354.576 4.48591 355.45 3.61151 355.45 2.53288C355.45 1.45426 354.576 0.579857 353.497 0.579857C352.418 0.579857 351.544 1.45426 351.544 2.53288C351.544 3.61151 352.418 4.48591 353.497 4.48591Z"
            fill="#070241"
    />
    <path
            d="M376.933 4.48591C378.012 4.48591 378.886 3.61151 378.886 2.53288C378.886 1.45426 378.012 0.579857 376.933 0.579857C375.854 0.579857 374.98 1.45426 374.98 2.53288C374.98 3.61151 375.854 4.48591 376.933 4.48591Z"
            fill="#070241"
    />
    <path
            d="M400.37 4.48591C401.448 4.48591 402.323 3.61151 402.323 2.53288C402.323 1.45426 401.448 0.579857 400.37 0.579857C399.291 0.579857 398.417 1.45426 398.417 2.53288C398.417 3.61151 399.291 4.48591 400.37 4.48591Z"
            fill="#070241"
    />
    <path
            d="M423.807 4.48591C424.885 4.48591 425.76 3.61151 425.76 2.53288C425.76 1.45426 424.885 0.579857 423.807 0.579857C422.728 0.579857 421.854 1.45426 421.854 2.53288C421.854 3.61151 422.728 4.48591 423.807 4.48591Z"
            fill="#070241"
    />
    <path
            d="M447.242 4.48591C448.32 4.48591 449.195 3.61151 449.195 2.53288C449.195 1.45426 448.32 0.579857 447.242 0.579857C446.163 0.579857 445.289 1.45426 445.289 2.53288C445.289 3.61151 446.163 4.48591 447.242 4.48591Z"
            fill="#070241"
    />
    <path
            d="M236.316 27.9222C237.394 27.9222 238.269 27.0478 238.269 25.9692C238.269 24.8905 237.394 24.0161 236.316 24.0161C235.237 24.0161 234.363 24.8905 234.363 25.9692C234.363 27.0478 235.237 27.9222 236.316 27.9222Z"
            fill="#070241"
    />
    <path
            d="M259.752 27.9222C260.831 27.9222 261.705 27.0478 261.705 25.9692C261.705 24.8905 260.831 24.0161 259.752 24.0161C258.674 24.0161 257.799 24.8905 257.799 25.9692C257.799 27.0478 258.674 27.9222 259.752 27.9222Z"
            fill="#070241"
    />
    <path
            d="M283.188 27.9222C284.267 27.9222 285.141 27.0478 285.141 25.9692C285.141 24.8905 284.267 24.0161 283.188 24.0161C282.11 24.0161 281.235 24.8905 281.235 25.9692C281.235 27.0478 282.11 27.9222 283.188 27.9222Z"
            fill="#070241"
    />
    <path
            d="M306.624 27.9222C307.703 27.9222 308.577 27.0478 308.577 25.9692C308.577 24.8905 307.703 24.0161 306.624 24.0161C305.546 24.0161 304.671 24.8905 304.671 25.9692C304.671 27.0478 305.546 27.9222 306.624 27.9222Z"
            fill="#070241"
    />
    <path
            d="M330.06 27.9222C331.139 27.9222 332.013 27.0478 332.013 25.9692C332.013 24.8905 331.139 24.0161 330.06 24.0161C328.982 24.0161 328.107 24.8905 328.107 25.9692C328.107 27.0478 328.982 27.9222 330.06 27.9222Z"
            fill="#070241"
    />
    <path
            d="M353.497 27.9222C354.576 27.9222 355.45 27.0478 355.45 25.9692C355.45 24.8905 354.576 24.0161 353.497 24.0161C352.418 24.0161 351.544 24.8905 351.544 25.9692C351.544 27.0478 352.418 27.9222 353.497 27.9222Z"
            fill="#070241"
    />
    <path
            d="M376.933 27.9222C378.012 27.9222 378.886 27.0478 378.886 25.9692C378.886 24.8905 378.012 24.0161 376.933 24.0161C375.854 24.0161 374.98 24.8905 374.98 25.9692C374.98 27.0478 375.854 27.9222 376.933 27.9222Z"
            fill="#070241"
    />
    <path
            d="M400.37 27.9222C401.448 27.9222 402.323 27.0478 402.323 25.9692C402.323 24.8905 401.448 24.0161 400.37 24.0161C399.291 24.0161 398.417 24.8905 398.417 25.9692C398.417 27.0478 399.291 27.9222 400.37 27.9222Z"
            fill="#070241"
    />
    <path
            d="M423.807 27.9222C424.885 27.9222 425.76 27.0478 425.76 25.9692C425.76 24.8905 424.885 24.0161 423.807 24.0161C422.728 24.0161 421.854 24.8905 421.854 25.9692C421.854 27.0478 422.728 27.9222 423.807 27.9222Z"
            fill="#070241"
    />
    <path
            d="M447.242 27.9222C448.32 27.9222 449.195 27.0478 449.195 25.9692C449.195 24.8905 448.32 24.0161 447.242 24.0161C446.163 24.0161 445.289 24.8905 445.289 25.9692C445.289 27.0478 446.163 27.9222 447.242 27.9222Z"
            fill="#070241"
    />
    <path
            d="M236.316 51.3585C237.394 51.3585 238.269 50.4841 238.269 49.4054C238.269 48.3268 237.394 47.4524 236.316 47.4524C235.237 47.4524 234.363 48.3268 234.363 49.4054C234.363 50.4841 235.237 51.3585 236.316 51.3585Z"
            fill="#070241"
    />
    <path
            d="M259.752 51.3585C260.831 51.3585 261.705 50.4841 261.705 49.4054C261.705 48.3268 260.831 47.4524 259.752 47.4524C258.674 47.4524 257.799 48.3268 257.799 49.4054C257.799 50.4841 258.674 51.3585 259.752 51.3585Z"
            fill="#070241"
    />
    <path
            d="M283.188 51.3585C284.267 51.3585 285.141 50.4841 285.141 49.4054C285.141 48.3268 284.267 47.4524 283.188 47.4524C282.11 47.4524 281.235 48.3268 281.235 49.4054C281.235 50.4841 282.11 51.3585 283.188 51.3585Z"
            fill="#070241"
    />
    <path
            d="M306.624 51.3585C307.703 51.3585 308.577 50.4841 308.577 49.4054C308.577 48.3268 307.703 47.4524 306.624 47.4524C305.546 47.4524 304.671 48.3268 304.671 49.4054C304.671 50.4841 305.546 51.3585 306.624 51.3585Z"
            fill="#070241"
    />
    <path
            d="M330.06 51.3585C331.139 51.3585 332.013 50.4841 332.013 49.4054C332.013 48.3268 331.139 47.4524 330.06 47.4524C328.982 47.4524 328.107 48.3268 328.107 49.4054C328.107 50.4841 328.982 51.3585 330.06 51.3585Z"
            fill="#070241"
    />
    <path
            d="M353.497 51.3585C354.576 51.3585 355.45 50.4841 355.45 49.4054C355.45 48.3268 354.576 47.4524 353.497 47.4524C352.418 47.4524 351.544 48.3268 351.544 49.4054C351.544 50.4841 352.418 51.3585 353.497 51.3585Z"
            fill="#070241"
    />
    <path
            d="M376.933 51.3585C378.012 51.3585 378.886 50.4841 378.886 49.4054C378.886 48.3268 378.012 47.4524 376.933 47.4524C375.854 47.4524 374.98 48.3268 374.98 49.4054C374.98 50.4841 375.854 51.3585 376.933 51.3585Z"
            fill="#070241"
    />
    <path
            d="M400.37 51.3585C401.448 51.3585 402.323 50.4841 402.323 49.4054C402.323 48.3268 401.448 47.4524 400.37 47.4524C399.291 47.4524 398.417 48.3268 398.417 49.4054C398.417 50.4841 399.291 51.3585 400.37 51.3585Z"
            fill="#070241"
    />
    <path
            d="M423.807 51.3585C424.885 51.3585 425.76 50.4841 425.76 49.4054C425.76 48.3268 424.885 47.4524 423.807 47.4524C422.728 47.4524 421.854 48.3268 421.854 49.4054C421.854 50.4841 422.728 51.3585 423.807 51.3585Z"
            fill="#070241"
    />
    <path
            d="M447.242 51.3585C448.32 51.3585 449.195 50.4841 449.195 49.4054C449.195 48.3268 448.32 47.4524 447.242 47.4524C446.163 47.4524 445.289 48.3268 445.289 49.4054C445.289 50.4841 446.163 51.3585 447.242 51.3585Z"
            fill="#070241"
    />
    <path
            d="M236.316 74.7948C237.394 74.7948 238.269 73.9204 238.269 72.8417C238.269 71.7631 237.394 70.8887 236.316 70.8887C235.237 70.8887 234.363 71.7631 234.363 72.8417C234.363 73.9204 235.237 74.7948 236.316 74.7948Z"
            fill="#070241"
    />
    <path
            d="M259.752 74.7948C260.831 74.7948 261.705 73.9204 261.705 72.8417C261.705 71.7631 260.831 70.8887 259.752 70.8887C258.674 70.8887 257.799 71.7631 257.799 72.8417C257.799 73.9204 258.674 74.7948 259.752 74.7948Z"
            fill="#070241"
    />
    <path
            d="M283.188 74.7948C284.267 74.7948 285.141 73.9204 285.141 72.8417C285.141 71.7631 284.267 70.8887 283.188 70.8887C282.11 70.8887 281.235 71.7631 281.235 72.8417C281.235 73.9204 282.11 74.7948 283.188 74.7948Z"
            fill="#070241"
    />
    <path
            d="M306.624 74.7948C307.703 74.7948 308.577 73.9204 308.577 72.8417C308.577 71.7631 307.703 70.8887 306.624 70.8887C305.546 70.8887 304.671 71.7631 304.671 72.8417C304.671 73.9204 305.546 74.7948 306.624 74.7948Z"
            fill="#070241"
    />
    <path
            d="M330.06 74.7948C331.139 74.7948 332.013 73.9204 332.013 72.8417C332.013 71.7631 331.139 70.8887 330.06 70.8887C328.982 70.8887 328.107 71.7631 328.107 72.8417C328.107 73.9204 328.982 74.7948 330.06 74.7948Z"
            fill="#070241"
    />
    <path
            d="M353.497 74.7948C354.576 74.7948 355.45 73.9204 355.45 72.8417C355.45 71.7631 354.576 70.8887 353.497 70.8887C352.418 70.8887 351.544 71.7631 351.544 72.8417C351.544 73.9204 352.418 74.7948 353.497 74.7948Z"
            fill="#070241"
    />
    <path
            d="M376.933 74.7948C378.012 74.7948 378.886 73.9204 378.886 72.8417C378.886 71.7631 378.012 70.8887 376.933 70.8887C375.854 70.8887 374.98 71.7631 374.98 72.8417C374.98 73.9204 375.854 74.7948 376.933 74.7948Z"
            fill="#070241"
    />
    <path
            d="M400.37 74.7948C401.448 74.7948 402.323 73.9204 402.323 72.8417C402.323 71.7631 401.448 70.8887 400.37 70.8887C399.291 70.8887 398.417 71.7631 398.417 72.8417C398.417 73.9204 399.291 74.7948 400.37 74.7948Z"
            fill="#070241"
    />
    <path
            d="M423.807 74.7948C424.885 74.7948 425.76 73.9204 425.76 72.8417C425.76 71.7631 424.885 70.8887 423.807 70.8887C422.728 70.8887 421.854 71.7631 421.854 72.8417C421.854 73.9204 422.728 74.7948 423.807 74.7948Z"
            fill="#070241"
    />
    <path
            d="M447.242 74.7948C448.32 74.7948 449.195 73.9204 449.195 72.8417C449.195 71.7631 448.32 70.8887 447.242 70.8887C446.163 70.8887 445.289 71.7631 445.289 72.8417C445.289 73.9204 446.163 74.7948 447.242 74.7948Z"
            fill="#070241"
    />
    <path
            d="M236.316 98.231C237.394 98.231 238.269 97.3566 238.269 96.278C238.269 95.1994 237.394 94.325 236.316 94.325C235.237 94.325 234.363 95.1994 234.363 96.278C234.363 97.3566 235.237 98.231 236.316 98.231Z"
            fill="#070241"
    />
    <path
            d="M259.752 98.231C260.831 98.231 261.705 97.3566 261.705 96.278C261.705 95.1994 260.831 94.325 259.752 94.325C258.674 94.325 257.799 95.1994 257.799 96.278C257.799 97.3566 258.674 98.231 259.752 98.231Z"
            fill="#070241"
    />
    <path
            d="M283.188 98.231C284.267 98.231 285.141 97.3566 285.141 96.278C285.141 95.1994 284.267 94.325 283.188 94.325C282.11 94.325 281.235 95.1994 281.235 96.278C281.235 97.3566 282.11 98.231 283.188 98.231Z"
            fill="#070241"
    />
    <path
            d="M306.624 98.231C307.703 98.231 308.577 97.3566 308.577 96.278C308.577 95.1994 307.703 94.325 306.624 94.325C305.546 94.325 304.671 95.1994 304.671 96.278C304.671 97.3566 305.546 98.231 306.624 98.231Z"
            fill="#070241"
    />
    <path
            d="M330.06 98.231C331.139 98.231 332.013 97.3566 332.013 96.278C332.013 95.1994 331.139 94.325 330.06 94.325C328.982 94.325 328.107 95.1994 328.107 96.278C328.107 97.3566 328.982 98.231 330.06 98.231Z"
            fill="#070241"
    />
    <path
            d="M353.497 98.231C354.576 98.231 355.45 97.3566 355.45 96.278C355.45 95.1994 354.576 94.325 353.497 94.325C352.418 94.325 351.544 95.1994 351.544 96.278C351.544 97.3566 352.418 98.231 353.497 98.231Z"
            fill="#070241"
    />
    <path
            d="M376.933 98.231C378.012 98.231 378.886 97.3566 378.886 96.278C378.886 95.1994 378.012 94.325 376.933 94.325C375.854 94.325 374.98 95.1994 374.98 96.278C374.98 97.3566 375.854 98.231 376.933 98.231Z"
            fill="#070241"
    />
    <path
            d="M400.37 98.231C401.448 98.231 402.323 97.3566 402.323 96.278C402.323 95.1994 401.448 94.325 400.37 94.325C399.291 94.325 398.417 95.1994 398.417 96.278C398.417 97.3566 399.291 98.231 400.37 98.231Z"
            fill="#070241"
    />
    <path
            d="M423.807 98.231C424.885 98.231 425.76 97.3566 425.76 96.278C425.76 95.1994 424.885 94.325 423.807 94.325C422.728 94.325 421.854 95.1994 421.854 96.278C421.854 97.3566 422.728 98.231 423.807 98.231Z"
            fill="#070241"
    />
    <path
            d="M447.242 98.231C448.32 98.231 449.195 97.3566 449.195 96.278C449.195 95.1994 448.32 94.325 447.242 94.325C446.163 94.325 445.289 95.1994 445.289 96.278C445.289 97.3566 446.163 98.231 447.242 98.231Z"
            fill="#070241"
    />
    <path
            d="M236.316 121.667C237.394 121.667 238.269 120.793 238.269 119.714C238.269 118.636 237.394 117.761 236.316 117.761C235.237 117.761 234.363 118.636 234.363 119.714C234.363 120.793 235.237 121.667 236.316 121.667Z"
            fill="#070241"
    />
    <path
            d="M259.752 121.667C260.831 121.667 261.705 120.793 261.705 119.714C261.705 118.636 260.831 117.761 259.752 117.761C258.674 117.761 257.799 118.636 257.799 119.714C257.799 120.793 258.674 121.667 259.752 121.667Z"
            fill="#070241"
    />
    <path
            d="M283.188 121.667C284.267 121.667 285.141 120.793 285.141 119.714C285.141 118.636 284.267 117.761 283.188 117.761C282.11 117.761 281.235 118.636 281.235 119.714C281.235 120.793 282.11 121.667 283.188 121.667Z"
            fill="#070241"
    />
    <path
            d="M306.624 121.667C307.703 121.667 308.577 120.793 308.577 119.714C308.577 118.636 307.703 117.761 306.624 117.761C305.546 117.761 304.671 118.636 304.671 119.714C304.671 120.793 305.546 121.667 306.624 121.667Z"
            fill="#070241"
    />
    <path
            d="M330.06 121.667C331.139 121.667 332.013 120.793 332.013 119.714C332.013 118.636 331.139 117.761 330.06 117.761C328.982 117.761 328.107 118.636 328.107 119.714C328.107 120.793 328.982 121.667 330.06 121.667Z"
            fill="#070241"
    />
    <path
            d="M353.497 121.667C354.576 121.667 355.45 120.793 355.45 119.714C355.45 118.636 354.576 117.761 353.497 117.761C352.418 117.761 351.544 118.636 351.544 119.714C351.544 120.793 352.418 121.667 353.497 121.667Z"
            fill="#070241"
    />
    <path
            d="M376.933 121.667C378.012 121.667 378.886 120.793 378.886 119.714C378.886 118.636 378.012 117.761 376.933 117.761C375.854 117.761 374.98 118.636 374.98 119.714C374.98 120.793 375.854 121.667 376.933 121.667Z"
            fill="#070241"
    />
    <path
            d="M400.37 121.667C401.448 121.667 402.323 120.793 402.323 119.714C402.323 118.636 401.448 117.761 400.37 117.761C399.291 117.761 398.417 118.636 398.417 119.714C398.417 120.793 399.291 121.667 400.37 121.667Z"
            fill="#070241"
    />
    <path
            d="M423.807 121.667C424.885 121.667 425.76 120.793 425.76 119.714C425.76 118.636 424.885 117.761 423.807 117.761C422.728 117.761 421.854 118.636 421.854 119.714C421.854 120.793 422.728 121.667 423.807 121.667Z"
            fill="#070241"
    />
    <path
            d="M447.242 121.667C448.32 121.667 449.195 120.793 449.195 119.714C449.195 118.636 448.32 117.761 447.242 117.761C446.163 117.761 445.289 118.636 445.289 119.714C445.289 120.793 446.163 121.667 447.242 121.667Z"
            fill="#070241"
    />
    <path
            d="M236.316 145.104C237.394 145.104 238.269 144.229 238.269 143.151C238.269 142.072 237.394 141.198 236.316 141.198C235.237 141.198 234.363 142.072 234.363 143.151C234.363 144.229 235.237 145.104 236.316 145.104Z"
            fill="#070241"
    />
    <path
            d="M259.752 145.104C260.831 145.104 261.705 144.229 261.705 143.151C261.705 142.072 260.831 141.198 259.752 141.198C258.674 141.198 257.799 142.072 257.799 143.151C257.799 144.229 258.674 145.104 259.752 145.104Z"
            fill="#070241"
    />
    <path
            d="M283.188 145.104C284.267 145.104 285.141 144.229 285.141 143.151C285.141 142.072 284.267 141.198 283.188 141.198C282.11 141.198 281.235 142.072 281.235 143.151C281.235 144.229 282.11 145.104 283.188 145.104Z"
            fill="#070241"
    />
    <path
            d="M306.624 145.104C307.703 145.104 308.577 144.229 308.577 143.151C308.577 142.072 307.703 141.198 306.624 141.198C305.546 141.198 304.671 142.072 304.671 143.151C304.671 144.229 305.546 145.104 306.624 145.104Z"
            fill="#070241"
    />
    <path
            d="M330.06 145.104C331.139 145.104 332.013 144.229 332.013 143.151C332.013 142.072 331.139 141.198 330.06 141.198C328.982 141.198 328.107 142.072 328.107 143.151C328.107 144.229 328.982 145.104 330.06 145.104Z"
            fill="#070241"
    />
    <path
            d="M353.497 145.104C354.576 145.104 355.45 144.229 355.45 143.151C355.45 142.072 354.576 141.198 353.497 141.198C352.418 141.198 351.544 142.072 351.544 143.151C351.544 144.229 352.418 145.104 353.497 145.104Z"
            fill="#070241"
    />
    <path
            d="M376.933 145.104C378.012 145.104 378.886 144.229 378.886 143.151C378.886 142.072 378.012 141.198 376.933 141.198C375.854 141.198 374.98 142.072 374.98 143.151C374.98 144.229 375.854 145.104 376.933 145.104Z"
            fill="#070241"
    />
    <path
            d="M400.37 145.104C401.448 145.104 402.323 144.229 402.323 143.151C402.323 142.072 401.448 141.198 400.37 141.198C399.291 141.198 398.417 142.072 398.417 143.151C398.417 144.229 399.291 145.104 400.37 145.104Z"
            fill="#070241"
    />
    <path
            d="M423.807 145.104C424.885 145.104 425.76 144.229 425.76 143.151C425.76 142.072 424.885 141.198 423.807 141.198C422.728 141.198 421.854 142.072 421.854 143.151C421.854 144.229 422.728 145.104 423.807 145.104Z"
            fill="#070241"
    />
    <path
            d="M447.242 145.104C448.32 145.104 449.195 144.229 449.195 143.151C449.195 142.072 448.32 141.198 447.242 141.198C446.163 141.198 445.289 142.072 445.289 143.151C445.289 144.229 446.163 145.104 447.242 145.104Z"
            fill="#070241"
    />
    <path
            d="M236.316 168.54C237.394 168.54 238.269 167.666 238.269 166.587C238.269 165.508 237.394 164.634 236.316 164.634C235.237 164.634 234.363 165.508 234.363 166.587C234.363 167.666 235.237 168.54 236.316 168.54Z"
            fill="#070241"
    />
    <path
            d="M259.752 168.54C260.831 168.54 261.705 167.666 261.705 166.587C261.705 165.508 260.831 164.634 259.752 164.634C258.674 164.634 257.799 165.508 257.799 166.587C257.799 167.666 258.674 168.54 259.752 168.54Z"
            fill="#070241"
    />
    <path
            d="M283.188 168.54C284.267 168.54 285.141 167.666 285.141 166.587C285.141 165.508 284.267 164.634 283.188 164.634C282.11 164.634 281.235 165.508 281.235 166.587C281.235 167.666 282.11 168.54 283.188 168.54Z"
            fill="#070241"
    />
    <path
            d="M306.624 168.54C307.703 168.54 308.577 167.666 308.577 166.587C308.577 165.508 307.703 164.634 306.624 164.634C305.546 164.634 304.671 165.508 304.671 166.587C304.671 167.666 305.546 168.54 306.624 168.54Z"
            fill="#070241"
    />
    <path
            d="M330.06 168.54C331.139 168.54 332.013 167.666 332.013 166.587C332.013 165.508 331.139 164.634 330.06 164.634C328.982 164.634 328.107 165.508 328.107 166.587C328.107 167.666 328.982 168.54 330.06 168.54Z"
            fill="#070241"
    />
    <path
            d="M353.497 168.54C354.576 168.54 355.45 167.666 355.45 166.587C355.45 165.508 354.576 164.634 353.497 164.634C352.418 164.634 351.544 165.508 351.544 166.587C351.544 167.666 352.418 168.54 353.497 168.54Z"
            fill="#070241"
    />
    <path
            d="M376.933 168.54C378.012 168.54 378.886 167.666 378.886 166.587C378.886 165.508 378.012 164.634 376.933 164.634C375.854 164.634 374.98 165.508 374.98 166.587C374.98 167.666 375.854 168.54 376.933 168.54Z"
            fill="#070241"
    />
    <path
            d="M400.37 168.54C401.448 168.54 402.323 167.666 402.323 166.587C402.323 165.508 401.448 164.634 400.37 164.634C399.291 164.634 398.417 165.508 398.417 166.587C398.417 167.666 399.291 168.54 400.37 168.54Z"
            fill="#070241"
    />
    <path
            d="M423.807 168.54C424.885 168.54 425.76 167.666 425.76 166.587C425.76 165.508 424.885 164.634 423.807 164.634C422.728 164.634 421.854 165.508 421.854 166.587C421.854 167.666 422.728 168.54 423.807 168.54Z"
            fill="#070241"
    />
    <path
            d="M447.242 168.54C448.32 168.54 449.195 167.666 449.195 166.587C449.195 165.508 448.32 164.634 447.242 164.634C446.163 164.634 445.289 165.508 445.289 166.587C445.289 167.666 446.163 168.54 447.242 168.54Z"
            fill="#070241"
    />
</svg>