<svg width="419" height="414" viewBox="0 0 419 414" fill="none" xmlns="http://www.w3.org/2000/svg">
    <g style="mix-blend-mode:multiply">
        <path d="M101.626 20.1354L381.311 25.5397C389.615 25.6715 396.073 32.6576 395.678 40.9618L376.303 456.305C375.907 464.082 369.449 470.277 361.673 470.277H50.2232C41.3924 470.277 34.5387 462.632 35.5931 453.8L86.7325 33.053C87.6551 25.5397 94.1134 20.0035 101.626 20.1354Z" fill="url(#paint0_linear)"/>
    </g>
    <path d="M88.4628 0.824784L375.265 6.36094C381.46 6.49275 386.336 11.6335 386.073 17.8287L366.434 440.421C366.171 446.221 361.294 450.834 355.495 450.834H36.1373C29.5471 450.834 24.4068 445.035 25.1976 438.576L77.3914 10.4471C78.0504 4.91099 82.7953 0.692971 88.4628 0.824784Z" fill="#FFE6AD"/>
    <path d="M93.8491 121.499L92.0039 147.071H304.338L306.447 121.499H93.8491Z" fill="#F8CE8F"/>
    <g style="mix-blend-mode:multiply">
        <path d="M63.0083 82.8785L57.3408 129.013L389.351 121.5L396.337 67.9836L63.0083 82.8785Z" fill="url(#paint1_linear)"/>
    </g>
    <path d="M86.9953 185.824L178.071 186.747L177.807 204.146L85.9409 203.224L86.9953 185.824Z" fill="#485095"/>
    <path d="M63.6662 364.299L154.742 365.222L154.61 382.753L62.6118 381.83L63.6662 364.299Z" fill="#485095"/>
    <path d="M323.666 163.902L90.3989 166.332L90.4401 170.286L323.707 167.856L323.666 163.902Z" fill="#F8CE8F"/>
    <path d="M68.7035 307.015L68.5957 310.968L336.443 318.273L336.551 314.321L68.7035 307.015Z" fill="#F8CE8F"/>
    <path d="M65.8104 338.956L65.7026 342.909L333.55 350.215L333.658 346.262L65.8104 338.956Z" fill="#F8CE8F"/>
    <path d="M100.439 26.3304L98.3306 55.9884H344.142L346.646 26.3304H100.439Z" fill="#F8CE8F"/>
    <path d="M414.915 21.1494L29.6924 44.2601L32.9519 98.6009L418.175 75.4902L414.915 21.1494Z" fill="#36353D"/>
    <g style="mix-blend-mode:multiply">
        <path d="M211.813 76.2878C211.813 76.2878 197.051 74.9697 199.555 88.6782L260.975 180.947L284.041 177.652L211.813 76.2878Z" fill="url(#paint2_linear)"/>
    </g>
    <g style="mix-blend-mode:multiply">
        <path d="M375.512 66.7971C388.76 66.7971 399.5 56.0564 399.5 42.8071C399.5 29.5578 388.76 18.8171 375.512 18.8171C362.264 18.8171 351.524 29.5578 351.524 42.8071C351.524 56.0564 362.264 66.7971 375.512 66.7971Z" fill="url(#paint3_linear)"/>
    </g>
    <path d="M382.234 62.0519C395.482 62.0519 406.222 51.3112 406.222 38.0619C406.222 24.8126 395.482 14.0719 382.234 14.0719C368.985 14.0719 358.246 24.8126 358.246 38.0619C358.246 51.3112 368.985 62.0519 382.234 62.0519Z" fill="white"/>
    <path d="M381.575 43.3345L376.698 25.2761L384.343 23.6943L387.111 42.1481L381.575 43.3345ZM386.452 52.825C383.947 53.3522 381.839 51.9023 381.311 49.3978C380.784 46.8934 382.102 44.7844 384.606 44.2572C387.111 43.7299 389.088 45.1798 389.747 47.6843C390.274 50.0569 388.956 52.2977 386.452 52.825Z" fill="#F7A429"/>
    <g style="mix-blend-mode:multiply">
        <path d="M92.7957 192.283V280.334L72.6299 277.434L92.7957 192.283Z" fill="url(#paint4_linear)"/>
    </g>
    <path d="M17.7994 189.383L92.7951 192.283L83.1735 278.357L12.5273 272.689L0.928711 261.88L17.7994 189.383Z" fill="#FFC633"/>
    <path d="M83.964 203.224C83.964 203.224 83.8322 203.224 83.964 203.224L15.6903 200.192C14.6359 200.192 13.7133 199.269 13.8451 198.083C13.8451 197.028 14.8995 196.106 15.954 196.237L84.0958 199.269C85.1503 199.269 86.0729 200.192 85.9411 201.378C85.8093 202.301 85.0184 203.224 83.964 203.224Z" fill="#FFB200"/>
    <g style="mix-blend-mode:multiply">
        <path d="M192.702 260.826L190.461 340.968L155.006 339.782L192.702 260.826Z" fill="url(#paint5_linear)"/>
    </g>
    <path d="M121.66 245.008C121.66 245.008 122.055 251.467 121.66 260.826C121.66 260.826 111.906 314.737 108.611 333.85C108.611 333.85 158.96 342.023 180.444 340.705C180.444 340.705 192.174 272.162 192.569 260.694C192.965 249.358 192.965 249.358 192.965 249.358L121.66 245.008Z" fill="#FFC633"/>
    <path d="M182.158 262.803C182.158 262.803 182.026 262.803 182.158 262.803L126.405 259.64C125.351 259.64 124.428 258.585 124.56 257.531C124.56 256.476 125.483 255.553 126.669 255.685L182.289 258.849C183.344 258.849 184.266 259.903 184.135 260.958C184.003 262.012 183.212 262.803 182.158 262.803Z" fill="#FFB200"/>
    <path d="M415.711 515.357C420.588 500.725 424.674 494.662 379.07 456.304C333.466 417.947 317.65 396.066 283.645 393.034C249.508 390.002 241.073 419.265 252.012 442.332C262.952 465.399 291.158 480.426 310.665 502.966C330.171 525.506 356.005 536.051 371.953 539.083C393.7 543.301 410.307 531.57 415.711 515.357Z" fill="#FFB200"/>
    <path d="M22.6761 207.046L57.3402 208.892L53.1225 238.549L18.1948 235.518L22.6761 207.046Z" fill="#FFD66C"/>
    <path d="M129.173 267.944L149.471 268.998L146.967 286.398L126.537 284.684L129.173 267.944Z" fill="#FFB200"/>
    <path d="M146.967 286.398L167.396 287.452L164.892 304.851L144.331 303.138L146.967 286.398Z" fill="#FF9B00"/>
    <path d="M160.014 272.162L170.031 272.689L168.845 281.257L158.696 280.334L160.014 272.162Z" fill="#FFD66C"/>
    <path d="M0.928711 261.88L14.109 263.33L12.5273 272.689L0.928711 261.88Z" fill="#FFB200"/>
    <path d="M61.1423 66.0605C60.502 62.4752 57.6516 60.5547 54.034 60.7604C49.905 60.9952 46.9187 64.0899 47.2095 69.2035C47.4994 74.3017 50.7647 77.0563 54.9471 76.8184C58.954 76.5906 61.2219 73.7894 61.417 70.8916L58.0733 71.0665C57.8554 72.7557 56.5974 73.792 54.8343 73.8923C52.4607 74.0273 50.7501 72.3558 50.56 69.0129C50.3751 65.7616 51.8571 63.8167 54.2765 63.6792C56.0853 63.5763 57.4499 64.5477 57.7994 66.2506L61.1423 66.0605ZM82.5802 67.192C82.2894 62.0785 78.9487 59.3435 74.8044 59.5792C70.6373 59.8162 67.651 62.9109 67.9418 68.0245C68.2313 73.1151 71.5504 75.8742 75.7176 75.6373C79.8619 75.4016 82.871 72.3056 82.5802 67.192ZM79.2297 67.3825C79.4181 70.6949 77.9479 72.5779 75.5514 72.7142C73.1472 72.8509 71.4806 71.1463 71.2923 67.8339C71.1039 64.5216 72.5665 62.639 74.9706 62.5023C77.3671 62.366 79.0414 64.0702 79.2297 67.3825ZM98.8326 58.4272L99.4137 68.6466C99.5088 70.3181 98.2156 71.41 96.3687 71.515C94.5446 71.6187 93.1359 70.6805 93.0409 69.009L92.4597 58.7896L89.155 58.9775L89.7427 69.3115C89.9441 72.8528 92.743 74.6767 96.5362 74.461C100.314 74.2462 102.903 72.1158 102.702 68.5745L102.114 58.2405L98.8326 58.4272ZM110.293 73.4566L113.598 73.2687L113.283 67.7277L115.695 67.5906L118.971 72.9631L122.619 72.7557L118.954 66.8693C120.689 66.0049 121.585 64.3996 121.464 62.2626C121.287 59.1563 119.12 57.2735 115.571 57.4753L109.405 57.826L110.293 73.4566ZM113.132 65.0718L112.863 60.3398L115.092 60.2131C117 60.1046 117.971 60.8992 118.06 62.4562C118.148 64.0055 117.269 64.8365 115.376 64.9441L113.132 65.0718ZM127.64 59.5225L132.425 59.2503L133.159 72.1563L136.425 71.9705L135.692 59.0646L140.477 58.7924L140.322 56.0678L127.485 56.7978L127.64 59.5225ZM170.655 59.8327C170.015 56.2475 167.165 54.3269 163.547 54.5326C159.418 54.7674 156.432 57.8622 156.722 62.9757C157.012 68.074 160.278 70.8285 164.46 70.5907C168.467 70.3628 170.735 67.5616 170.93 64.6639L167.586 64.8387C167.368 66.528 166.11 67.5643 164.347 67.6645C161.974 67.7995 160.263 66.128 160.073 62.7852C159.888 59.5339 161.37 57.589 163.789 57.4514C165.598 57.3485 166.963 58.3199 167.312 60.0228L170.655 59.8327ZM180.868 69.4432L181.825 65.813L187.466 65.4923L188.828 68.9905L192.37 68.7891L186.093 53.4649L181.834 53.7071L177.327 69.6446L180.868 69.4432ZM182.518 63.1856L184.105 57.1613L184.227 57.1544L186.487 62.9599L182.518 63.1856ZM206.312 56.825L209.479 56.6448C209.275 53.8617 206.876 52.0686 203.395 52.2665C199.969 52.4614 197.565 54.497 197.742 57.3353C197.865 59.6406 199.566 60.8685 202.243 61.3518L203.969 61.6824C205.695 61.9978 206.669 62.4324 206.736 63.4852C206.794 64.6305 205.754 65.4706 204.075 65.5661C202.358 65.6637 201.076 64.9403 200.881 63.3818L197.683 63.5636C197.959 66.9399 200.478 68.5501 204.271 68.3344C208.087 68.1174 210.227 66.1657 210.072 63.3032C209.916 60.7011 207.876 59.4312 205.124 58.9751L203.701 58.7192C202.325 58.4835 201.159 58.0444 201.118 56.9212C201.061 55.9138 201.912 55.1227 203.53 55.0307C205.109 54.9408 206.12 55.6031 206.312 56.825ZM217.12 67.3816L227.683 66.7809L227.528 64.0563L220.27 64.469L220.057 60.7369L226.743 60.3567L226.588 57.632L219.902 58.0122L219.691 54.2877L226.918 53.8767L226.763 51.152L216.231 51.751L217.12 67.3816ZM242.697 54.7558L245.864 54.5757C245.66 51.7925 243.261 49.9994 239.781 50.1974C236.354 50.3922 233.951 52.4278 234.127 55.2661C234.251 57.5714 235.951 58.7994 238.628 59.2827L240.355 59.6133C242.08 59.9286 243.054 60.3633 243.122 61.4161C243.179 62.5613 242.14 63.4014 240.461 63.4969C238.743 63.5946 237.462 62.8711 237.266 61.3126L234.068 61.4945C234.344 64.8707 236.863 66.4809 240.656 66.2652C244.472 66.0482 246.612 64.0965 246.457 61.234C246.302 58.6319 244.262 57.362 241.51 56.906L240.086 56.65C238.71 56.4143 237.544 55.9753 237.503 54.8521C237.446 53.8446 238.297 53.0535 239.915 52.9615C241.495 52.8717 242.505 53.534 242.697 54.7558Z" fill="white"/>
    <defs>
        <linearGradient id="paint0_linear" x1="222.949" y1="266.333" x2="331.312" y2="539.045" gradientUnits="userSpaceOnUse">
            <stop stop-color="#BD9953"/>
            <stop offset="0.998" stop-color="white" stop-opacity="0"/>
        </linearGradient>
        <linearGradient id="paint1_linear" x1="80.5158" y1="107.614" x2="423.196" y2="93.4908" gradientUnits="userSpaceOnUse">
            <stop stop-color="#D0AD93"/>
            <stop offset="0.998" stop-color="white" stop-opacity="0"/>
        </linearGradient>
        <linearGradient id="paint2_linear" x1="220.922" y1="81.7313" x2="268.659" y2="198.756" gradientUnits="userSpaceOnUse">
            <stop stop-color="#93CAD0"/>
            <stop offset="0.998" stop-color="white" stop-opacity="0"/>
        </linearGradient>
        <linearGradient id="paint3_linear" x1="351.501" y1="42.7459" x2="399.588" y2="42.7459" gradientUnits="userSpaceOnUse">
            <stop stop-color="#93CAD0"/>
            <stop offset="0.998" stop-color="white" stop-opacity="0"/>
        </linearGradient>
        <linearGradient id="paint4_linear" x1="92.6674" y1="306.28" x2="80.8975" y2="221.868" gradientUnits="userSpaceOnUse">
            <stop offset="0.00200123" stop-color="white" stop-opacity="0"/>
            <stop offset="1" stop-color="#93CAD0"/>
        </linearGradient>
        <linearGradient id="paint5_linear" x1="171.462" y1="348.566" x2="178.768" y2="301.895" gradientUnits="userSpaceOnUse">
            <stop offset="0.00200123" stop-color="white" stop-opacity="0"/>
            <stop offset="1" stop-color="#93CAD0"/>
        </linearGradient>
    </defs>
</svg>
