<svg width="830" height="438" viewBox="0 0 830 438" fill="none" xmlns="http://www.w3.org/2000/svg">
    <path d="M96.2285 115.357H796.838" stroke="#E0E7FF" stroke-width="3.30476" stroke-dasharray="19.83"/>
    <path d="M96.2285 198.548H796.838" stroke="#E0E7FF" stroke-width="3.30476" stroke-dasharray="19.83"/>
    <path d="M96.2285 281.739H796.838" stroke="#E0E7FF" stroke-width="3.30476" stroke-dasharray="19.83"/>
    <path d="M96.2285 367.377H796.838" stroke="#E0E7FF" stroke-width="3.30476" stroke-dasharray="19.83"/>
    <rect x="119.362" y="153.79" width="62.7905" height="218.114" rx="9.91429" fill="#7A72DC"/>
    <rect x="235" y="76" width="63" height="299" rx="9.91429" fill="#58B72B"/>
    <rect x="353" y="206.667" width="62.7905" height="161.933" rx="9.91429" fill="#F2994A"/>
    <rect x="470" y="153.79" width="62.7905" height="218.114" rx="9.91429" fill="#66C9E8"/>
    <rect x="587" y="163.705" width="62.7905" height="204.895" rx="9.91429" fill="#35D3B7"/>
    <rect x="704" y="206.667" width="62.7905" height="161.933" rx="9.91429" fill="#BCC924"/>
    <path d="M82.2512 374.036C85.1404 374.036 86.8024 371.588 86.8024 367.312C86.8024 363.067 85.1149 360.587 82.2512 360.587C79.3876 360.587 77.7001 363.067 77.7001 367.312C77.7001 371.588 79.362 374.036 82.2512 374.036ZM82.2512 372.63C80.3464 372.63 79.2342 370.719 79.2342 367.312C79.2342 363.911 80.3592 361.968 82.2512 361.968C84.1433 361.968 85.2683 363.911 85.2683 367.312C85.2683 370.719 84.1561 372.63 82.2512 372.63Z" fill="#81808E"/>
    <path d="M72.345 276.578C69.6859 276.546 67.9728 278.546 67.9728 280.95C67.9728 283.481 69.8393 285.296 72.0893 285.296C73.4444 285.296 74.595 284.632 75.3109 283.558H75.4132C75.4132 286.779 74.1603 288.62 72.1404 288.62C70.7598 288.62 69.916 287.751 69.6348 286.549H68.0751C68.3819 288.62 69.9416 290.027 72.1404 290.027C75.0808 290.027 76.8961 287.419 76.8961 282.765C76.8961 277.958 74.4927 276.603 72.345 276.578ZM72.345 277.984C73.9814 277.984 75.1831 279.39 75.1831 280.924C75.1831 282.484 73.9047 283.89 72.2939 283.89C70.6831 283.89 69.5069 282.586 69.5069 280.95C69.5069 279.314 70.7342 277.984 72.345 277.984ZM83.6797 290.027C86.5689 290.027 88.2308 287.578 88.2308 283.302C88.2308 279.058 86.5433 276.578 83.6797 276.578C80.8161 276.578 79.1286 279.058 79.1286 283.302C79.1286 287.578 80.7905 290.027 83.6797 290.027ZM83.6797 288.62C81.7749 288.62 80.6626 286.709 80.6626 283.302C80.6626 279.902 81.7876 277.958 83.6797 277.958C85.5717 277.958 86.6967 279.902 86.6967 283.302C86.6967 286.709 85.5845 288.62 83.6797 288.62Z" fill="#81808E"/>
    <path d="M56.4939 121H65.2112V119.516H58.7879V119.408L61.8916 116.088C64.2666 113.544 64.9683 112.357 64.9683 110.825C64.9683 108.693 63.241 106.993 60.8121 106.993C58.3898 106.993 56.5479 108.639 56.5479 111.068H58.1402C58.1402 109.496 59.159 108.45 60.7581 108.45C62.2559 108.45 63.403 109.368 63.403 110.825C63.403 112.1 62.654 113.045 61.055 114.793L56.4939 119.786V121ZM68.4296 121H70.1839L76.3373 108.747V107.182H67.485V108.666H74.61V108.774L68.4296 121ZM83.0625 121.189C86.1122 121.189 87.8665 118.605 87.8665 114.091C87.8665 109.611 86.0852 106.993 83.0625 106.993C80.0398 106.993 78.2585 109.611 78.2585 114.091C78.2585 118.605 80.0128 121.189 83.0625 121.189ZM83.0625 119.705C81.0518 119.705 79.8778 117.687 79.8778 114.091C79.8778 110.501 81.0653 108.45 83.0625 108.45C85.0597 108.45 86.2472 110.501 86.2472 114.091C86.2472 117.687 85.0732 119.705 83.0625 119.705Z" fill="#81808E"/>
    <path d="M64.2484 191.833H62.6632L59.3904 194.006V195.617L62.5865 193.495H62.6632V204.924H64.2484V191.833ZM72.2065 205.103C74.8208 205.103 76.6426 203.575 76.6554 201.447C76.6426 199.791 75.5368 198.385 74.1241 198.123V198.046C75.3514 197.726 76.1568 196.525 76.1696 195.131C76.1568 193.137 74.4821 191.654 72.2065 191.654C69.9054 191.654 68.2306 193.137 68.2434 195.131C68.2306 196.525 69.036 197.726 70.2889 198.046V198.123C68.8507 198.385 67.7449 199.791 67.7576 201.447C67.7449 203.575 69.5666 205.103 72.2065 205.103ZM72.2065 203.697C70.4103 203.697 69.3045 202.776 69.3173 201.37C69.3045 199.893 70.5254 198.839 72.2065 198.839C73.862 198.839 75.0829 199.893 75.0957 201.37C75.0829 202.776 73.9771 203.697 72.2065 203.697ZM72.2065 197.483C70.7747 197.483 69.7647 196.589 69.7775 195.233C69.7647 193.904 70.7363 193.035 72.2065 193.035C73.6511 193.035 74.6227 193.904 74.6355 195.233C74.6227 196.589 73.6127 197.483 72.2065 197.483ZM83.375 205.103C86.2642 205.103 87.9261 202.655 87.9261 198.378C87.9261 194.134 86.2386 191.654 83.375 191.654C80.5114 191.654 78.8239 194.134 78.8239 198.378C78.8239 202.655 80.4858 205.103 83.375 205.103ZM83.375 203.697C81.4702 203.697 80.358 201.785 80.358 198.378C80.358 194.978 81.483 193.035 83.375 193.035C85.267 193.035 86.392 194.978 86.392 198.378C86.392 201.785 85.2798 203.697 83.375 203.697Z" fill="#81808E"/>
    <path d="M118.154 412L119.617 407.881H125.498L126.961 412H128.808L123.467 397.455H121.649L116.308 412H118.154ZM120.171 406.318L122.501 399.756H122.614L124.944 406.318H120.171ZM130.658 412H132.277V410.324H132.476C132.845 410.92 133.556 412.227 135.658 412.227C138.385 412.227 140.288 410.04 140.288 406.574C140.288 403.136 138.385 400.949 135.629 400.949C133.499 400.949 132.845 402.256 132.476 402.824H132.334V397.455H130.658V412ZM132.306 406.545C132.306 404.102 133.385 402.455 135.431 402.455C137.561 402.455 138.612 404.244 138.612 406.545C138.612 408.875 137.533 410.722 135.431 410.722C133.413 410.722 132.306 409.017 132.306 406.545ZM149.312 407.54C149.312 409.585 147.749 410.523 146.499 410.523C145.107 410.523 144.113 409.5 144.113 407.909V401.091H142.437V408.023C142.437 410.807 143.914 412.142 145.96 412.142C147.607 412.142 148.687 411.261 149.198 410.153H149.312V412H150.988V401.091H149.312V407.54ZM153.643 401.091V412.795C153.643 413.903 153.188 414.528 152.165 414.528H151.853V416.091H152.194C154.296 416.091 155.319 414.812 155.319 412.795V401.091H153.643ZM154.466 399.273C155.12 399.273 155.66 398.761 155.66 398.136C155.66 397.511 155.12 397 154.466 397C153.813 397 153.273 397.511 153.273 398.136C153.273 398.761 153.813 399.273 154.466 399.273ZM161.183 412.256C163.087 412.256 164.081 411.233 164.422 410.523H164.507V412H166.183V404.812C166.183 401.347 163.541 400.949 162.149 400.949C160.502 400.949 158.627 401.517 157.774 403.506L159.365 404.074C159.735 403.278 160.608 402.426 162.206 402.426C163.747 402.426 164.507 403.243 164.507 404.642V404.699C164.507 405.509 163.683 405.438 161.695 405.693C159.671 405.956 157.462 406.403 157.462 408.903C157.462 411.034 159.11 412.256 161.183 412.256ZM161.439 410.75C160.104 410.75 159.138 410.153 159.138 408.989C159.138 407.71 160.303 407.312 161.61 407.142C162.32 407.057 164.223 406.858 164.507 406.517V408.051C164.507 409.415 163.428 410.75 161.439 410.75Z" fill="#8D9AA9"/>
    <path d="M240.047 412H248.57V410.438H241.809V397.455H240.047V412ZM253.865 412.256C255.768 412.256 256.763 411.233 257.103 410.523H257.189V412H258.865V404.812C258.865 401.347 256.223 400.949 254.831 400.949C253.183 400.949 251.308 401.517 250.456 403.506L252.047 404.074C252.416 403.278 253.29 402.426 254.888 402.426C256.429 402.426 257.189 403.243 257.189 404.642V404.699C257.189 405.509 256.365 405.438 254.376 405.693C252.352 405.956 250.143 406.403 250.143 408.903C250.143 411.034 251.791 412.256 253.865 412.256ZM254.121 410.75C252.785 410.75 251.819 410.153 251.819 408.989C251.819 407.71 252.984 407.312 254.291 407.142C255.001 407.057 256.905 406.858 257.189 406.517V408.051C257.189 409.415 256.109 410.75 254.121 410.75ZM265.912 416.318C268.526 416.318 270.628 415.125 270.628 412.312V401.091H269.009V402.824H268.838C268.469 402.256 267.787 400.949 265.656 400.949C262.901 400.949 260.997 403.136 260.997 406.489C260.997 409.898 262.986 411.83 265.628 411.83C267.759 411.83 268.441 410.58 268.81 409.983H268.952V412.199C268.952 414.017 267.673 414.841 265.912 414.841C263.931 414.841 263.235 413.797 262.787 413.193L261.452 414.131C262.134 415.274 263.476 416.318 265.912 416.318ZM265.855 410.324C263.753 410.324 262.673 408.733 262.673 406.46C262.673 404.244 263.725 402.455 265.855 402.455C267.901 402.455 268.98 404.102 268.98 406.46C268.98 408.875 267.872 410.324 265.855 410.324ZM277.713 412.227C280.667 412.227 282.656 409.983 282.656 406.602C282.656 403.193 280.667 400.949 277.713 400.949C274.758 400.949 272.769 403.193 272.769 406.602C272.769 409.983 274.758 412.227 277.713 412.227ZM277.713 410.722C275.468 410.722 274.446 408.79 274.446 406.602C274.446 404.415 275.468 402.455 277.713 402.455C279.957 402.455 280.98 404.415 280.98 406.602C280.98 408.79 279.957 410.722 277.713 410.722ZM292.526 403.534C292.001 401.986 290.822 400.949 288.663 400.949C286.361 400.949 284.657 402.256 284.657 404.102C284.657 405.608 285.552 406.616 287.555 407.085L289.373 407.511C290.474 407.767 290.992 408.293 290.992 409.045C290.992 409.983 289.998 410.75 288.435 410.75C287.065 410.75 286.205 410.161 285.907 408.989L284.316 409.386C284.707 411.24 286.234 412.227 288.464 412.227C290.999 412.227 292.725 410.842 292.725 408.96C292.725 407.44 291.773 406.482 289.827 406.006L288.208 405.608C286.915 405.288 286.333 404.855 286.333 404.017C286.333 403.08 287.327 402.398 288.663 402.398C290.126 402.398 290.729 403.207 291.02 403.96L292.526 403.534Z" fill="#8D9AA9"/>
    <path d="M363.456 412H365.217V406.318H368.399C368.527 406.318 368.648 406.318 368.768 406.311L371.836 412H373.882L370.594 405.991C372.447 405.359 373.314 403.847 373.314 401.915C373.314 399.344 371.78 397.455 368.371 397.455H363.456V412ZM365.217 404.727V399.017H368.314C370.672 399.017 371.581 400.168 371.581 401.915C371.581 403.662 370.672 404.727 368.342 404.727H365.217ZM375.606 412H377.282V401.091H375.606V412ZM376.458 399.273C377.112 399.273 377.651 398.761 377.651 398.136C377.651 397.511 377.112 397 376.458 397C375.805 397 375.265 397.511 375.265 398.136C375.265 398.761 375.805 399.273 376.458 399.273ZM388.857 401.091H387.039L384.028 409.784H383.914L380.903 401.091H379.084L383.118 412H384.823L388.857 401.091ZM394.837 412.227C397.053 412.227 398.672 411.119 399.184 409.472L397.565 409.017C397.138 410.153 396.151 410.722 394.837 410.722C392.87 410.722 391.513 409.45 391.435 407.114H399.354V406.403C399.354 402.341 396.94 400.949 394.667 400.949C391.712 400.949 389.752 403.278 389.752 406.631C389.752 409.983 391.684 412.227 394.837 412.227ZM391.435 405.665C391.549 403.967 392.749 402.455 394.667 402.455C396.485 402.455 397.65 403.818 397.65 405.665H391.435ZM401.489 412H403.165V405.097C403.165 403.619 404.329 402.54 405.92 402.54C406.368 402.54 406.829 402.625 406.943 402.653V400.949C406.751 400.935 406.311 400.92 406.062 400.92C404.756 400.92 403.619 401.659 403.221 402.739H403.108V401.091H401.489V412ZM416.242 403.534C415.716 401.986 414.537 400.949 412.378 400.949C410.077 400.949 408.372 402.256 408.372 404.102C408.372 405.608 409.267 406.616 411.27 407.085L413.088 407.511C414.189 407.767 414.708 408.293 414.708 409.045C414.708 409.983 413.713 410.75 412.151 410.75C410.78 410.75 409.921 410.161 409.622 408.989L408.032 409.386C408.422 411.24 409.949 412.227 412.179 412.227C414.715 412.227 416.441 410.842 416.441 408.96C416.441 407.44 415.489 406.482 413.543 406.006L411.924 405.608C410.631 405.288 410.049 404.855 410.049 404.017C410.049 403.08 411.043 402.398 412.378 402.398C413.841 402.398 414.445 403.207 414.736 403.96L416.242 403.534Z" fill="#8D9AA9"/>
    <path d="M495.799 404.727C495.799 400.125 493.1 397.256 489.378 397.256C485.657 397.256 482.958 400.125 482.958 404.727C482.958 409.33 485.657 412.199 489.378 412.199C493.1 412.199 495.799 409.33 495.799 404.727ZM494.094 404.727C494.094 408.506 492.021 410.551 489.378 410.551C486.736 410.551 484.663 408.506 484.663 404.727C484.663 400.949 486.736 398.903 489.378 398.903C492.021 398.903 494.094 400.949 494.094 404.727ZM499.197 416.091C500.71 416.091 501.776 415.288 502.408 413.591L507.052 401.119L505.22 401.091L502.209 409.784H502.095L499.084 401.091H497.266L501.3 412.057L500.987 412.909C500.376 414.571 499.624 414.727 498.402 414.415L497.976 415.892C498.146 415.977 498.629 416.091 499.197 416.091ZM512.896 412.227C515.85 412.227 517.839 409.983 517.839 406.602C517.839 403.193 515.85 400.949 512.896 400.949C509.941 400.949 507.953 403.193 507.953 406.602C507.953 409.983 509.941 412.227 512.896 412.227ZM512.896 410.722C510.652 410.722 509.629 408.79 509.629 406.602C509.629 404.415 510.652 402.455 512.896 402.455C515.14 402.455 516.163 404.415 516.163 406.602C516.163 408.79 515.14 410.722 512.896 410.722Z" fill="#8D9AA9"/>
    <path d="M589.812 412H591.574V407.284L593.392 405.239L598.449 412H600.579L594.471 404.017L600.579 397.455H598.278L591.744 404.67H591.574V397.455H589.812V412ZM605.427 412.256C607.33 412.256 608.324 411.233 608.665 410.523H608.75V412H610.427V404.812C610.427 401.347 607.785 400.949 606.392 400.949C604.745 400.949 602.87 401.517 602.017 403.506L603.608 404.074C603.978 403.278 604.851 402.426 606.449 402.426C607.991 402.426 608.75 403.243 608.75 404.642V404.699C608.75 405.509 607.927 405.438 605.938 405.693C603.914 405.956 601.705 406.403 601.705 408.903C601.705 411.034 603.353 412.256 605.427 412.256ZM605.682 410.75C604.347 410.75 603.381 410.153 603.381 408.989C603.381 407.71 604.546 407.312 605.853 407.142C606.563 407.057 608.466 406.858 608.75 406.517V408.051C608.75 409.415 607.671 410.75 605.682 410.75ZM617.19 412.227C619.292 412.227 620.002 410.92 620.372 410.324H620.57V412H622.19V397.455H620.514V402.824H620.372C620.002 402.256 619.349 400.949 617.218 400.949C614.462 400.949 612.559 403.136 612.559 406.574C612.559 410.04 614.462 412.227 617.19 412.227ZM617.417 410.722C615.315 410.722 614.235 408.875 614.235 406.545C614.235 404.244 615.286 402.455 617.417 402.455C619.462 402.455 620.542 404.102 620.542 406.545C620.542 409.017 619.434 410.722 617.417 410.722ZM631.952 407.54C631.952 409.585 630.389 410.523 629.139 410.523C627.747 410.523 626.753 409.5 626.753 407.909V401.091H625.077V408.023C625.077 410.807 626.554 412.142 628.6 412.142C630.247 412.142 631.327 411.261 631.838 410.153H631.952V412H633.628V401.091H631.952V407.54ZM637.959 405.438C637.959 403.534 639.138 402.455 640.743 402.455C642.298 402.455 643.243 403.47 643.243 405.182V412H644.919V405.068C644.919 402.284 643.434 400.949 641.226 400.949C639.578 400.949 638.555 401.688 638.044 402.795H637.902V401.091H636.282V412H637.959V405.438ZM650.776 412.256C652.68 412.256 653.674 411.233 654.015 410.523H654.1V412H655.776V404.812C655.776 401.347 653.134 400.949 651.742 400.949C650.095 400.949 648.22 401.517 647.367 403.506L648.958 404.074C649.328 403.278 650.201 402.426 651.799 402.426C653.34 402.426 654.1 403.243 654.1 404.642V404.699C654.1 405.509 653.276 405.438 651.288 405.693C649.264 405.956 647.055 406.403 647.055 408.903C647.055 411.034 648.703 412.256 650.776 412.256ZM651.032 410.75C649.697 410.75 648.731 410.153 648.731 408.989C648.731 407.71 649.896 407.312 651.203 407.142C651.913 407.057 653.816 406.858 654.1 406.517V408.051C654.1 409.415 653.021 410.75 651.032 410.75Z" fill="#8D9AA9"/>
    <path d="M711.565 412H720.457V410.438H713.327V405.494H719.889V403.932H713.327V399.017H720.344V397.455H711.565V412ZM724.552 405.438C724.552 403.534 725.731 402.455 727.336 402.455C728.891 402.455 729.836 403.47 729.836 405.182V412H731.512V405.068C731.512 402.284 730.028 400.949 727.819 400.949C726.171 400.949 725.149 401.688 724.637 402.795H724.495V401.091H722.876V412H724.552V405.438ZM741.035 407.54C741.035 409.585 739.472 410.523 738.222 410.523C736.83 410.523 735.836 409.5 735.836 407.909V401.091H734.16V408.023C734.16 410.807 735.637 412.142 737.682 412.142C739.33 412.142 740.41 411.261 740.921 410.153H741.035V412H742.711V401.091H741.035V407.54ZM749.769 416.318C752.382 416.318 754.485 415.125 754.485 412.312V401.091H752.865V402.824H752.695C752.325 402.256 751.644 400.949 749.513 400.949C746.757 400.949 744.854 403.136 744.854 406.489C744.854 409.898 746.842 411.83 749.485 411.83C751.615 411.83 752.297 410.58 752.666 409.983H752.808V412.199C752.808 414.017 751.53 414.841 749.769 414.841C747.787 414.841 747.091 413.797 746.644 413.193L745.308 414.131C745.99 415.274 747.333 416.318 749.769 416.318ZM749.712 410.324C747.61 410.324 746.53 408.733 746.53 406.46C746.53 404.244 747.581 402.455 749.712 402.455C751.757 402.455 752.837 404.102 752.837 406.46C752.837 408.875 751.729 410.324 749.712 410.324ZM764.012 407.54C764.012 409.585 762.45 410.523 761.2 410.523C759.808 410.523 758.813 409.5 758.813 407.909V401.091H757.137V408.023C757.137 410.807 758.615 412.142 760.66 412.142C762.308 412.142 763.387 411.261 763.899 410.153H764.012V412H765.688V401.091H764.012V407.54Z" fill="#8D9AA9"/>
    <path d="M14.2667 385.899C14.2667 386.299 14.4174 386.608 14.7188 386.828C15.018 387.047 15.4359 387.156 15.9725 387.156C17.0891 387.156 17.6474 386.737 17.6474 385.899C17.6474 385.548 17.5595 385.122 17.3837 384.622L18.2743 384.622C18.4455 385.033 18.5312 385.492 18.5312 385.999C18.5312 386.727 18.3108 387.284 17.8701 387.67C17.4271 388.056 16.7923 388.249 15.9656 388.249C15.445 388.249 14.9894 388.154 14.599 387.965C14.2062 387.775 13.9059 387.504 13.6981 387.15C13.488 386.793 13.383 386.377 13.383 385.899C13.383 385.413 13.5006 384.924 13.7358 384.433L14.599 384.776C14.5099 384.963 14.4323 385.152 14.366 385.341C14.2998 385.531 14.2667 385.717 14.2667 385.899ZM15.9519 375.5C16.7808 375.5 17.4179 375.706 17.8632 376.117C18.3085 376.528 18.5312 377.117 18.5312 377.884C18.5312 378.652 18.3085 379.241 17.8632 379.652C17.4179 380.063 16.7786 380.268 15.9451 380.268C15.1116 380.268 14.4756 380.063 14.0372 379.652C13.5965 379.238 13.3761 378.647 13.3761 377.877C13.3761 377.108 13.5976 376.52 14.0406 376.113C14.4836 375.705 15.1207 375.5 15.9519 375.5ZM15.9519 379.155C16.5114 379.155 16.9327 379.049 17.2159 378.836C17.499 378.624 17.6406 378.307 17.6406 377.884C17.6406 377.037 17.0777 376.614 15.9519 376.614C14.8239 376.614 14.2599 377.035 14.2599 377.877C14.2599 378.3 14.4026 378.618 14.688 378.833C14.9712 379.048 15.3925 379.155 15.9519 379.155ZM15.6779 369.893L15.6779 369.551C15.6779 369.215 15.622 368.967 15.5101 368.807C15.3982 368.647 15.2224 368.568 14.9826 368.568C14.7451 368.568 14.5761 368.65 14.4756 368.814C14.3752 368.976 14.3249 369.229 14.3249 369.571L14.3249 369.893L15.6779 369.893ZM16.5411 369.893L18.4626 369.893L18.4626 370.955L13.4549 370.955L13.4549 369.496C13.4549 368.815 13.5794 368.312 13.8283 367.985C14.0749 367.659 14.4505 367.495 14.9552 367.495C15.2498 367.495 15.5124 367.577 15.743 367.739C15.9713 367.901 16.1506 368.13 16.2808 368.427C17.4065 367.674 18.1338 367.183 18.4626 366.954L18.4626 368.133L16.5411 369.328L16.5411 369.893ZM15.6779 361.755L15.6779 361.412C15.6779 361.077 15.622 360.829 15.5101 360.669C15.3982 360.509 15.2224 360.429 14.9826 360.429C14.7451 360.429 14.5761 360.511 14.4756 360.676C14.3752 360.838 14.3249 361.09 14.3249 361.433L14.3249 361.755L15.6779 361.755ZM16.5411 361.755L18.4626 361.755L18.4626 362.817L13.4549 362.817L13.4549 361.357C13.4549 360.677 13.5794 360.173 13.8283 359.847C14.0749 359.52 14.4505 359.357 14.9552 359.357C15.2498 359.357 15.5124 359.438 15.743 359.6C15.9713 359.762 16.1506 359.992 16.2808 360.289C17.4065 359.535 18.1338 359.044 18.4626 358.816L18.4626 359.994L16.5411 361.19L16.5411 361.755ZM13.4549 350.602L16.6952 350.602C17.0651 350.602 17.3894 350.685 17.668 350.852C17.9466 351.017 18.1601 351.255 18.3085 351.568C18.4569 351.881 18.5312 352.251 18.5312 352.678C18.5312 353.322 18.3667 353.822 18.0379 354.178C17.7068 354.534 17.2547 354.712 16.6815 354.712L13.4549 354.712L13.4549 353.654L16.5205 353.654C16.9064 353.654 17.1896 353.576 17.37 353.421C17.5504 353.266 17.6406 353.009 17.6406 352.65C17.6406 352.303 17.5504 352.052 17.37 351.897C17.1873 351.739 16.9019 351.661 16.5137 351.661L13.4549 351.661L13.4549 350.602ZM15.8115 344.807L15.8115 344.457C15.8115 344.131 15.7476 343.886 15.6197 343.724C15.4895 343.562 15.3011 343.481 15.0545 343.481C14.8056 343.481 14.6218 343.55 14.5031 343.687C14.3843 343.821 14.3249 344.034 14.3249 344.324L14.3249 344.807L15.8115 344.807ZM15.0168 342.409C15.5557 342.409 15.9679 342.578 16.2534 342.916C16.5388 343.252 16.6815 343.73 16.6815 344.351L16.6815 344.807L18.4626 344.807L18.4626 345.868L13.4549 345.868L13.4549 344.269C13.4549 343.661 13.5862 343.2 13.8488 342.885C14.1091 342.568 14.4985 342.409 15.0168 342.409ZM18.4626 336.024L18.4626 337.086L14.3386 337.086L14.3386 338.446L13.4549 338.446L13.4549 334.664L14.3386 334.664L14.3386 336.024L18.4626 336.024ZM18.4626 330.386L13.4549 330.386L13.4549 329.324L18.4626 329.324L18.4626 330.386ZM15.9519 320.011C16.7808 320.011 17.4179 320.217 17.8632 320.628C18.3085 321.039 18.5312 321.628 18.5312 322.395C18.5312 323.162 18.3085 323.752 17.8632 324.163C17.4179 324.574 16.7786 324.779 15.9451 324.779C15.1116 324.779 14.4756 324.574 14.0372 324.163C13.5965 323.749 13.3761 323.158 13.3761 322.388C13.3761 321.619 13.5976 321.031 14.0406 320.624C14.4836 320.216 15.1207 320.011 15.9519 320.011ZM15.9519 323.666C16.5114 323.666 16.9327 323.56 17.2159 323.347C17.499 323.135 17.6406 322.818 17.6406 322.395C17.6406 321.548 17.0777 321.124 15.9519 321.124C14.8239 321.124 14.2599 321.546 14.2599 322.388C14.2599 322.811 14.4026 323.129 14.688 323.344C14.9712 323.559 15.3925 323.666 15.9519 323.666ZM18.4626 311.023L18.4626 312.373L14.6743 314.551L14.6743 314.582C15.3434 314.539 15.8206 314.517 16.1061 314.517L18.4626 314.517L18.4626 315.466L13.4549 315.466L13.4549 314.127L17.2056 311.952L17.2056 311.928C16.5548 311.962 16.0947 311.979 15.8252 311.979L13.4549 311.979L13.4549 311.023L18.4626 311.023ZM18.4626 296.48L18.4626 297.829L14.6743 300.008L14.6743 300.038C15.3434 299.995 15.8206 299.973 16.1061 299.973L18.4626 299.973L18.4626 300.922L13.4549 300.922L13.4549 299.583L17.2056 297.408L17.2056 297.384C16.5548 297.418 16.0947 297.435 15.8252 297.435L13.4549 297.435L13.4549 296.48L18.4626 296.48ZM15.6505 289.807L15.6505 287.821L18.2469 287.821C18.3519 288.143 18.425 288.446 18.4661 288.732C18.5095 289.015 18.5312 289.305 18.5312 289.602C18.5312 290.358 18.3097 290.935 17.8667 291.335C17.4214 291.732 16.7831 291.931 15.9519 291.931C15.1436 291.931 14.5133 291.7 14.0612 291.239C13.6091 290.775 13.383 290.134 13.383 289.314C13.383 288.8 13.4857 288.305 13.6913 287.827L14.5407 288.18C14.358 288.546 14.2667 288.926 14.2667 289.321C14.2667 289.78 14.4208 290.147 14.7291 290.424C15.0374 290.7 15.4518 290.838 15.9725 290.838C16.516 290.838 16.9316 290.727 17.2193 290.506C17.5047 290.282 17.6474 289.958 17.6474 289.533C17.6474 289.312 17.6246 289.087 17.5789 288.858L16.5342 288.858L16.5342 289.807L15.6505 289.807ZM14.2667 270.331C14.2667 270.731 14.4174 271.04 14.7188 271.259C15.018 271.479 15.4359 271.588 15.9725 271.588C17.0891 271.588 17.6474 271.169 17.6474 270.331C17.6474 269.98 17.5595 269.554 17.3837 269.054L18.2743 269.054C18.4455 269.465 18.5312 269.924 18.5312 270.431C18.5312 271.159 18.3108 271.716 17.8701 272.102C17.4271 272.488 16.7923 272.681 15.9656 272.681C15.445 272.681 14.9894 272.586 14.599 272.397C14.2062 272.207 13.9059 271.935 13.6981 271.581C13.488 271.225 13.383 270.808 13.383 270.331C13.383 269.845 13.5006 269.356 13.7358 268.865L14.599 269.208C14.5099 269.395 14.4323 269.583 14.366 269.773C14.2998 269.962 14.2667 270.149 14.2667 270.331ZM18.4626 260.374L18.4626 261.432L16.3013 261.432L16.3013 263.416L18.4626 263.416L18.4626 264.477L13.4549 264.477L13.4549 263.416L15.4176 263.416L15.4176 261.432L13.4549 261.432L13.4549 260.374L18.4626 260.374ZM18.4626 252.534L17.2707 252.897L17.2707 254.722L18.4626 255.085L18.4626 256.229L13.4344 254.462L13.4344 253.164L18.4626 251.39L18.4626 252.534ZM16.3801 253.15C15.3 253.486 14.6892 253.675 14.5476 253.719C14.406 253.76 14.2941 253.79 14.2119 253.808C14.5042 253.883 15.2269 254.099 16.3801 254.455L16.3801 253.15ZM15.6779 246.187L15.6779 245.844C15.6779 245.508 15.622 245.261 15.5101 245.101C15.3982 244.941 15.2224 244.861 14.9826 244.861C14.7451 244.861 14.5761 244.943 14.4756 245.108C14.3752 245.27 14.3249 245.522 14.3249 245.865L14.3249 246.187L15.6779 246.187ZM16.5411 246.187L18.4626 246.187L18.4626 247.248L13.4549 247.248L13.4549 245.789C13.4549 245.109 13.5794 244.605 13.8283 244.279C14.0749 243.952 14.4505 243.789 14.9552 243.789C15.2498 243.789 15.5124 243.87 15.743 244.032C15.9713 244.194 16.1506 244.424 16.2808 244.721C17.4065 243.967 18.1338 243.476 18.4626 243.248L18.4626 244.426L16.5411 245.621L16.5411 246.187ZM18.4626 237.178L18.4626 238.24L14.3386 238.24L14.3386 239.6L13.4549 239.6L13.4549 235.818L14.3386 235.818L14.3386 237.178L18.4626 237.178ZM15.9108 216.726C16.7352 216.726 17.3666 216.961 17.805 217.432C18.2434 217.9 18.4626 218.577 18.4626 219.463L18.4626 220.881L13.4549 220.881L13.4549 219.309C13.4549 218.491 13.6707 217.856 14.1023 217.404C14.5339 216.952 15.1367 216.726 15.9108 216.726ZM15.9382 217.829C14.8627 217.829 14.3249 218.304 14.3249 219.254L14.3249 219.819L17.5858 219.819L17.5858 219.363C17.5858 218.34 17.0366 217.829 15.9382 217.829ZM18.4626 209.115L17.2707 209.478L17.2707 211.304L18.4626 211.667L18.4626 212.811L13.4344 211.043L13.4344 209.745L18.4626 207.971L18.4626 209.115ZM16.3801 209.732C15.3 210.067 14.6892 210.257 14.5476 210.3C14.406 210.341 14.2941 210.371 14.2119 210.389C14.5042 210.465 15.2269 210.68 16.3801 211.037L16.3801 209.732ZM18.4626 201.898L18.4626 202.96L14.3386 202.96L14.3386 204.32L13.4549 204.32L13.4549 200.538L14.3386 200.538L14.3386 201.898L18.4626 201.898ZM18.4626 193.194L17.2707 193.558L17.2707 195.383L18.4626 195.746L18.4626 196.89L13.4344 195.123L13.4344 193.825L18.4626 192.05L18.4626 193.194ZM16.3801 193.811C15.3 194.147 14.6892 194.336 14.5476 194.38C14.406 194.421 14.2941 194.45 14.2119 194.469C14.5042 194.544 15.2269 194.76 16.3801 195.116L16.3801 193.811Z" fill="#3D3D60"/>
    <g clip-path="url(#clip0)">
        <path d="M11.356 10.5929C11.0108 8.09935 9.09264 6.65252 6.60453 6.65252C3.67251 6.65252 1.46391 8.78988 1.46391 12.4179C1.46391 16.0405 3.64511 18.1833 6.60453 18.1833C9.27349 18.1833 11.0437 16.457 11.356 14.3141L9.30638 14.3032C9.0488 15.6185 7.97464 16.3583 6.63193 16.3583C4.81244 16.3583 3.5081 14.9937 3.5081 12.4179C3.5081 9.88596 4.80148 8.4775 6.63742 8.4775C8.00204 8.4775 9.07072 9.25023 9.30638 10.5929H11.356ZM15.5527 18.1997C16.8735 18.1997 17.6626 17.5805 18.0243 16.8735H18.0901V18.0299H19.9973V12.396C19.9973 10.1709 18.1833 9.50233 16.5775 9.50233C14.8073 9.50233 13.4482 10.2915 13.0098 11.826L14.8621 12.0891C15.0594 11.5136 15.6184 11.0204 16.5885 11.0204C17.5092 11.0204 18.0134 11.4917 18.0134 12.3193V12.3521C18.0134 12.9221 17.416 12.9495 15.9308 13.1084C14.2977 13.2838 12.7357 13.7716 12.7357 15.6678C12.7357 17.3229 13.9469 18.1997 15.5527 18.1997ZM16.0678 16.742C15.2403 16.742 14.6484 16.3638 14.6484 15.6349C14.6484 14.8731 15.3115 14.5553 16.1994 14.4292C16.72 14.358 17.7613 14.2264 18.0189 14.0182V15.0101C18.0189 15.9473 17.2626 16.742 16.0678 16.742ZM28.6454 11.837C28.3714 10.4121 27.2314 9.50233 25.2585 9.50233C23.2307 9.50233 21.8497 10.4998 21.8551 12.0562C21.8497 13.2838 22.606 14.0949 24.2227 14.4292L25.6586 14.7306C26.4313 14.9005 26.793 15.2129 26.793 15.6897C26.793 16.2652 26.1682 16.6981 25.2256 16.6981C24.3158 16.6981 23.724 16.3035 23.5541 15.5472L21.6195 15.7336C21.8661 17.279 23.165 18.1943 25.2311 18.1943C27.3356 18.1943 28.8207 17.1037 28.8262 15.5089C28.8207 14.3087 28.048 13.5743 26.4587 13.229L25.0228 12.9221C24.1679 12.7303 23.8281 12.4344 23.8336 11.9466C23.8281 11.3766 24.4583 10.982 25.2859 10.982C26.2011 10.982 26.6834 11.4808 26.8368 12.0343L28.6454 11.837ZM34.1888 18.1943C36.1508 18.1943 37.499 17.2352 37.8497 15.7719L35.9973 15.5637C35.7288 16.2761 35.0712 16.6488 34.2162 16.6488C32.9338 16.6488 32.0843 15.8048 32.0679 14.3635H37.9319V13.7551C37.9319 10.8012 36.1563 9.50233 34.0847 9.50233C31.6733 9.50233 30.1004 11.2725 30.1004 13.8702C30.1004 16.5118 31.6514 18.1943 34.1888 18.1943ZM32.0734 13.0262C32.1337 11.9521 32.9283 11.0478 34.1121 11.0478C35.252 11.0478 36.0193 11.8808 36.0302 13.0262H32.0734ZM43.5261 18.0299H45.4771V16.7036H45.5922C45.9046 17.3174 46.5567 18.1778 48.0036 18.1778C49.9875 18.1778 51.4727 16.6049 51.4727 13.8319C51.4727 11.0259 49.9436 9.50233 47.9981 9.50233C46.5129 9.50233 45.8936 10.3956 45.5922 11.004H45.51V6.80597H43.5261V18.0299ZM45.4716 13.8209C45.4716 12.1877 46.1731 11.13 47.45 11.13C48.7708 11.13 49.4504 12.2535 49.4504 13.8209C49.4504 15.3993 48.7598 16.5501 47.45 16.5501C46.1841 16.5501 45.4716 15.4541 45.4716 13.8209ZM54.106 21.1866C55.6515 21.1866 56.5448 20.3919 57.0216 19.0492L60.403 9.6229L58.2821 9.61194L56.3365 15.9692H56.2488L54.3088 9.61194H52.2043L55.2569 18.2052L55.087 18.6601C54.7198 19.6192 54.1389 19.6849 53.273 19.4328L52.8126 20.9783C53.0812 21.0879 53.5634 21.1866 54.106 21.1866ZM72.2612 11.837C71.9872 10.4121 70.8473 9.50233 68.8743 9.50233C66.8466 9.50233 65.4655 10.4998 65.471 12.0562C65.4655 13.2838 66.2218 14.0949 67.8385 14.4292L69.2744 14.7306C70.0471 14.9005 70.4088 15.2129 70.4088 15.6897C70.4088 16.2652 69.7841 16.6981 68.8414 16.6981C67.9317 16.6981 67.3398 16.3035 67.1699 15.5472L65.2353 15.7336C65.482 17.279 66.7808 18.1943 68.8469 18.1943C70.9514 18.1943 72.4366 17.1037 72.4421 15.5089C72.4366 14.3087 71.6639 13.5743 70.0745 13.229L68.6387 12.9221C67.7837 12.7303 67.4439 12.4344 67.4494 11.9466C67.4439 11.3766 68.0742 10.982 68.9017 10.982C69.817 10.982 70.2992 11.4808 70.4527 12.0343L72.2612 11.837ZM78.2815 9.61194H76.6209V7.59515H74.637V9.61194H73.4423V11.1465H74.637V15.8267C74.626 17.4106 75.7769 18.1888 77.2676 18.1449C77.8321 18.1285 78.2212 18.0189 78.4349 17.9476L78.1006 16.3967C77.991 16.4241 77.7663 16.4734 77.5197 16.4734C77.021 16.4734 76.6209 16.298 76.6209 15.4979V11.1465H78.2815V9.61194ZM82.363 18.1997C83.6838 18.1997 84.473 17.5805 84.8347 16.8735H84.9004V18.0299H86.8076V12.396C86.8076 10.1709 84.9936 9.50233 83.3878 9.50233C81.6177 9.50233 80.2585 10.2915 79.8201 11.826L81.6725 12.0891C81.8698 11.5136 82.4288 11.0204 83.3988 11.0204C84.3195 11.0204 84.8237 11.4917 84.8237 12.3193V12.3521C84.8237 12.9221 84.2263 12.9495 82.7411 13.1084C81.108 13.2838 79.5461 13.7716 79.5461 15.6678C79.5461 17.3229 80.7572 18.1997 82.363 18.1997ZM82.8782 16.742C82.0506 16.742 81.4587 16.3638 81.4587 15.6349C81.4587 14.8731 82.1219 14.5553 83.0097 14.4292C83.5303 14.358 84.5716 14.2264 84.8292 14.0182V15.0101C84.8292 15.9473 84.0729 16.742 82.8782 16.742ZM93.006 9.61194H91.3454V7.59515H89.3615V9.61194H88.1667V11.1465H89.3615V15.8267C89.3505 17.4106 90.5014 18.1888 91.9921 18.1449C92.5566 18.1285 92.9457 18.0189 93.1594 17.9476L92.8251 16.3967C92.7155 16.4241 92.4908 16.4734 92.2442 16.4734C91.7455 16.4734 91.3454 16.298 91.3454 15.4979V11.1465H93.006V9.61194ZM98.3014 18.1943C100.263 18.1943 101.612 17.2352 101.962 15.7719L100.11 15.5637C99.8414 16.2761 99.1837 16.6488 98.3288 16.6488C97.0464 16.6488 96.1969 15.8048 96.1805 14.3635H102.045V13.7551C102.045 10.8012 100.269 9.50233 98.1973 9.50233C95.7859 9.50233 94.213 11.2725 94.213 13.8702C94.213 16.5118 95.764 18.1943 98.3014 18.1943ZM96.186 13.0262C96.2462 11.9521 97.0409 11.0478 98.2247 11.0478C99.3646 11.0478 100.132 11.8808 100.143 13.0262H96.186Z" fill="#070241"/>
        <rect x="260.194" y="1.43284" width="37.1791" height="22.4478" rx="11.2239" fill="#332C82"/>
        <path d="M374.32 15.3433L374.86 13.7293H377.321L377.864 15.3433H379.13L376.822 8.79783H375.359L373.054 15.3433H374.32ZM375.18 12.7769L376.065 10.1402H376.116L377.001 12.7769H375.18ZM380.006 15.3433H384.075V14.3493H381.192V8.79783H380.006V15.3433ZM385.118 15.3433H389.186V14.3493H386.303V8.79783H385.118V15.3433Z" fill="#383874"/>
        <path d="M327.548 8.79783H326.42L324.793 9.84293V10.9296L326.324 9.95159H326.363V15.3433H327.548V8.79783ZM328.841 8.79783L331.222 12.9015V15.3433H332.404V12.9015L334.785 8.79783H333.446L331.845 11.6934H331.781L330.18 8.79783H328.841Z" fill="#383874"/>
        <path d="M274.424 15.434C275.913 15.434 276.979 14.6146 276.976 13.4812C276.979 12.6554 276.454 12.066 275.479 11.9429V11.8911C276.221 11.7583 276.733 11.2337 276.729 10.4889C276.733 9.44287 275.816 8.62031 274.443 8.62031C273.083 8.62031 272.06 9.41696 272.04 10.5634H273.384C273.4 10.0582 273.863 9.73109 274.437 9.73109C275.003 9.73109 275.382 10.0744 275.379 10.5731C275.382 11.0945 274.939 11.4475 274.301 11.4475H273.682V12.4773H274.301C275.052 12.4773 275.522 12.8529 275.518 13.3873C275.522 13.9151 275.068 14.2778 274.427 14.2778C273.808 14.2778 273.345 13.954 273.319 13.4682H271.907C271.93 14.6276 272.966 15.434 274.424 15.434ZM278.036 8.71099V15.3433H279.397V11.0103H279.452L281.168 15.3109H282.094L283.811 11.0265H283.866V15.3433H285.226V8.71099H283.496L281.67 13.1671H281.592L279.766 8.71099H278.036Z" fill="white"/>
        <path d="M224.572 8.79783H223.443L221.817 9.84293V10.9296L223.347 9.95159H223.386V15.3433H224.572V8.79783ZM226.311 8.79783V15.3433H227.449V10.8369H227.51L229.319 15.3241H230.169L231.978 10.8465H232.039V15.3433H233.176V8.79783H231.725L229.782 13.5407H229.706L227.762 8.79783H226.311Z" fill="#383874"/>
        <path d="M172.208 8.79783H171.08L169.453 9.84293V10.9296L170.984 9.95159H171.023V15.3433H172.208V8.79783ZM175.326 15.3433H176.496L177.809 10.7506H177.86L179.171 15.3433H180.34L182.188 8.79783H180.912L179.733 13.611H179.676L178.413 8.79783H177.253L175.994 13.6078H175.933L174.754 8.79783H173.478L175.326 15.3433Z" fill="#383874"/>
    </g>
    <defs>
        <clipPath id="clip0">
            <rect width="389.328" height="25.2537" fill="white" transform="translate(0.641846 0.029851)"/>
        </clipPath>
    </defs>
</svg>
