<svg width="16" height="22" version="1.1" fill="none" xmlns="http://www.w3.org/2000/svg" viewBox="0 0 16 22">
 <defs>
  <style type="text/css">
   <![CDATA[
    .fil0 {fill:#070241}
   ]]>
  </style>
 </defs>
 <g id="Layer_x0020_1">
  <metadata id="CorelCorpID_0Corel-Layer"/>
  <path class="fil0" d="M-0 0l16181.99 3483.01 0 15369.87 -16181.99 3483.01 0 -22335.89zm3829.85 7907.31l2740.25 0 0 -3735.67 -5250.49 0 1874.57 2789.69 550.48 -534.44 48.26 68.58 53.74 66.63 27.95 30.69 141.67 -136.98 -20.91 -23.26 -50.22 -62.91 -44.75 -64.89 -39.46 -68.58 -35.77 -70.35 -30.49 -74.06 -25.01 -75.82 -19.73 -79.54 -14.26 -79.73 -9 -81.49 -5.27 -83.25 5.27 -83.25 9 -81.49 14.26 -79.73 19.73 -79.53 25.01 -76.02 30.49 -74.06 35.77 -70.34 39.46 -68.4 44.75 -64.87 50.22 -62.92 51.79 -57.45 57.45 -55.5 60.78 -51.79 64.48 -46.31 66.44 -44.35 69.76 -38.9 73.47 -35.16 75.04 -29.71 78.95 -24.03 80.51 -20.33 82.28 -13.08 84.21 -9.19 85.99 -3.72 85.97 3.72 84.23 9.19 82.27 13.08 80.71 20.33 78.75 24.03 75.24 29.71 73.28 35.16 69.95 38.9 68 44.35 62.72 46.31 60.98 51.79 57.26 55.5 53.74 57.45 48.26 62.92 44.75 64.87 39.47 68.4 35.75 70.34 30.49 74.06 25.01 76.02 21.5 79.53 14.45 79.73 8.8 81.49 3.72 83.25 -3.72 83.25 -8.8 81.49 -14.45 79.73 -21.5 79.54 -25.01 75.82 -30.49 74.06 -35.75 70.35 -39.47 68.58 -44.75 64.89 -48.26 62.91 -53.74 57.46 -57.26 55.5 -60.98 51.78 -62.72 46.31 -68 44.36 -69.95 38.88 -73.28 35.18 -75.24 29.71 -78.75 24.03 -80.71 20.32 -82.27 13.1 -84.23 9.19 -85.97 3.71 -85.99 -3.71 -84.21 -9.19 -82.28 -13.1 -80.51 -20.32 -78.95 -24.03 -75.04 -29.71 -73.47 -35.18 -69.76 -38.88 -66.44 -44.36 -64.48 -46.31 -24.23 -20.51 -140.5 137.37 30.49 25.6 68 51.98 69.95 48.07 -638.79 621.8 299.56 445.73zm1096.65 -3091.21l73.47 1.96 73.48 9.19 69.76 13.08 68 20.33 66.24 22.27 62.72 29.51 62.72 33.42 57.26 38.88 53.74 40.64 50.22 46.32 48.27 50.02 42.99 53.74 39.47 55.5 33.99 59.2 30.29 61.17 23.45 62.92 21.5 66.63 14.26 70.35 8.99 68.59 3.52 72.1 -3.52 72.11 -8.99 70.54 -14.26 68.39 -21.5 66.65 -23.45 62.91 -30.29 61.17 -33.99 59.22 -39.47 55.5 -42.99 53.74 -48.27 48.07 -50.22 48.26 -53.74 40.66 -57.26 38.88 -62.72 31.46 -62.72 29.71 -66.24 24.03 -68 20.32 -69.76 12.91 -73.48 9.37 -73.47 1.76 -73.48 -1.76 -71.52 -9.37 -71.71 -12.91 -68 -20.32 -66.24 -24.03 -62.74 -29.71 -60.96 -31.46 -57.26 -38.88 -55.5 -40.66 -50.02 -48.26 -46.71 -48.07 -44.74 -53.74 -37.53 -55.5 -35.75 -59.22 -28.73 -61.17 -25.01 -62.91 -19.74 -66.65 -14.26 -68.39 -8.99 -70.54 -3.71 -72.11 3.71 -72.1 8.99 -68.59 14.26 -70.35 19.74 -66.63 25.01 -62.92 28.73 -61.17 35.75 -59.2 37.53 -55.5 44.74 -53.74 46.71 -50.02 50.02 -46.32 55.5 -40.64 57.26 -38.88 60.96 -33.42 62.74 -29.51 66.24 -22.27 68 -20.33 71.71 -13.08 71.52 -9.19 73.48 -1.96zm0 194.44l0 194.43 55.5 3.71 51.98 7.43 51.98 12.91 48.26 18.56 44.75 24.03 44.94 27.75 39.29 31.47 35.75 35.16 32.25 38.9 28.73 40.84 23.25 44.35 19.73 48.07 14.28 48.27 8.99 53.54 3.52 53.94 198.93 0 -1.76 -63.11 -9 -60.98 -14.45 -59.41 -17.78 -55.5 -23.25 -55.5 -28.73 -51.78 -32.25 -48.27 -37.71 -46.31 -41.03 -42.6 -42.99 -40.64 -48.46 -35.18 -50.03 -31.46 -53.74 -27.75 -55.5 -24.04 -57.45 -16.8 -60.78 -14.65 -62.72 -7.43 -64.48 -1.95zm6116.95 14151.08l0 -11254.31 3739.58 0 0 -3735.67 -7475.26 0 0 14989.99 3735.67 0z"/>
 </g>
</svg>
